<svg xmlns="http://www.w3.org/2000/svg" width="109" height="40" viewBox="0 0 109 40" fill="none"><g clip-path="url(#clip0_4027_11801)"><mask id="mask0_4027_11801" style="mask-type:luminance" maskUnits="userSpaceOnUse" x="0" y="0" width="39" height="39"><path d="M0.716309 0.701172H38.3091V38.294H0.716309V0.701172Z" fill="white"></path></mask><g mask="url(#mask0_4027_11801)"><mask id="mask1_4027_11801" style="mask-type:luminance" maskUnits="userSpaceOnUse" x="0" y="0" width="39" height="39"><path d="M19.5127 0.701172C9.13151 0.701172 0.716309 9.11637 0.716309 19.4976C0.716309 29.8788 9.13151 38.294 19.5127 38.294C29.8939 38.294 38.3091 29.8788 38.3091 19.4976C38.3091 9.11637 29.8939 0.701172 19.5127 0.701172Z" fill="white"></path></mask><g mask="url(#mask1_4027_11801)"><path d="M0.716309 0.701172H38.3091V38.294H0.716309V0.701172Z" fill="white"></path></g></g><mask id="mask2_4027_11801" style="mask-type:luminance" maskUnits="userSpaceOnUse" x="0" y="0" width="40" height="40"><path d="M0 0.00012207H39.0297V39.0298H0V0.00012207Z" fill="white"></path></mask><g mask="url(#mask2_4027_11801)"><path d="M19.5119 0.00012207C19.1931 0.00012207 18.8736 0.00825322 18.5548 0.0239348C18.2359 0.0396163 17.9177 0.0628483 17.5994 0.0942115C17.2817 0.125575 16.9651 0.164488 16.6492 0.211533C16.3332 0.258578 16.0184 0.313173 15.7054 0.375318C15.3923 0.437464 15.081 0.507741 14.7709 0.584987C14.4613 0.662814 14.1535 0.747611 13.848 0.840539C13.5425 0.933466 13.2393 1.03336 12.9385 1.14081C12.6382 1.24884 12.3402 1.36326 12.0452 1.48581C11.7501 1.60777 11.458 1.73729 11.1693 1.87378C10.8807 2.01027 10.5955 2.15373 10.3144 2.30415C10.0327 2.45516 9.75452 2.61198 9.48097 2.77634C9.20683 2.94071 8.93734 3.11146 8.67191 3.28861C8.40649 3.46633 8.14513 3.64986 7.889 3.84037C7.63228 4.03029 7.3808 4.2266 7.13396 4.4293C6.88712 4.632 6.64492 4.8405 6.40854 5.05482C6.17215 5.26971 5.94099 5.48984 5.71506 5.71519C5.48913 5.94112 5.26901 6.17228 5.0547 6.40924C4.8398 6.64563 4.63129 6.88724 4.42917 7.13408C4.22648 7.38092 4.03017 7.6324 3.83966 7.88912C3.64974 8.14583 3.46563 8.40661 3.28849 8.67203C3.11076 8.93746 2.94001 9.20753 2.77622 9.48109C2.61185 9.75523 2.45446 10.0328 2.30403 10.3145C2.1536 10.5962 2.00957 10.8814 1.87308 11.1701C1.73659 11.4587 1.60765 11.7509 1.4851 12.0453C1.36314 12.3404 1.24814 12.6383 1.14069 12.9392C1.03266 13.24 0.932764 13.5432 0.839836 13.8487C0.747488 14.1542 0.662111 14.462 0.584865 14.7716C0.507038 15.0812 0.437342 15.393 0.374615 15.7061C0.31247 16.0191 0.257875 16.3339 0.21083 16.6493C0.164366 16.9653 0.125453 17.2824 0.0940895 17.6001C0.0627264 17.9178 0.0389136 18.2361 0.023232 18.5549C0.00755035 18.8744 0 19.1932 0 19.5127C0 19.8321 0.00755035 20.1509 0.023232 20.4698C0.0389136 20.7892 0.0627264 21.1075 0.0940895 21.4252C0.125453 21.7429 0.164366 22.06 0.21083 22.3754C0.257875 22.6914 0.31247 23.0062 0.374615 23.3192C0.437342 23.6323 0.507038 23.9441 0.584865 24.2537C0.662111 24.5633 0.747488 24.8711 0.839836 25.1766C0.932764 25.4821 1.03266 25.7853 1.14069 26.0861C1.24814 26.387 1.36314 26.6844 1.4851 26.9794C1.60765 27.2745 1.73659 27.5666 1.87308 27.8553C2.00957 28.1439 2.1536 28.4291 2.30403 28.7108C2.45446 28.9925 2.61185 29.2701 2.77622 29.5436C2.94001 29.8178 3.11076 30.0873 3.28849 30.3533C3.46563 30.6187 3.64974 30.8795 3.83966 31.1362C4.03017 31.3923 4.22648 31.6444 4.42917 31.8912C4.63129 32.1381 4.8398 32.3797 5.0547 32.6161C5.26901 32.853 5.48913 33.0842 5.71506 33.3101C5.94099 33.5355 6.17215 33.7556 6.40854 33.9705C6.64492 34.1848 6.88712 34.3933 7.13396 34.596C7.3808 34.7981 7.63228 34.995 7.889 35.1849C8.14513 35.3754 8.40649 35.559 8.67191 35.7367C8.93734 35.9138 9.20683 36.0846 9.48097 36.249C9.75452 36.4127 10.0327 36.5701 10.3144 36.7206C10.5955 36.8716 10.8807 37.015 11.1693 37.1515C11.458 37.288 11.7501 37.4175 12.0452 37.5395C12.3402 37.662 12.6382 37.7765 12.9385 37.8845C13.2393 37.9919 13.5425 38.0918 13.848 38.1848C14.1535 38.2771 14.4613 38.3625 14.7709 38.4403C15.081 38.5176 15.3923 38.5878 15.7054 38.65C16.0184 38.7121 16.3332 38.7667 16.6492 38.8138C16.9651 38.8602 17.2817 38.8997 17.5994 38.9311C17.9177 38.9625 18.2359 38.9857 18.5548 39.0014C18.8736 39.017 19.1931 39.0246 19.5119 39.0246C19.8314 39.0246 20.1508 39.017 20.4697 39.0014C20.7885 38.9857 21.1068 38.9625 21.4245 38.9311C21.7422 38.8997 22.0593 38.8602 22.3753 38.8138C22.6912 38.7667 23.0055 38.7121 23.3191 38.65C23.6321 38.5878 23.9434 38.5176 24.253 38.4403C24.5632 38.3625 24.8704 38.2771 25.1765 38.1848C25.482 38.0918 25.7852 37.9919 26.0854 37.8845C26.3863 37.7765 26.6842 37.662 26.9793 37.5395C27.2743 37.4175 27.5659 37.288 27.8545 37.1515C28.1432 37.015 28.4284 36.8716 28.7101 36.7206C28.9918 36.5701 29.2694 36.4127 29.5435 36.249C29.8171 36.0846 30.0871 35.9138 30.3526 35.7367C30.618 35.559 30.8794 35.3754 31.1355 35.1849C31.3922 34.995 31.6437 34.7981 31.8905 34.596C32.1374 34.3933 32.379 34.1848 32.6159 33.9705C32.8523 33.7556 33.0835 33.5355 33.3094 33.3101C33.5353 33.0842 33.7555 32.853 33.9698 32.6161C34.1841 32.3797 34.3926 32.1381 34.5953 31.8912C34.798 31.6444 34.9943 31.3923 35.1842 31.1362C35.3747 30.8795 35.5588 30.6187 35.736 30.3533C35.9131 30.0873 36.0839 29.8178 36.2483 29.5436C36.4126 29.2701 36.57 28.9925 36.7204 28.7108C36.8709 28.4291 37.0143 28.1439 37.1508 27.8553C37.2873 27.5666 37.4168 27.2745 37.5394 26.9794C37.6613 26.6844 37.7763 26.387 37.8838 26.0861C37.9912 25.7853 38.0917 25.4821 38.1841 25.1766C38.277 24.8711 38.3618 24.5633 38.4396 24.2537C38.5174 23.9441 38.5871 23.6323 38.6493 23.3192C38.712 23.0062 38.7666 22.6914 38.8131 22.3754C38.8601 22.06 38.899 21.7429 38.9304 21.4252C38.9618 21.1075 38.985 20.7892 39.0007 20.4698C39.0163 20.1509 39.0245 19.8321 39.0245 19.5127C39.0245 19.1932 39.0163 18.8744 39.0007 18.5549C38.985 18.2361 38.9618 17.9178 38.9304 17.6001C38.899 17.2824 38.8601 16.9653 38.8131 16.6493C38.7666 16.3339 38.712 16.0191 38.6493 15.7061C38.5871 15.393 38.5174 15.0812 38.4396 14.7716C38.3618 14.462 38.277 14.1542 38.1841 13.8487C38.0917 13.5432 37.9912 13.24 37.8838 12.9392C37.7763 12.6383 37.6613 12.3404 37.5394 12.0453C37.4168 11.7509 37.2873 11.4587 37.1508 11.1701C37.0143 10.8814 36.8709 10.5962 36.7204 10.3145C36.57 10.0328 36.4126 9.75523 36.2483 9.48109C36.0845 9.20753 35.9131 8.93746 35.736 8.67203C35.5588 8.40661 35.3747 8.14583 35.1842 7.88912C34.9943 7.6324 34.798 7.38092 34.5953 7.13408C34.3926 6.88724 34.1841 6.64563 33.9698 6.40924C33.7555 6.17228 33.5353 5.94112 33.3094 5.71519C33.0835 5.48984 32.8523 5.26971 32.6159 5.05482C32.379 4.8405 32.1374 4.632 31.8905 4.4293C31.6437 4.2266 31.3922 4.03029 31.1355 3.84037C30.8794 3.64986 30.618 3.46633 30.3526 3.28861C30.0871 3.11146 29.8171 2.94071 29.5435 2.77634C29.2694 2.61198 28.9918 2.45516 28.7101 2.30415C28.4284 2.15373 28.1432 2.01027 27.8545 1.87378C27.5659 1.73729 27.2743 1.60777 26.9793 1.48581C26.6842 1.36326 26.3863 1.24884 26.0854 1.14081C25.7852 1.03336 25.482 0.933466 25.1765 0.840539C24.8704 0.747611 24.5632 0.662814 24.253 0.584987C23.9434 0.507741 23.6321 0.437464 23.3191 0.375318C23.0055 0.313173 22.6912 0.258578 22.3753 0.211533C22.0593 0.164488 21.7422 0.125575 21.4245 0.0942115C21.1068 0.0628483 20.7885 0.0396163 20.4697 0.0239348C20.1508 0.00825322 19.8314 0.00012207 19.5119 0.00012207ZM19.5119 1.2651C19.8111 1.2651 20.109 1.27265 20.4075 1.28717C20.7061 1.30169 21.0034 1.32376 21.3008 1.3528C21.5982 1.38242 21.8944 1.41901 22.1894 1.46257C22.4851 1.50613 22.7789 1.55724 23.0722 1.61591C23.365 1.67399 23.6565 1.73962 23.9458 1.81163C24.2356 1.88423 24.5231 1.9638 24.8094 2.05092C25.0952 2.13746 25.3786 2.23097 25.6597 2.33145C25.9408 2.43251 26.219 2.53996 26.4949 2.65379C26.7714 2.76821 27.0438 2.8896 27.3138 3.01679C27.5839 3.14457 27.8505 3.27873 28.1142 3.41987C28.3773 3.56042 28.6369 3.70736 28.893 3.86127C29.1491 4.01461 29.4018 4.17433 29.6498 4.34043C29.8984 4.50596 30.1423 4.67788 30.3822 4.85618C30.6221 5.03391 30.8573 5.21744 31.0884 5.40678C31.319 5.5967 31.5449 5.79127 31.7662 5.99223C31.9875 6.1926 32.2042 6.39821 32.415 6.60962C32.6264 6.82103 32.832 7.03709 33.033 7.25837C33.2333 7.47965 33.4285 7.70559 33.6178 7.93674C33.8072 8.16732 33.9907 8.40254 34.169 8.64241C34.3467 8.88228 34.5186 9.12622 34.6842 9.3748C34.8503 9.62338 35.01 9.87545 35.1633 10.1316C35.3172 10.3877 35.4642 10.6473 35.6053 10.911C35.7459 11.1741 35.88 11.4407 36.0078 11.7108C36.1356 11.9808 36.2564 12.2538 36.3708 12.5297C36.4852 12.8056 36.5927 13.0838 36.6931 13.3655C36.7936 13.6466 36.8871 13.93 36.9743 14.2158C37.0608 14.5015 37.1404 14.789 37.213 15.0788C37.2856 15.3686 37.3506 15.6596 37.4093 15.9529C37.4674 16.2457 37.5185 16.5395 37.562 16.8352C37.6062 17.1308 37.6428 17.427 37.6718 17.7238C37.7008 18.0212 37.7229 18.3191 37.738 18.6171C37.7525 18.9156 37.7595 19.2141 37.7595 19.5127C37.7595 19.8112 37.7525 20.1097 37.738 20.4082C37.7229 20.7062 37.7008 21.0041 37.6718 21.3009C37.6428 21.5983 37.6062 21.8945 37.562 22.1901C37.5185 22.4858 37.4674 22.7796 37.4093 23.0724C37.3506 23.3657 37.2856 23.6567 37.213 23.9465C37.1404 24.2363 37.0608 24.5238 36.9743 24.8095C36.8871 25.0953 36.7936 25.3787 36.6931 25.6598C36.5927 25.9409 36.4852 26.2197 36.3708 26.4956C36.2564 26.7715 36.1356 27.0445 36.0078 27.3145C35.88 27.5846 35.7459 27.8512 35.6053 28.1143C35.4642 28.378 35.3172 28.6376 35.1633 28.8937C35.01 29.1499 34.8503 29.4019 34.6842 29.6505C34.5186 29.8985 34.3467 30.143 34.169 30.3829C33.9907 30.6228 33.8072 30.858 33.6178 31.0886C33.4285 31.3197 33.2333 31.5456 33.033 31.7669C32.832 31.9882 32.6264 32.2043 32.415 32.4157C32.2042 32.6265 31.9875 32.8327 31.7662 33.0331C31.5449 33.2335 31.319 33.4286 31.0884 33.6179C30.8573 33.8079 30.6221 33.9914 30.3822 34.1691C30.1423 34.3468 29.8984 34.5188 29.6498 34.6849C29.4018 34.851 29.1491 35.0107 28.893 35.164C28.6369 35.3174 28.3773 35.4649 28.1142 35.6054C27.8505 35.7466 27.5839 35.8807 27.3138 36.0079C27.0438 36.1357 26.7714 36.2571 26.4955 36.3709C26.219 36.4853 25.9408 36.5928 25.6597 36.6933C25.3786 36.7943 25.0952 36.8878 24.8094 36.9744C24.5231 37.0609 24.2356 37.1405 23.9458 37.2131C23.6565 37.2857 23.365 37.3513 23.0722 37.4094C22.7789 37.4681 22.4851 37.5186 22.1894 37.5627C21.8944 37.6063 21.5982 37.6429 21.3008 37.6725C21.0034 37.7015 20.7061 37.7236 20.4075 37.7381C20.109 37.7527 19.8111 37.7602 19.5119 37.7602C19.2134 37.7602 18.9149 37.7527 18.6169 37.7381C18.3184 37.7236 18.021 37.7015 17.7237 37.6725C17.4263 37.6429 17.1301 37.6063 16.8345 37.5627C16.5394 37.5186 16.245 37.4681 15.9522 37.4094C15.6595 37.3513 15.3679 37.2857 15.0781 37.2131C14.7889 37.1405 14.5008 37.0609 14.2151 36.9744C13.9293 36.8878 13.6459 36.7943 13.3648 36.6933C13.0837 36.5928 12.8049 36.4853 12.529 36.3709C12.2531 36.2571 11.9801 36.1357 11.7101 36.0079C11.4406 35.8807 11.1734 35.7466 10.9103 35.6054C10.6472 35.4649 10.387 35.3174 10.1309 35.164C9.87475 35.0107 9.62268 34.851 9.3741 34.6849C9.1261 34.5188 8.88216 34.3468 8.64229 34.1691C8.40242 33.9914 8.16662 33.8079 7.93604 33.6179C7.70546 33.4286 7.47895 33.2335 7.25767 33.0331C7.03638 32.8327 6.82032 32.6265 6.60891 32.4157C6.39808 32.2043 6.1919 31.9882 5.99152 31.7669C5.79115 31.5456 5.596 31.3197 5.40666 31.0886C5.21732 30.858 5.03321 30.6228 4.85548 30.3829C4.67776 30.143 4.50584 29.8985 4.33973 29.6505C4.1742 29.4019 4.01448 29.1499 3.86057 28.8937C3.70724 28.6376 3.5603 28.378 3.41916 28.1143C3.27861 27.8512 3.14445 27.5846 3.01667 27.3145C2.8889 27.0445 2.76809 26.7715 2.65367 26.4956C2.53925 26.2197 2.43181 25.9409 2.33133 25.6598C2.23085 25.3787 2.13676 25.0953 2.05022 24.8095C1.96368 24.5238 1.88411 24.2363 1.81151 23.9465C1.73891 23.6567 1.67328 23.3657 1.6152 23.0724C1.55712 22.7796 1.50601 22.4858 1.46187 22.1901C1.41831 21.8945 1.38172 21.5983 1.35268 21.3009C1.32306 21.0041 1.30099 20.7062 1.28647 20.4082C1.27195 20.1097 1.2644 19.8112 1.2644 19.5127C1.2644 19.2141 1.27195 18.9156 1.28647 18.6171C1.30099 18.3191 1.32306 18.0212 1.35268 17.7238C1.38172 17.427 1.41831 17.1308 1.46187 16.8352C1.50601 16.5395 1.55712 16.2457 1.6152 15.9529C1.67328 15.6596 1.73891 15.3686 1.81151 15.0788C1.88411 14.789 1.96368 14.5015 2.05022 14.2158C2.13676 13.93 2.23085 13.6466 2.33133 13.3655C2.43181 13.0838 2.53925 12.8056 2.65367 12.5297C2.76809 12.2538 2.8889 11.9808 3.01667 11.7108C3.14445 11.4407 3.27861 11.1741 3.41916 10.911C3.5603 10.6473 3.70724 10.3877 3.86057 10.1316C4.01448 9.87545 4.1742 9.62338 4.33973 9.3748C4.50584 9.12622 4.67776 8.88228 4.85548 8.64241C5.03321 8.40254 5.21732 8.16732 5.40666 7.93674C5.596 7.70559 5.79115 7.47965 5.99152 7.25837C6.1919 7.03709 6.39808 6.82103 6.60891 6.60962C6.82032 6.39821 7.03638 6.1926 7.25767 5.99223C7.47895 5.79127 7.70546 5.5967 7.93604 5.40678C8.16662 5.21744 8.40242 5.03391 8.64229 4.85618C8.88216 4.67788 9.1261 4.50596 9.3741 4.34043C9.62268 4.17433 9.87475 4.01461 10.1309 3.86127C10.387 3.70736 10.6472 3.56042 10.9103 3.41987C11.1734 3.27873 11.4406 3.14457 11.7101 3.01679C11.9801 2.8896 12.2531 2.76821 12.529 2.65379C12.8049 2.53996 13.0837 2.43251 13.3648 2.33145C13.6459 2.23097 13.9293 2.13746 14.2151 2.05092C14.5008 1.9638 14.7889 1.88423 15.0781 1.81163C15.3679 1.73962 15.6595 1.67399 15.9522 1.61591C16.245 1.55724 16.5394 1.50613 16.8345 1.46257C17.1301 1.41901 17.4263 1.38242 17.7237 1.3528C18.021 1.32376 18.3184 1.30169 18.6169 1.28717C18.9149 1.27265 19.2134 1.2651 19.5119 1.2651ZM19.5119 2.5295C19.2343 2.5295 18.9567 2.53647 18.6791 2.55041C18.4015 2.56377 18.1244 2.5841 17.8474 2.6114C17.5709 2.63869 17.295 2.67296 17.0203 2.71362C16.7456 2.75427 16.4715 2.8019 16.1991 2.85591C15.9261 2.91051 15.6554 2.97091 15.3854 3.03886C15.1159 3.10624 14.8481 3.18058 14.5821 3.26073C14.3161 3.34146 14.0524 3.42858 13.7911 3.52267C13.5291 3.61618 13.2701 3.71608 13.0128 3.82236C12.7561 3.92865 12.5023 4.04132 12.2508 4.16039C11.9999 4.27887 11.7513 4.40374 11.5062 4.535C11.2611 4.66626 11.0195 4.80275 10.7814 4.94563C10.5427 5.08908 10.308 5.23719 10.0769 5.39168C9.84571 5.54617 9.61862 5.70647 9.39559 5.872C9.17198 6.03753 8.95302 6.20828 8.73812 6.38485C8.52323 6.56083 8.31298 6.74262 8.10738 6.92906C7.90119 7.11549 7.70024 7.30716 7.50334 7.50405C7.30703 7.70036 7.11537 7.9019 6.92893 8.1075C6.74192 8.31368 6.56071 8.52393 6.38414 8.73883C6.20816 8.95372 6.03683 9.17268 5.8713 9.39571C5.70577 9.61932 5.54605 9.84641 5.39156 10.0776C5.23707 10.3087 5.08838 10.5434 4.94551 10.7815C4.80263 11.0202 4.66556 11.2618 4.53488 11.5069C4.40362 11.752 4.27875 12 4.15968 12.2515C4.0412 12.503 3.92853 12.7568 3.82224 13.0135C3.71537 13.2702 3.61547 13.5298 3.52197 13.7912C3.42846 14.0531 3.34134 14.3168 3.26061 14.5828C3.17988 14.8488 3.10553 15.1166 3.03816 15.3861C2.97079 15.6556 2.9098 15.9268 2.85579 16.1992C2.80119 16.4722 2.75415 16.7457 2.71291 17.0204C2.67226 17.2957 2.63857 17.5716 2.61127 17.8481C2.58398 18.1245 2.56365 18.4016 2.54971 18.6792C2.53635 18.9568 2.52938 19.2344 2.52938 19.5127C2.52938 19.7903 2.53635 20.0685 2.54971 20.3461C2.56365 20.6237 2.58398 20.9008 2.61127 21.1772C2.63857 21.4537 2.67226 21.7296 2.71291 22.0043C2.75415 22.2796 2.80119 22.5531 2.85579 22.8255C2.9098 23.0985 2.97079 23.3697 3.03816 23.6392C3.10553 23.9087 3.17988 24.1765 3.26061 24.4425C3.34134 24.7085 3.42846 24.9722 3.52197 25.2341C3.61547 25.4955 3.71537 25.7551 3.82224 26.0118C3.92853 26.2685 4.0412 26.5223 4.15968 26.7738C4.27875 27.0247 4.40362 27.2733 4.53488 27.5184C4.66556 27.7635 4.80263 28.0051 4.94551 28.2438C5.08838 28.4819 5.23707 28.7166 5.39156 28.9477C5.54605 29.1789 5.70577 29.406 5.8713 29.629C6.03683 29.8526 6.20816 30.0716 6.38414 30.2865C6.56071 30.5014 6.74192 30.7116 6.92893 30.9178C7.11537 31.1234 7.30703 31.3249 7.50334 31.5213C7.70024 31.7176 7.90119 31.9092 8.10738 32.0962C8.31298 32.2827 8.52323 32.4645 8.73812 32.6405C8.95302 32.817 9.17198 32.9878 9.39559 33.1533C9.61862 33.3188 9.84571 33.4791 10.0769 33.6336C10.308 33.7875 10.5427 33.9362 10.7814 34.0791C11.0195 34.222 11.2611 34.359 11.5062 34.4903C11.7513 34.621 11.9999 34.7459 12.2508 34.8649C12.5023 34.984 12.7561 35.0967 13.0128 35.2029C13.2701 35.3092 13.5291 35.4091 13.7911 35.5026C14.0524 35.5961 14.3161 35.6833 14.5821 35.764C14.8481 35.8447 15.1159 35.9191 15.3854 35.9864C15.6554 36.0538 15.9261 36.1148 16.1991 36.1694C16.4715 36.2234 16.7456 36.271 17.0203 36.3117C17.295 36.3523 17.5709 36.3866 17.8474 36.4139C18.1244 36.4412 18.4015 36.4615 18.6791 36.4749C18.9567 36.4888 19.2343 36.4952 19.5119 36.4952C19.7902 36.4952 20.0678 36.4888 20.3454 36.4749C20.623 36.4615 20.9001 36.4412 21.1765 36.4139C21.4536 36.3866 21.7289 36.3523 22.0042 36.3117C22.2789 36.271 22.553 36.2234 22.8254 36.1694C23.0978 36.1148 23.369 36.0538 23.6385 35.9864C23.908 35.9191 24.1758 35.8447 24.4418 35.764C24.7078 35.6833 24.972 35.5961 25.2334 35.5026C25.4953 35.4091 25.7544 35.3092 26.0111 35.2029C26.2678 35.0967 26.5222 34.984 26.7731 34.8649C27.0246 34.7459 27.2726 34.621 27.5177 34.4903C27.7628 34.359 28.005 34.222 28.2431 34.0791C28.4812 33.9362 28.7165 33.7875 28.9476 33.6336C29.1782 33.4791 29.4059 33.3188 29.6289 33.1533C29.8519 32.9878 30.0709 32.817 30.2858 32.6405C30.5007 32.4645 30.7109 32.2827 30.9171 32.0962C31.1233 31.9092 31.3242 31.7176 31.5211 31.5213C31.7174 31.3249 31.9091 31.1234 32.0955 30.9178C32.2826 30.7116 32.4638 30.5014 32.6403 30.2865C32.8163 30.0716 32.9871 29.8526 33.1532 29.629C33.3187 29.406 33.4784 29.1789 33.6329 28.9477C33.7874 28.7166 33.9361 28.4819 34.079 28.2438C34.2218 28.0051 34.3589 27.7635 34.4896 27.5184C34.6209 27.2733 34.7457 27.0247 34.8642 26.7738C34.9833 26.5223 35.096 26.2685 35.2022 26.0118C35.3085 25.7551 35.4084 25.4955 35.5025 25.2341C35.596 24.9722 35.6831 24.7085 35.7639 24.4425C35.8446 24.1765 35.9184 23.9087 35.9863 23.6392C36.0537 23.3697 36.1147 23.0985 36.1687 22.8255C36.2227 22.5531 36.2703 22.2796 36.311 22.0043C36.3522 21.7296 36.3859 21.4537 36.4132 21.1772C36.4405 20.9008 36.4608 20.6237 36.4748 20.3461C36.4881 20.0685 36.4951 19.7903 36.4951 19.5127C36.4951 19.2344 36.4881 18.9568 36.4748 18.6792C36.4608 18.4016 36.4405 18.1245 36.4132 17.8481C36.3859 17.5716 36.3522 17.2957 36.311 17.0204C36.2703 16.7457 36.2227 16.4722 36.1687 16.1992C36.1147 15.9268 36.0537 15.6556 35.9863 15.3861C35.9184 15.1166 35.8446 14.8488 35.7639 14.5828C35.6831 14.3168 35.596 14.0531 35.5025 13.7912C35.4084 13.5298 35.3085 13.2702 35.2022 13.0135C35.096 12.7568 34.9833 12.503 34.8642 12.2515C34.7457 12 34.6209 11.752 34.4896 11.5069C34.3589 11.2618 34.2218 11.0202 34.079 10.7815C33.9361 10.5434 33.7874 10.3087 33.6329 10.0776C33.4784 9.84641 33.3187 9.61932 33.1532 9.39571C32.9871 9.17268 32.8163 8.95372 32.6403 8.73883C32.4638 8.52393 32.2826 8.31368 32.0955 8.1075C31.9091 7.9019 31.7174 7.70036 31.5211 7.50405C31.3242 7.30716 31.1233 7.11549 30.9171 6.92906C30.7115 6.74262 30.5007 6.56083 30.2858 6.38485C30.0709 6.20828 29.8519 6.03753 29.6289 5.872C29.4059 5.70647 29.1782 5.54617 28.9476 5.39168C28.7165 5.23719 28.4812 5.08908 28.2431 4.94563C28.005 4.80275 27.7628 4.66626 27.5177 4.535C27.2726 4.40374 27.0246 4.27887 26.7731 4.16039C26.5222 4.04132 26.2678 3.92865 26.0111 3.82236C25.7544 3.71608 25.4953 3.61618 25.2334 3.52267C24.972 3.42858 24.7078 3.34146 24.4418 3.26073C24.1758 3.18058 23.908 3.10624 23.6385 3.03886C23.369 2.97091 23.0978 2.91051 22.8254 2.85591C22.553 2.8019 22.2789 2.75427 22.0042 2.71362C21.7289 2.67296 21.4536 2.63869 21.1765 2.6114C20.9001 2.5841 20.623 2.56377 20.3454 2.55041C20.0678 2.53647 19.7902 2.5295 19.5119 2.5295ZM19.3975 7.64809L21.4524 8.16035L20.6265 11.4715C21.1783 11.5975 21.7323 11.7247 22.2736 11.8595L23.0932 8.57098L25.1498 9.08382L24.3076 12.4606C26.9032 13.3539 28.8024 14.6955 28.429 17.1877C28.1595 19.0132 27.1477 19.896 25.8032 20.2067C27.6466 21.1673 28.5869 22.6403 27.6919 25.1929C26.5826 28.3635 23.9464 28.6312 20.4406 27.9673L19.5892 31.3772L17.5326 30.865L18.3718 27.5015C17.8398 27.368 17.2945 27.2286 16.734 27.0758L15.8912 30.4555L13.8381 29.9426L14.6896 26.527C14.2098 26.4038 13.7214 26.2737 13.2236 26.1494L10.5485 25.4821L11.5689 23.1293C11.5689 23.1293 13.0842 23.5324 13.0633 23.5027C13.6465 23.6462 13.9043 23.2669 14.006 23.0137L15.3505 17.6239C15.3517 17.6134 15.3517 17.6134 15.3534 17.6094L16.3129 13.7616C16.3385 13.3237 16.1869 12.7736 15.3552 12.5651C15.3877 12.5431 13.8619 12.194 13.8619 12.194L14.409 9.998L17.2451 10.7054L17.2422 10.7159C17.6679 10.8222 18.1082 10.9226 18.5548 11.0249L19.3975 7.64809ZM20.073 13.8992L19.0496 18.0032C20.2095 18.2924 23.7872 19.472 24.3674 17.1505C24.9697 14.7286 21.2334 14.189 20.073 13.8992ZM18.531 20.0778L17.4025 24.6028C18.7964 24.9489 23.0949 26.3277 23.7303 23.7751C24.3947 21.1116 19.9249 20.4239 18.531 20.0778Z" fill="#DD0002"></path></g><path d="M44.9368 17.911V5.25042H49.9155C51.1701 5.25042 52.0826 5.54127 52.6529 6.12297C53.2346 6.69327 53.5254 7.50879 53.5254 8.56954C53.5254 9.07141 53.4513 9.51624 53.303 9.90404C53.1662 10.2804 52.9665 10.5941 52.7042 10.845C52.4419 11.0846 52.1282 11.2499 51.7632 11.3412C52.037 11.4096 52.2993 11.518 52.5502 11.6663C52.8126 11.8145 53.0464 12.0141 53.2517 12.2651C53.4684 12.516 53.6338 12.824 53.7479 13.189C53.8733 13.5425 53.9361 13.9531 53.9361 14.4208C53.9361 15.2762 53.7878 15.9606 53.4912 16.4739C53.2061 16.9871 52.7784 17.3578 52.2081 17.5859C51.6492 17.8027 50.9591 17.911 50.1379 17.911H44.9368ZM47.4689 15.6355H50.0694C50.366 15.6355 50.6226 15.5785 50.8393 15.4644C51.0561 15.3504 51.2214 15.1736 51.3355 14.9341C51.461 14.6945 51.5237 14.3752 51.5237 13.976C51.5237 13.6452 51.461 13.3657 51.3355 13.1376C51.21 12.9095 51.0389 12.7327 50.8222 12.6072C50.6055 12.4818 50.3546 12.419 50.0694 12.419H47.4689V15.6355ZM47.4689 10.4686H49.9326C50.2976 10.4686 50.5827 10.3375 50.788 10.0751C51.0047 9.80139 51.1131 9.4478 51.1131 9.01438C51.1245 8.45549 51.0104 8.06768 50.7709 7.85097C50.5314 7.63426 50.2405 7.5259 49.8984 7.5259H47.4689V10.4686ZM55.6633 17.911V5.25042H58.1954V17.911H55.6633ZM63.0435 17.911V7.5259H59.5704V5.25042H69.0658V7.5259H65.5756V17.911H63.0435ZM74.6096 18.0137C73.8682 18.0137 73.2124 17.9281 72.6421 17.757C72.0832 17.5859 71.6042 17.2723 71.205 16.816C70.8172 16.3598 70.5206 15.7097 70.3153 14.8656C70.1214 14.0102 70.0244 12.9038 70.0244 11.5465C70.0244 10.2348 70.1271 9.16265 70.3324 8.33002C70.5491 7.48598 70.8571 6.83584 71.2563 6.3796C71.6555 5.91196 72.1402 5.58689 72.7105 5.4044C73.2808 5.2219 73.9253 5.13065 74.6439 5.13065C75.2141 5.13065 75.7445 5.16487 76.235 5.23331C76.7368 5.29034 77.1874 5.36447 77.5866 5.45572C77.9858 5.53556 78.3223 5.62681 78.596 5.72947V7.69699C78.3907 7.65137 78.1113 7.60574 77.7577 7.56012C77.4155 7.5145 77.022 7.48028 76.5772 7.45747C76.1323 7.42325 75.6647 7.40614 75.1742 7.40614C74.6952 7.40614 74.2846 7.46317 73.9424 7.57723C73.6116 7.67988 73.3436 7.87949 73.1383 8.17604C72.9444 8.46119 72.7961 8.87751 72.6934 9.42499C72.6022 9.97248 72.5566 10.6853 72.5566 11.5636C72.5566 12.4076 72.5965 13.1034 72.6763 13.6509C72.7676 14.1984 72.9101 14.6261 73.1041 14.9341C73.298 15.2306 73.5603 15.4416 73.8911 15.5671C74.2332 15.6811 74.661 15.7382 75.1742 15.7382C76.0411 15.7382 76.7425 15.7211 77.2786 15.6869C77.8261 15.6526 78.2652 15.6127 78.596 15.5671V17.5175C78.2881 17.6202 77.9345 17.7114 77.5353 17.7912C77.1361 17.8597 76.6969 17.911 76.2179 17.9452C75.7388 17.9909 75.2027 18.0137 74.6096 18.0137ZM85.1003 18.0137C84.2335 18.0137 83.475 17.9338 82.8249 17.7741C82.1747 17.6031 81.6272 17.2951 81.1824 16.8503C80.749 16.394 80.4239 15.7439 80.2072 14.8998C79.9905 14.0558 79.8821 12.9551 79.8821 11.5978C79.8821 10.2405 79.9905 9.13984 80.2072 8.2958C80.4353 7.44036 80.7661 6.78451 81.1995 6.32828C81.6329 5.87204 82.1747 5.55838 82.8249 5.38729C83.475 5.2162 84.2335 5.13065 85.1003 5.13065C85.9672 5.13065 86.7257 5.2162 87.3758 5.38729C88.026 5.55838 88.5677 5.87204 89.0012 6.32828C89.4346 6.78451 89.7597 7.44036 89.9764 8.2958C90.1931 9.13984 90.3014 10.2405 90.3014 11.5978C90.3014 12.9551 90.1931 14.0558 89.9764 14.8998C89.7597 15.7439 89.4346 16.394 89.0012 16.8503C88.5677 17.2951 88.026 17.6031 87.3758 17.7741C86.7257 17.9338 85.9672 18.0137 85.1003 18.0137ZM85.1003 15.7382C85.6136 15.7382 86.0413 15.6811 86.3835 15.5671C86.7257 15.453 86.9937 15.2534 87.1876 14.9683C87.3929 14.6717 87.5412 14.2554 87.6325 13.7193C87.7237 13.1718 87.7693 12.4647 87.7693 11.5978C87.7693 10.6853 87.7237 9.95537 87.6325 9.40788C87.5412 8.8604 87.3929 8.44408 87.1876 8.15893C86.9937 7.86238 86.7257 7.66277 86.3835 7.56012C86.0413 7.45747 85.6136 7.40614 85.1003 7.40614C84.6099 7.40614 84.1936 7.45747 83.8514 7.56012C83.5092 7.66277 83.2298 7.86238 83.013 8.15893C82.8077 8.44408 82.6538 8.8604 82.5511 9.40788C82.4599 9.95537 82.4142 10.6853 82.4142 11.5978C82.4142 12.4647 82.4542 13.1718 82.534 13.7193C82.6252 14.2554 82.7735 14.6717 82.9788 14.9683C83.1841 15.2534 83.4579 15.453 83.8001 15.5671C84.1536 15.6811 84.5871 15.7382 85.1003 15.7382ZM92.1701 17.911V5.25042H94.7022V17.911H92.1701ZM96.9839 17.911V5.25042H99.0199L104.324 13.5996V5.25042H106.856V17.911H104.82L99.5332 9.56186V17.911H96.9839Z" fill="#131313"></path><path d="M45.0223 34.1189V21.4583H47.0583L52.362 29.8075V21.4583H54.8942V34.1189H52.8582L47.5715 25.7697V34.1189H45.0223ZM60.0628 34.2044C59.789 34.2044 59.4754 34.1759 59.1218 34.1189C58.7682 34.0733 58.426 33.9592 58.0953 33.7767C57.7759 33.5942 57.5079 33.3205 57.2911 32.9555C57.0858 32.5791 56.9832 32.0658 56.9832 31.4157V24.3497C56.9832 23.7908 57.0687 23.3232 57.2398 22.9468C57.4109 22.5704 57.639 22.2738 57.9242 22.0571C58.2093 21.8404 58.523 21.6864 58.8652 21.5952C59.2073 21.5039 59.5438 21.4583 59.8746 21.4583C60.73 21.4583 61.4828 21.4697 62.133 21.4925C62.7945 21.5153 63.3876 21.5438 63.9123 21.5781C64.437 21.6009 64.916 21.6351 65.3494 21.6807V23.8022H60.6274C60.2738 23.8022 60.0001 23.8878 59.8061 24.0589C59.6122 24.2299 59.5153 24.4923 59.5153 24.8459V26.6765L64.5282 26.8134V28.8151L59.5153 28.952V30.6971C59.5153 30.9937 59.5609 31.2275 59.6522 31.3986C59.7548 31.5583 59.886 31.6723 60.0457 31.7408C60.2168 31.7978 60.3936 31.8263 60.5761 31.8263H65.3494V33.9478C64.8476 34.0048 64.2887 34.0505 63.6728 34.0847C63.0682 34.1189 62.4523 34.1474 61.825 34.1702C61.2091 34.193 60.6217 34.2044 60.0628 34.2044ZM69.4159 34.1189L66.3876 21.4583H69.0053L71.0412 30.3892L73.4194 21.4583H75.7462L78.1072 30.3892L80.1432 21.4583H82.7608L79.7326 34.1189H77.1491L74.5828 25.188L71.9993 34.1189H69.4159ZM87.6314 34.2215C87.3006 34.2215 86.9584 34.2101 86.6049 34.1873C86.2627 34.1759 85.9091 34.1531 85.5441 34.1189C85.1905 34.0733 84.854 34.0276 84.5347 33.982C84.2153 33.925 83.9245 33.8623 83.6621 33.7938V31.7921C84.0043 31.8263 84.3921 31.8548 84.8255 31.8776C85.259 31.9004 85.7095 31.9175 86.1771 31.929C86.6448 31.9404 87.0896 31.9461 87.5116 31.9461C87.9451 31.9461 88.3157 31.9118 88.6237 31.8434C88.9431 31.7636 89.1883 31.6324 89.3594 31.4499C89.5305 31.256 89.616 30.9937 89.616 30.6629V30.201C89.616 29.8246 89.502 29.5394 89.2738 29.3455C89.0571 29.1402 88.7435 29.0375 88.3329 29.0375H87.255C86.046 29.0375 85.1164 28.7752 84.4662 28.2505C83.8275 27.7145 83.5081 26.8077 83.5081 25.5302V24.9143C83.5081 23.6825 83.8617 22.7814 84.5689 22.2111C85.2761 21.6408 86.2855 21.3556 87.5972 21.3556C88.0648 21.3556 88.5268 21.3785 88.983 21.4241C89.4506 21.4697 89.8955 21.5267 90.3175 21.5952C90.7509 21.6522 91.1216 21.7149 91.4296 21.7834V23.7851C90.9049 23.7509 90.3175 23.7167 89.6673 23.6825C89.0286 23.6482 88.4355 23.6311 87.888 23.6311C87.5002 23.6311 87.1523 23.6711 86.8444 23.7509C86.5478 23.8193 86.3197 23.9562 86.16 24.1615C86.0003 24.3668 85.9205 24.6577 85.9205 25.0341V25.3762C85.9205 25.8211 86.046 26.1404 86.2969 26.3343C86.5478 26.5282 86.9185 26.6252 87.409 26.6252H88.6579C89.4221 26.6252 90.0494 26.7678 90.5399 27.0529C91.0418 27.3267 91.4125 27.7088 91.652 28.1992C91.9029 28.6897 92.0284 29.2486 92.0284 29.8759V30.5945C92.0284 31.5868 91.8402 32.3453 91.4638 32.8699C91.0988 33.3946 90.5855 33.7539 89.924 33.9478C89.2738 34.1303 88.5096 34.2215 87.6314 34.2215Z" fill="#DD0002"></path></g><defs><clipPath id="clip0_4027_11801"><rect width="108.842" height="39.0297" fill="white"></rect></clipPath></defs></svg>
