<svg xmlns="http://www.w3.org/2000/svg" id="Layer_2" viewBox="0 0 331.32 87.24"><defs><style>.cls-1{fill:#231f20}</style></defs><g id="Layer_1-2"><path d="M57.67 43.25c0 7.97-6.46 14.42-14.42 14.42s-14.42-6.45-14.42-14.42 6.45-14.42 14.42-14.42 14.42 6.45 14.42 14.42z" class="cls-1"/><path d="M57.43.01v18.61H18.62v67.87H0V.01h57.43z" class="cls-1"/><path d="M86.49.01v86.48H29.07V67.88h38.8V.01h18.62zM105.06 0h57.09v15.94H123.6v20.27h31.63v15.2H123.6V86.5h-18.54V0zm62.96 37.63c2.68-4.9 6.43-8.69 11.24-11.37 4.82-2.68 10.4-4.02 16.74-4.02s12.09 1.26 16.99 3.77c4.9 2.51 8.73 6.06 11.49 10.63 2.76 4.57 4.18 9.95 4.26 16.13 0 2.22-.17 4.2-.49 5.93h-46.09v.49c.41 4.61 1.89 8.24 4.45 10.87 2.55 2.64 6.05 3.95 10.5 3.95 3.54 0 6.49-.76 8.84-2.29 2.35-1.52 3.89-3.77 4.63-6.73h17.18c-.66 4.2-2.27 7.99-4.82 11.37-2.55 3.38-5.93 6.04-10.13 7.97-4.2 1.94-9.02 2.9-14.46 2.9-7.09 0-13.2-1.32-18.35-3.95-5.15-2.64-9.1-6.4-11.86-11.31-2.76-4.9-4.14-10.61-4.14-17.11s1.34-12.34 4.02-17.24zm43.31 9.7c-.58-3.87-2.16-6.86-4.76-8.96-2.59-2.1-5.87-3.15-9.82-3.15s-6.98 1.09-9.58 3.27c-2.59 2.18-4.14 5.13-4.63 8.84h28.79zM301.78 0v86.5h-15.2l-1.73-8.77c-4.86 6.34-11.45 9.51-19.77 9.51-5.6 0-10.63-1.34-15.08-4.02-4.45-2.68-7.93-6.49-10.44-11.43-2.51-4.94-3.77-10.67-3.77-17.18s1.26-12.09 3.77-16.99c2.51-4.9 6.01-8.69 10.5-11.37 4.49-2.68 9.53-4.02 15.14-4.02 8.24 0 14.62 2.89 19.15 8.65V0h17.42zM280.4 68.03c2.8-3.34 4.2-7.72 4.2-13.16s-1.4-9.97-4.2-13.35c-2.8-3.38-6.55-5.07-11.25-5.07s-8.46 1.69-11.31 5.07c-2.84 3.38-4.26 7.78-4.26 13.22s1.42 9.85 4.26 13.22c2.84 3.38 6.61 5.07 11.31 5.07s8.44-1.67 11.25-5.01zm33.49-45.05h17.42V86.5h-17.42V22.98zm0-22.98h17.42v17.42h-17.42z" class="cls-1"/></g></svg>