<svg width="302" height="84" viewBox="0 0 302 84" fill="none" xmlns="http://www.w3.org/2000/svg">
<path d="M164.106 74.4198V83.0201H119.274V74.4198H136.931V33.1407H119.274V24.5404H146.335V74.4198H164.106V74.4198ZM134.524 7.11166C134.524 3.09675 137.735 0 141.75 0C145.765 0 148.861 3.09675 148.861 7.11166C148.861 11.3548 145.765 14.3374 141.75 14.3374C137.735 14.3374 134.524 11.3548 134.524 7.11166Z" fill="#FF5500"/>
<path d="M229.286 24.5405V33.7113H221.718C208.07 33.7113 204.061 44.1478 204.061 53.4327V74.4145H223.782V83.0148H181.585V74.4145H194.657V33.1408H181.585V24.5405H203.599L203.941 34.4012C206.576 29.8159 211.852 24.5405 222.978 24.5405H229.286Z" fill="#FF5500"/>
<path d="M243.806 53.7804C243.806 36.0094 255.731 23.8506 272.818 23.8506C289.904 23.8506 301.829 36.004 301.829 53.7804C301.829 71.5568 289.904 83.7102 272.818 83.7102C255.731 83.7102 243.806 71.5568 243.806 53.7804V53.7804ZM292.197 53.7804C292.197 41.2847 284.401 32.2227 272.818 32.2227C261.235 32.2227 253.439 41.2793 253.439 53.7804C253.439 66.2815 261.235 75.3381 272.818 75.3381C284.401 75.3381 292.197 66.2815 292.197 53.7804V53.7804Z" fill="#FF5500"/>
<path d="M67.7056 83.0638L94.9515 2.38525H105.328L78.0824 83.0638H67.7056Z" fill="#FF5500"/>
<path d="M0 83.0638L27.246 2.38525H37.6174L10.3768 83.0638H0Z" fill="#FF5500"/>
<path d="M68.0632 38.4268H40.1708L37.2642 47.027H65.1567L68.0632 38.4268Z" fill="#FF5500"/>
</svg>
