<svg xmlns="http://www.w3.org/2000/svg" xmlns:xlink="http://www.w3.org/1999/xlink" width="500" zoomAndPan="magnify" viewBox="0 0 375 149.999998" height="200" preserveAspectRatio="xMidYMid meet" version="1.0"><defs><g/><clipPath id="65ff50b310"><path d="M 15 36 L 94.5 36 L 94.5 114 L 15 114 Z M 15 36 " clip-rule="nonzero"/></clipPath><clipPath id="7f461c56c1"><path d="M 85.34375 97.28125 L 29.90625 97.28125 C 29.597656 97.28125 29.289062 97.253906 28.984375 97.191406 C 28.679688 97.132812 28.382812 97.042969 28.097656 96.921875 C 27.8125 96.804688 27.539062 96.660156 27.28125 96.484375 C 27.023438 96.3125 26.785156 96.117188 26.566406 95.898438 C 26.34375 95.679688 26.148438 95.441406 25.976562 95.183594 C 25.804688 94.925781 25.660156 94.652344 25.539062 94.367188 C 25.421875 94.078125 25.332031 93.785156 25.273438 93.480469 C 25.210938 93.175781 25.179688 92.867188 25.179688 92.558594 C 25.179688 92.246094 25.210938 91.9375 25.273438 91.636719 C 25.332031 91.332031 25.421875 91.035156 25.539062 90.75 C 25.660156 90.460938 25.804688 90.191406 25.976562 89.933594 C 26.148438 89.671875 26.34375 89.433594 26.566406 89.214844 C 26.785156 88.996094 27.023438 88.800781 27.28125 88.628906 C 27.539062 88.457031 27.8125 88.308594 28.097656 88.191406 C 28.382812 88.074219 28.679688 87.984375 28.984375 87.921875 C 29.289062 87.863281 29.597656 87.832031 29.90625 87.832031 L 82.335938 87.832031 C 84.015625 84.054688 84.921875 80.101562 85.050781 75.96875 C 85.050781 75.023438 85.007812 74.085938 84.917969 73.144531 C 84.832031 72.207031 84.699219 71.273438 84.523438 70.347656 C 84.347656 69.421875 84.128906 68.507812 83.871094 67.601562 C 83.609375 66.695312 83.308594 65.804688 82.964844 64.925781 C 82.621094 64.046875 82.234375 63.1875 81.8125 62.347656 C 81.386719 61.503906 80.925781 60.683594 80.425781 59.886719 C 79.921875 59.085938 79.386719 58.3125 78.8125 57.5625 C 78.242188 56.816406 77.632812 56.09375 76.996094 55.402344 C 76.355469 54.710938 75.683594 54.050781 74.980469 53.421875 C 74.28125 52.792969 73.550781 52.195312 72.792969 51.636719 C 72.035156 51.074219 71.253906 50.546875 70.449219 50.058594 C 69.640625 49.570312 68.8125 49.121094 67.964844 48.710938 C 67.117188 48.300781 66.253906 47.929688 65.371094 47.597656 C 64.488281 47.269531 63.589844 46.980469 62.679688 46.734375 C 61.769531 46.488281 60.851562 46.28125 59.921875 46.121094 C 58.992188 45.960938 58.058594 45.84375 57.121094 45.769531 C 56.179688 45.695312 55.238281 45.667969 54.296875 45.679688 C 53.351562 45.695312 52.414062 45.753906 51.476562 45.855469 C 50.539062 45.957031 49.609375 46.101562 48.683594 46.289062 C 47.761719 46.480469 46.847656 46.710938 45.945312 46.984375 C 45.046875 47.257812 44.15625 47.574219 43.285156 47.929688 C 42.414062 48.285156 41.558594 48.683594 40.722656 49.121094 C 39.886719 49.554688 39.074219 50.03125 38.28125 50.542969 C 37.492188 51.054688 36.726562 51.601562 35.984375 52.1875 C 35.246094 52.769531 34.535156 53.386719 33.851562 54.039062 C 33.167969 54.6875 32.519531 55.367188 31.898438 56.078125 C 31.28125 56.789062 30.695312 57.527344 30.144531 58.292969 C 29.59375 59.058594 29.082031 59.847656 28.605469 60.660156 C 28.128906 61.476562 27.691406 62.308594 27.292969 63.164062 C 26.894531 64.015625 26.535156 64.886719 26.21875 65.777344 C 25.902344 66.664062 25.625 67.5625 25.390625 68.476562 C 25.160156 69.390625 24.96875 70.3125 24.820312 71.242188 L 59.726562 71.242188 C 60.035156 71.242188 60.34375 71.273438 60.648438 71.335938 C 60.953125 71.394531 61.246094 71.484375 61.535156 71.601562 C 61.820312 71.722656 62.09375 71.867188 62.351562 72.039062 C 62.609375 72.210938 62.847656 72.410156 63.066406 72.628906 C 63.285156 72.847656 63.480469 73.085938 63.65625 73.34375 C 63.828125 73.601562 63.972656 73.875 64.089844 74.160156 C 64.210938 74.449219 64.300781 74.742188 64.359375 75.046875 C 64.421875 75.351562 64.449219 75.660156 64.449219 75.96875 C 64.449219 76.28125 64.421875 76.585938 64.359375 76.890625 C 64.300781 77.195312 64.210938 77.492188 64.089844 77.777344 C 63.972656 78.0625 63.828125 78.335938 63.65625 78.59375 C 63.480469 78.851562 63.285156 79.089844 63.066406 79.308594 C 62.847656 79.53125 62.609375 79.726562 62.351562 79.898438 C 62.09375 80.070312 61.820312 80.214844 61.535156 80.335938 C 61.246094 80.453125 60.953125 80.542969 60.648438 80.605469 C 60.34375 80.664062 60.035156 80.695312 59.726562 80.695312 L 19.722656 80.695312 C 19.414062 80.695312 19.105469 80.664062 18.800781 80.605469 C 18.5 80.542969 18.203125 80.453125 17.917969 80.335938 C 17.628906 80.21875 17.355469 80.070312 17.097656 79.898438 C 16.839844 79.726562 16.601562 79.53125 16.382812 79.3125 C 16.164062 79.09375 15.96875 78.851562 15.796875 78.59375 C 15.625 78.335938 15.476562 78.066406 15.359375 77.777344 C 15.242188 77.492188 15.152344 77.195312 15.089844 76.890625 C 15.03125 76.585938 15 76.28125 15 75.96875 C 15 74.667969 15.0625 73.371094 15.191406 72.074219 C 15.320312 70.777344 15.511719 69.492188 15.765625 68.214844 C 16.019531 66.9375 16.332031 65.675781 16.710938 64.429688 C 17.089844 63.1875 17.527344 61.960938 18.027344 60.757812 C 18.523438 59.554688 19.078125 58.378906 19.695312 57.230469 C 20.308594 56.085938 20.976562 54.96875 21.699219 53.886719 C 22.421875 52.804688 23.195312 51.757812 24.023438 50.753906 C 24.847656 49.746094 25.722656 48.785156 26.640625 47.863281 C 27.5625 46.941406 28.527344 46.070312 29.53125 45.242188 C 30.539062 44.417969 31.582031 43.640625 32.667969 42.917969 C 33.75 42.195312 34.863281 41.527344 36.011719 40.914062 C 37.160156 40.300781 38.335938 39.746094 39.539062 39.246094 C 40.742188 38.746094 41.964844 38.308594 43.210938 37.933594 C 44.457031 37.554688 45.71875 37.238281 46.996094 36.984375 C 48.273438 36.730469 49.558594 36.539062 50.855469 36.410156 C 52.148438 36.285156 53.449219 36.21875 54.75 36.21875 C 56.050781 36.21875 57.351562 36.285156 58.644531 36.410156 C 59.941406 36.539062 61.226562 36.730469 62.503906 36.984375 C 63.78125 37.238281 65.042969 37.554688 66.289062 37.933594 C 67.535156 38.308594 68.757812 38.746094 69.960938 39.246094 C 71.164062 39.746094 72.339844 40.300781 73.488281 40.914062 C 74.636719 41.527344 75.75 42.195312 76.832031 42.917969 C 77.917969 43.640625 78.960938 44.417969 79.96875 45.242188 C 80.972656 46.070312 81.9375 46.941406 82.859375 47.863281 C 83.777344 48.785156 84.652344 49.746094 85.476562 50.753906 C 86.304688 51.757812 87.078125 52.804688 87.800781 53.886719 C 88.523438 54.96875 89.191406 56.085938 89.804688 57.230469 C 90.421875 58.378906 90.976562 59.554688 91.472656 60.757812 C 91.972656 61.960938 92.410156 63.1875 92.789062 64.429688 C 93.167969 65.675781 93.480469 66.9375 93.734375 68.214844 C 93.988281 69.492188 94.179688 70.777344 94.308594 72.074219 C 94.4375 73.371094 94.5 74.667969 94.5 75.96875 C 94.277344 82.59375 92.628906 88.839844 89.550781 94.707031 C 89.148438 95.496094 88.566406 96.125 87.808594 96.585938 C 87.054688 97.050781 86.230469 97.28125 85.34375 97.28125 Z M 64.285156 109.128906 C 64.285156 108.820312 64.257812 108.511719 64.195312 108.207031 C 64.136719 107.902344 64.046875 107.609375 63.925781 107.320312 C 63.808594 107.035156 63.664062 106.761719 63.492188 106.503906 C 63.316406 106.246094 63.121094 106.007812 62.902344 105.789062 C 62.683594 105.570312 62.445312 105.375 62.1875 105.203125 C 61.929688 105.027344 61.65625 104.882812 61.371094 104.765625 C 61.082031 104.644531 60.789062 104.558594 60.484375 104.496094 C 60.179688 104.4375 59.871094 104.40625 59.5625 104.40625 L 49.785156 104.40625 C 49.476562 104.40625 49.167969 104.4375 48.863281 104.496094 C 48.558594 104.558594 48.265625 104.648438 47.976562 104.765625 C 47.691406 104.882812 47.417969 105.03125 47.160156 105.203125 C 46.902344 105.375 46.664062 105.570312 46.445312 105.789062 C 46.226562 106.007812 46.027344 106.25 45.855469 106.507812 C 45.683594 106.765625 45.539062 107.035156 45.421875 107.324219 C 45.300781 107.609375 45.210938 107.90625 45.152344 108.210938 C 45.089844 108.515625 45.058594 108.820312 45.058594 109.132812 C 45.058594 109.441406 45.089844 109.75 45.152344 110.054688 C 45.210938 110.359375 45.300781 110.652344 45.421875 110.941406 C 45.539062 111.226562 45.683594 111.5 45.855469 111.757812 C 46.027344 112.015625 46.226562 112.253906 46.445312 112.472656 C 46.664062 112.691406 46.902344 112.886719 47.160156 113.058594 C 47.417969 113.234375 47.691406 113.378906 47.976562 113.496094 C 48.265625 113.617188 48.558594 113.707031 48.863281 113.765625 C 49.167969 113.828125 49.476562 113.855469 49.785156 113.855469 L 59.5625 113.855469 C 59.871094 113.855469 60.179688 113.828125 60.484375 113.765625 C 60.789062 113.707031 61.085938 113.617188 61.371094 113.496094 C 61.65625 113.378906 61.929688 113.234375 62.1875 113.058594 C 62.445312 112.886719 62.683594 112.691406 62.90625 112.472656 C 63.125 112.253906 63.320312 112.015625 63.492188 111.753906 C 63.664062 111.496094 63.808594 111.226562 63.929688 110.9375 C 64.046875 110.652344 64.136719 110.355469 64.195312 110.050781 C 64.257812 109.746094 64.285156 109.4375 64.285156 109.128906 Z M 64.285156 109.128906 " clip-rule="nonzero"/></clipPath><linearGradient x1="0.000000184591" gradientTransform="matrix(79.500007, 0, 0, 77.63671, 14.999988, 36.220216)" y1="0.5" x2="1" gradientUnits="userSpaceOnUse" y2="0.5" id="56eb4b67b9"><stop stop-opacity="1" stop-color="rgb(30.198669%, 30.198669%, 99.998474%)" offset="0"/><stop stop-opacity="1" stop-color="rgb(30.354309%, 30.107117%, 99.961853%)" offset="0.015625"/><stop stop-opacity="1" stop-color="rgb(30.667114%, 29.922485%, 99.888611%)" offset="0.03125"/><stop stop-opacity="1" stop-color="rgb(30.979919%, 29.737854%, 99.815369%)" offset="0.046875"/><stop stop-opacity="1" stop-color="rgb(31.292725%, 29.553223%, 99.742126%)" offset="0.0625"/><stop stop-opacity="1" stop-color="rgb(31.60553%, 29.368591%, 99.668884%)" offset="0.078125"/><stop stop-opacity="1" stop-color="rgb(31.916809%, 29.18396%, 99.595642%)" offset="0.09375"/><stop stop-opacity="1" stop-color="rgb(32.229614%, 29.000854%, 99.5224%)" offset="0.109375"/><stop stop-opacity="1" stop-color="rgb(32.542419%, 28.816223%, 99.447632%)" offset="0.125"/><stop stop-opacity="1" stop-color="rgb(32.855225%, 28.631592%, 99.37439%)" offset="0.140625"/><stop stop-opacity="1" stop-color="rgb(33.16803%, 28.44696%, 99.301147%)" offset="0.15625"/><stop stop-opacity="1" stop-color="rgb(33.479309%, 28.262329%, 99.227905%)" offset="0.171875"/><stop stop-opacity="1" stop-color="rgb(33.792114%, 28.077698%, 99.154663%)" offset="0.1875"/><stop stop-opacity="1" stop-color="rgb(34.104919%, 27.894592%, 99.081421%)" offset="0.203125"/><stop stop-opacity="1" stop-color="rgb(34.417725%, 27.709961%, 99.008179%)" offset="0.21875"/><stop stop-opacity="1" stop-color="rgb(34.73053%, 27.52533%, 98.934937%)" offset="0.234375"/><stop stop-opacity="1" stop-color="rgb(35.041809%, 27.340698%, 98.860168%)" offset="0.25"/><stop stop-opacity="1" stop-color="rgb(35.354614%, 27.156067%, 98.786926%)" offset="0.265625"/><stop stop-opacity="1" stop-color="rgb(35.667419%, 26.971436%, 98.713684%)" offset="0.28125"/><stop stop-opacity="1" stop-color="rgb(35.980225%, 26.78833%, 98.640442%)" offset="0.296875"/><stop stop-opacity="1" stop-color="rgb(36.29303%, 26.603699%, 98.5672%)" offset="0.3125"/><stop stop-opacity="1" stop-color="rgb(36.604309%, 26.419067%, 98.493958%)" offset="0.328125"/><stop stop-opacity="1" stop-color="rgb(36.917114%, 26.234436%, 98.420715%)" offset="0.34375"/><stop stop-opacity="1" stop-color="rgb(37.229919%, 26.049805%, 98.347473%)" offset="0.359375"/><stop stop-opacity="1" stop-color="rgb(37.542725%, 25.865173%, 98.272705%)" offset="0.375"/><stop stop-opacity="1" stop-color="rgb(37.85553%, 25.682068%, 98.199463%)" offset="0.390625"/><stop stop-opacity="1" stop-color="rgb(38.166809%, 25.497437%, 98.126221%)" offset="0.40625"/><stop stop-opacity="1" stop-color="rgb(38.479614%, 25.312805%, 98.052979%)" offset="0.421875"/><stop stop-opacity="1" stop-color="rgb(38.792419%, 25.128174%, 97.979736%)" offset="0.4375"/><stop stop-opacity="1" stop-color="rgb(39.105225%, 24.943542%, 97.906494%)" offset="0.453125"/><stop stop-opacity="1" stop-color="rgb(39.41803%, 24.758911%, 97.833252%)" offset="0.46875"/><stop stop-opacity="1" stop-color="rgb(39.729309%, 24.575806%, 97.76001%)" offset="0.484375"/><stop stop-opacity="1" stop-color="rgb(40.042114%, 24.391174%, 97.685242%)" offset="0.5"/><stop stop-opacity="1" stop-color="rgb(40.354919%, 24.206543%, 97.612%)" offset="0.515625"/><stop stop-opacity="1" stop-color="rgb(40.667725%, 24.021912%, 97.538757%)" offset="0.53125"/><stop stop-opacity="1" stop-color="rgb(40.98053%, 23.83728%, 97.465515%)" offset="0.546875"/><stop stop-opacity="1" stop-color="rgb(41.291809%, 23.652649%, 97.392273%)" offset="0.5625"/><stop stop-opacity="1" stop-color="rgb(41.604614%, 23.469543%, 97.319031%)" offset="0.578125"/><stop stop-opacity="1" stop-color="rgb(41.917419%, 23.284912%, 97.245789%)" offset="0.59375"/><stop stop-opacity="1" stop-color="rgb(42.230225%, 23.100281%, 97.172546%)" offset="0.609375"/><stop stop-opacity="1" stop-color="rgb(42.54303%, 22.915649%, 97.097778%)" offset="0.625"/><stop stop-opacity="1" stop-color="rgb(42.854309%, 22.731018%, 97.024536%)" offset="0.640625"/><stop stop-opacity="1" stop-color="rgb(43.167114%, 22.546387%, 96.951294%)" offset="0.65625"/><stop stop-opacity="1" stop-color="rgb(43.479919%, 22.363281%, 96.878052%)" offset="0.671875"/><stop stop-opacity="1" stop-color="rgb(43.792725%, 22.17865%, 96.80481%)" offset="0.6875"/><stop stop-opacity="1" stop-color="rgb(44.10553%, 21.994019%, 96.731567%)" offset="0.703125"/><stop stop-opacity="1" stop-color="rgb(44.416809%, 21.809387%, 96.658325%)" offset="0.71875"/><stop stop-opacity="1" stop-color="rgb(44.729614%, 21.624756%, 96.583557%)" offset="0.734375"/><stop stop-opacity="1" stop-color="rgb(45.042419%, 21.440125%, 96.510315%)" offset="0.75"/><stop stop-opacity="1" stop-color="rgb(45.355225%, 21.257019%, 96.437073%)" offset="0.765625"/><stop stop-opacity="1" stop-color="rgb(45.66803%, 21.072388%, 96.363831%)" offset="0.78125"/><stop stop-opacity="1" stop-color="rgb(45.979309%, 20.887756%, 96.290588%)" offset="0.796875"/><stop stop-opacity="1" stop-color="rgb(46.292114%, 20.703125%, 96.217346%)" offset="0.8125"/><stop stop-opacity="1" stop-color="rgb(46.604919%, 20.518494%, 96.144104%)" offset="0.828125"/><stop stop-opacity="1" stop-color="rgb(46.917725%, 20.333862%, 96.070862%)" offset="0.84375"/><stop stop-opacity="1" stop-color="rgb(47.23053%, 20.150757%, 95.996094%)" offset="0.859375"/><stop stop-opacity="1" stop-color="rgb(47.541809%, 19.966125%, 95.922852%)" offset="0.875"/><stop stop-opacity="1" stop-color="rgb(47.854614%, 19.781494%, 95.849609%)" offset="0.890625"/><stop stop-opacity="1" stop-color="rgb(48.167419%, 19.596863%, 95.776367%)" offset="0.90625"/><stop stop-opacity="1" stop-color="rgb(48.480225%, 19.412231%, 95.703125%)" offset="0.921875"/><stop stop-opacity="1" stop-color="rgb(48.79303%, 19.2276%, 95.629883%)" offset="0.9375"/><stop stop-opacity="1" stop-color="rgb(49.104309%, 19.044495%, 95.556641%)" offset="0.953125"/><stop stop-opacity="1" stop-color="rgb(49.417114%, 18.859863%, 95.483398%)" offset="0.96875"/><stop stop-opacity="1" stop-color="rgb(49.729919%, 18.675232%, 95.40863%)" offset="0.984375"/><stop stop-opacity="1" stop-color="rgb(50.042725%, 18.490601%, 95.335388%)" offset="1"/></linearGradient></defs><g clip-path="url(#65ff50b310)"><g clip-path="url(#7f461c56c1)"><path fill="url(#56eb4b67b9)" d="M 15 36.21875 L 15 113.855469 L 94.5 113.855469 L 94.5 36.21875 Z M 15 36.21875 " fill-rule="nonzero"/></g></g><g fill="#231e49" fill-opacity="1"><g transform="translate(112.162382, 94.759938)"><g><path d="M 7.359375 0 C 6.421875 0 5.640625 -0.316406 5.015625 -0.953125 C 4.398438 -1.585938 4.09375 -2.378906 4.09375 -3.328125 L 4.09375 -37.046875 C 4.09375 -37.992188 4.398438 -38.785156 5.015625 -39.421875 C 5.640625 -40.054688 6.421875 -40.375 7.359375 -40.375 C 8.304688 -40.375 9.085938 -40.054688 9.703125 -39.421875 C 10.328125 -38.785156 10.640625 -37.992188 10.640625 -37.046875 L 10.640625 -3.328125 C 10.640625 -2.378906 10.328125 -1.585938 9.703125 -0.953125 C 9.085938 -0.316406 8.304688 0 7.359375 0 Z M 24.71875 -29.1875 C 25.550781 -29.1875 26.273438 -28.84375 26.890625 -28.15625 C 27.515625 -27.46875 27.828125 -26.796875 27.828125 -26.140625 C 27.828125 -25.265625 27.390625 -24.445312 26.515625 -23.6875 L 10.09375 -8.5625 L 9.828125 -16.09375 L 22.3125 -28.15625 C 23.007812 -28.84375 23.8125 -29.1875 24.71875 -29.1875 Z M 25.53125 -0.046875 C 24.582031 -0.046875 23.785156 -0.410156 23.140625 -1.140625 L 13.046875 -11.84375 L 18 -16.421875 L 27.828125 -5.734375 C 28.515625 -5.003906 28.859375 -4.1875 28.859375 -3.28125 C 28.859375 -2.332031 28.484375 -1.554688 27.734375 -0.953125 C 26.992188 -0.347656 26.257812 -0.046875 25.53125 -0.046875 Z M 25.53125 -0.046875 "/></g></g></g><g fill="#231e49" fill-opacity="1"><g transform="translate(143.211967, 94.759938)"><g><path d="M 25.203125 -29.1875 C 26.148438 -29.1875 26.929688 -28.867188 27.546875 -28.234375 C 28.171875 -27.597656 28.484375 -26.804688 28.484375 -25.859375 L 28.484375 -12 C 28.484375 -8.144531 27.410156 -5.085938 25.265625 -2.828125 C 23.117188 -0.578125 20.023438 0.546875 15.984375 0.546875 C 11.953125 0.546875 8.867188 -0.578125 6.734375 -2.828125 C 4.609375 -5.085938 3.546875 -8.144531 3.546875 -12 L 3.546875 -25.859375 C 3.546875 -26.804688 3.851562 -27.597656 4.46875 -28.234375 C 5.09375 -28.867188 5.878906 -29.1875 6.828125 -29.1875 C 7.765625 -29.1875 8.539062 -28.867188 9.15625 -28.234375 C 9.78125 -27.597656 10.09375 -26.804688 10.09375 -25.859375 L 10.09375 -12 C 10.09375 -9.78125 10.582031 -8.132812 11.5625 -7.0625 C 12.550781 -5.988281 14.023438 -5.453125 15.984375 -5.453125 C 17.984375 -5.453125 19.472656 -5.988281 20.453125 -7.0625 C 21.441406 -8.132812 21.9375 -9.78125 21.9375 -12 L 21.9375 -25.859375 C 21.9375 -26.804688 22.242188 -27.597656 22.859375 -28.234375 C 23.484375 -28.867188 24.265625 -29.1875 25.203125 -29.1875 Z M 25.203125 -29.1875 "/></g></g></g><g fill="#231e49" fill-opacity="1"><g transform="translate(175.243788, 94.759938)"><g><path d="M 25.203125 -29.1875 C 26.148438 -29.1875 26.929688 -28.867188 27.546875 -28.234375 C 28.171875 -27.597656 28.484375 -26.804688 28.484375 -25.859375 L 28.484375 -12 C 28.484375 -8.144531 27.410156 -5.085938 25.265625 -2.828125 C 23.117188 -0.578125 20.023438 0.546875 15.984375 0.546875 C 11.953125 0.546875 8.867188 -0.578125 6.734375 -2.828125 C 4.609375 -5.085938 3.546875 -8.144531 3.546875 -12 L 3.546875 -25.859375 C 3.546875 -26.804688 3.851562 -27.597656 4.46875 -28.234375 C 5.09375 -28.867188 5.878906 -29.1875 6.828125 -29.1875 C 7.765625 -29.1875 8.539062 -28.867188 9.15625 -28.234375 C 9.78125 -27.597656 10.09375 -26.804688 10.09375 -25.859375 L 10.09375 -12 C 10.09375 -9.78125 10.582031 -8.132812 11.5625 -7.0625 C 12.550781 -5.988281 14.023438 -5.453125 15.984375 -5.453125 C 17.984375 -5.453125 19.472656 -5.988281 20.453125 -7.0625 C 21.441406 -8.132812 21.9375 -9.78125 21.9375 -12 L 21.9375 -25.859375 C 21.9375 -26.804688 22.242188 -27.597656 22.859375 -28.234375 C 23.484375 -28.867188 24.265625 -29.1875 25.203125 -29.1875 Z M 25.203125 -29.1875 "/></g></g></g><g fill="#231e49" fill-opacity="1"><g transform="translate(207.275609, 94.759938)"><g><path d="M 3.875 -28.640625 L 16.8125 -28.640625 C 17.675781 -28.640625 18.398438 -28.347656 18.984375 -27.765625 C 19.566406 -27.191406 19.859375 -26.46875 19.859375 -25.59375 C 19.859375 -24.75 19.566406 -24.046875 18.984375 -23.484375 C 18.398438 -22.921875 17.675781 -22.640625 16.8125 -22.640625 L 3.875 -22.640625 C 3 -22.640625 2.269531 -22.929688 1.6875 -23.515625 C 1.101562 -24.097656 0.8125 -24.828125 0.8125 -25.703125 C 0.8125 -26.535156 1.101562 -27.234375 1.6875 -27.796875 C 2.269531 -28.359375 3 -28.640625 3.875 -28.640625 Z M 9.71875 -35.46875 C 10.65625 -35.46875 11.425781 -35.148438 12.03125 -34.515625 C 12.632812 -33.878906 12.9375 -33.085938 12.9375 -32.140625 L 12.9375 -7.859375 C 12.9375 -7.347656 13.035156 -6.925781 13.234375 -6.59375 C 13.429688 -6.269531 13.703125 -6.035156 14.046875 -5.890625 C 14.390625 -5.742188 14.765625 -5.671875 15.171875 -5.671875 C 15.609375 -5.671875 16.007812 -5.753906 16.375 -5.921875 C 16.738281 -6.085938 17.15625 -6.171875 17.625 -6.171875 C 18.132812 -6.171875 18.597656 -5.929688 19.015625 -5.453125 C 19.429688 -4.984375 19.640625 -4.328125 19.640625 -3.484375 C 19.640625 -2.472656 19.082031 -1.640625 17.96875 -0.984375 C 16.863281 -0.328125 15.675781 0 14.40625 0 C 13.644531 0 12.796875 -0.0625 11.859375 -0.1875 C 10.929688 -0.3125 10.054688 -0.617188 9.234375 -1.109375 C 8.421875 -1.609375 7.742188 -2.363281 7.203125 -3.375 C 6.660156 -4.394531 6.390625 -5.796875 6.390625 -7.578125 L 6.390625 -32.140625 C 6.390625 -33.085938 6.707031 -33.878906 7.34375 -34.515625 C 7.976562 -35.148438 8.769531 -35.46875 9.71875 -35.46875 Z M 9.71875 -35.46875 "/></g></g></g><g fill="#231e49" fill-opacity="1"><g transform="translate(229.594205, 94.759938)"><g><path d="M 27.4375 -29.734375 C 28.382812 -29.734375 29.164062 -29.421875 29.78125 -28.796875 C 30.40625 -28.179688 30.71875 -27.382812 30.71875 -26.40625 L 30.71875 -3.328125 C 30.71875 -2.378906 30.40625 -1.585938 29.78125 -0.953125 C 29.164062 -0.316406 28.382812 0 27.4375 0 C 26.5 0 25.71875 -0.316406 25.09375 -0.953125 C 24.476562 -1.585938 24.171875 -2.378906 24.171875 -3.328125 L 24.171875 -6 L 25.375 -5.515625 C 25.375 -5.035156 25.117188 -4.457031 24.609375 -3.78125 C 24.097656 -3.113281 23.40625 -2.453125 22.53125 -1.796875 C 21.65625 -1.140625 20.625 -0.582031 19.4375 -0.125 C 18.257812 0.320312 16.984375 0.546875 15.609375 0.546875 C 13.097656 0.546875 10.820312 -0.0976562 8.78125 -1.390625 C 6.75 -2.679688 5.140625 -4.460938 3.953125 -6.734375 C 2.773438 -9.015625 2.1875 -11.625 2.1875 -14.5625 C 2.1875 -17.550781 2.773438 -20.179688 3.953125 -22.453125 C 5.140625 -24.722656 6.734375 -26.503906 8.734375 -27.796875 C 10.734375 -29.085938 12.953125 -29.734375 15.390625 -29.734375 C 16.953125 -29.734375 18.382812 -29.492188 19.6875 -29.015625 C 21 -28.546875 22.132812 -27.945312 23.09375 -27.21875 C 24.0625 -26.5 24.8125 -25.765625 25.34375 -25.015625 C 25.875 -24.265625 26.140625 -23.640625 26.140625 -23.140625 L 24.171875 -22.421875 L 24.171875 -26.40625 C 24.171875 -27.351562 24.476562 -28.144531 25.09375 -28.78125 C 25.71875 -29.414062 26.5 -29.734375 27.4375 -29.734375 Z M 16.421875 -5.453125 C 18.023438 -5.453125 19.425781 -5.851562 20.625 -6.65625 C 21.820312 -7.457031 22.753906 -8.546875 23.421875 -9.921875 C 24.097656 -11.304688 24.4375 -12.851562 24.4375 -14.5625 C 24.4375 -16.3125 24.097656 -17.875 23.421875 -19.25 C 22.753906 -20.632812 21.820312 -21.726562 20.625 -22.53125 C 19.425781 -23.332031 18.023438 -23.734375 16.421875 -23.734375 C 14.859375 -23.734375 13.472656 -23.332031 12.265625 -22.53125 C 11.066406 -21.726562 10.128906 -20.632812 9.453125 -19.25 C 8.785156 -17.875 8.453125 -16.3125 8.453125 -14.5625 C 8.453125 -12.851562 8.785156 -11.304688 9.453125 -9.921875 C 10.128906 -8.546875 11.066406 -7.457031 12.265625 -6.65625 C 13.472656 -5.851562 14.859375 -5.453125 16.421875 -5.453125 Z M 16.421875 -5.453125 "/></g></g></g><g fill="#231e49" fill-opacity="1"><g transform="translate(263.863342, 94.759938)"><g><path d="M 18.875 -29.734375 C 21.789062 -29.734375 23.9375 -29.03125 25.3125 -27.625 C 26.695312 -26.226562 27.609375 -24.421875 28.046875 -22.203125 L 27.125 -22.703125 L 27.546875 -23.578125 C 27.984375 -24.410156 28.65625 -25.304688 29.5625 -26.265625 C 30.476562 -27.234375 31.582031 -28.050781 32.875 -28.71875 C 34.164062 -29.394531 35.613281 -29.734375 37.21875 -29.734375 C 39.832031 -29.734375 41.820312 -29.171875 43.1875 -28.046875 C 44.550781 -26.921875 45.488281 -25.421875 46 -23.546875 C 46.507812 -21.671875 46.765625 -19.585938 46.765625 -17.296875 L 46.765625 -3.328125 C 46.765625 -2.378906 46.453125 -1.585938 45.828125 -0.953125 C 45.210938 -0.316406 44.429688 0 43.484375 0 C 42.535156 0 41.753906 -0.316406 41.140625 -0.953125 C 40.523438 -1.585938 40.21875 -2.378906 40.21875 -3.328125 L 40.21875 -17.296875 C 40.21875 -18.492188 40.070312 -19.570312 39.78125 -20.53125 C 39.488281 -21.5 38.957031 -22.273438 38.1875 -22.859375 C 37.425781 -23.441406 36.335938 -23.734375 34.921875 -23.734375 C 33.535156 -23.734375 32.351562 -23.441406 31.375 -22.859375 C 30.394531 -22.273438 29.65625 -21.5 29.15625 -20.53125 C 28.664062 -19.570312 28.421875 -18.492188 28.421875 -17.296875 L 28.421875 -3.328125 C 28.421875 -2.378906 28.113281 -1.585938 27.5 -0.953125 C 26.882812 -0.316406 26.101562 0 25.15625 0 C 24.207031 0 23.421875 -0.316406 22.796875 -0.953125 C 22.179688 -1.585938 21.875 -2.378906 21.875 -3.328125 L 21.875 -17.296875 C 21.875 -18.492188 21.726562 -19.570312 21.4375 -20.53125 C 21.144531 -21.5 20.617188 -22.273438 19.859375 -22.859375 C 19.097656 -23.441406 18.007812 -23.734375 16.59375 -23.734375 C 15.207031 -23.734375 14.019531 -23.441406 13.03125 -22.859375 C 12.050781 -22.273438 11.316406 -21.5 10.828125 -20.53125 C 10.335938 -19.570312 10.09375 -18.492188 10.09375 -17.296875 L 10.09375 -3.328125 C 10.09375 -2.378906 9.78125 -1.585938 9.15625 -0.953125 C 8.539062 -0.316406 7.765625 0 6.828125 0 C 5.878906 0 5.09375 -0.316406 4.46875 -0.953125 C 3.851562 -1.585938 3.546875 -2.378906 3.546875 -3.328125 L 3.546875 -25.859375 C 3.546875 -26.804688 3.851562 -27.597656 4.46875 -28.234375 C 5.09375 -28.867188 5.878906 -29.1875 6.828125 -29.1875 C 7.765625 -29.1875 8.539062 -28.867188 9.15625 -28.234375 C 9.78125 -27.597656 10.09375 -26.804688 10.09375 -25.859375 L 10.09375 -23.515625 L 9.28125 -23.6875 C 9.601562 -24.300781 10.054688 -24.960938 10.640625 -25.671875 C 11.222656 -26.378906 11.929688 -27.039062 12.765625 -27.65625 C 13.597656 -28.28125 14.523438 -28.78125 15.546875 -29.15625 C 16.566406 -29.539062 17.675781 -29.734375 18.875 -29.734375 Z M 18.875 -29.734375 "/></g></g></g><g fill="#231e49" fill-opacity="1"><g transform="translate(314.175663, 94.759938)"><g><path d="M 31.859375 -14.5625 C 31.859375 -11.582031 31.191406 -8.957031 29.859375 -6.6875 C 28.535156 -4.414062 26.753906 -2.640625 24.515625 -1.359375 C 22.285156 -0.0859375 19.789062 0.546875 17.03125 0.546875 C 14.257812 0.546875 11.753906 -0.0859375 9.515625 -1.359375 C 7.285156 -2.640625 5.503906 -4.414062 4.171875 -6.6875 C 2.847656 -8.957031 2.1875 -11.582031 2.1875 -14.5625 C 2.1875 -17.550781 2.847656 -20.179688 4.171875 -22.453125 C 5.503906 -24.722656 7.285156 -26.503906 9.515625 -27.796875 C 11.753906 -29.085938 14.257812 -29.734375 17.03125 -29.734375 C 19.789062 -29.734375 22.285156 -29.085938 24.515625 -27.796875 C 26.753906 -26.503906 28.535156 -24.722656 29.859375 -22.453125 C 31.191406 -20.179688 31.859375 -17.550781 31.859375 -14.5625 Z M 25.3125 -14.5625 C 25.3125 -16.414062 24.9375 -18.023438 24.1875 -19.390625 C 23.445312 -20.753906 22.445312 -21.816406 21.1875 -22.578125 C 19.9375 -23.347656 18.550781 -23.734375 17.03125 -23.734375 C 15.5 -23.734375 14.101562 -23.347656 12.84375 -22.578125 C 11.59375 -21.816406 10.59375 -20.753906 9.84375 -19.390625 C 9.101562 -18.023438 8.734375 -16.414062 8.734375 -14.5625 C 8.734375 -12.75 9.101562 -11.160156 9.84375 -9.796875 C 10.59375 -8.429688 11.59375 -7.363281 12.84375 -6.59375 C 14.101562 -5.832031 15.5 -5.453125 17.03125 -5.453125 C 18.550781 -5.453125 19.9375 -5.832031 21.1875 -6.59375 C 22.445312 -7.363281 23.445312 -8.429688 24.1875 -9.796875 C 24.9375 -11.160156 25.3125 -12.75 25.3125 -14.5625 Z M 25.3125 -14.5625 "/></g></g></g></svg>