<svg _ngcontent-bac-c1="" xmlns="http://www.w3.org/2000/svg" xmlns:xlink="http://www.w3.org/1999/xlink" width="35.456" height="34.625" viewBox="0 0 35.456 34.625"><defs _ngcontent-bac-c1=""><linearGradient _ngcontent-bac-c1="" id="linear-gradient" y1="0.5" x2="1" y2="0.5" gradientUnits="objectBoundingBox"><stop _ngcontent-bac-c1="" offset="0" stop-color="#4d4dff"></stop><stop _ngcontent-bac-c1="" offset="1" stop-color="#802ff3"></stop></linearGradient></defs><path _ngcontent-bac-c1="" id="Trazado_70185" data-name="Trazado 70185" d="M118.152,85.374H93.428a2.107,2.107,0,1,1,0-4.215h23.383a14.1,14.1,0,0,0,1.211-5.291,13.514,13.514,0,0,0-26.862-2.107h15.567a2.107,2.107,0,1,1,0,4.215H88.887a2.106,2.106,0,0,1-2.107-2.107,17.728,17.728,0,1,1,35.456,0,19.387,19.387,0,0,1-2.207,8.356,2.108,2.108,0,0,1-1.877,1.149Zm-9.391,5.284a2.106,2.106,0,0,0-2.107-2.107h-4.36a2.107,2.107,0,0,0,0,4.215h4.36A2.106,2.106,0,0,0,108.761,90.657Z" transform="translate(-86.78 -58.14)" fill="url(#linear-gradient)"></path></svg>
