<?xml version="1.0" encoding="iso-8859-1"?>
<!-- Uploaded to: SVG Repo, www.svgrepo.com, Generator: SVG Repo Mixer Tools -->
<svg height="800px" width="800px" version="1.1" id="Layer_1" xmlns="http://www.w3.org/2000/svg" xmlns:xlink="http://www.w3.org/1999/xlink" 
	 viewBox="0 0 512 512" xml:space="preserve">
<path style="fill:#AF2E08;" d="M232.729,154.547v179.657c7.596-1.179,15.366-1.797,23.276-1.797c0,0,0,0,0.002,0
	c7.906,0,15.673,0.616,23.268,1.795V154.547c-7.415-2.119-15.216-3.274-23.271-3.274
	C247.945,151.273,240.144,152.429,232.729,154.547z"/>
<path style="fill:#FFB655;" d="M279.274,334.202c-7.595-1.139-15.36-1.735-23.268-1.735c-0.002,0-0.002,0-0.002,0
	c-7.91,0-15.678,0.597-23.276,1.736c-75.163,11.273-132.987,76.269-132.987,154.522c0,12.853,10.42,23.274,23.273,23.274h132.99
	h132.989c12.854,0,23.273-10.421,23.273-23.274C412.266,410.471,354.44,345.472,279.274,334.202z"/>
<path style="fill:#91CC04;" d="M115.731,150.55c21.077-21.077,50.314-29.122,77.634-24.169
	c-42.465,22.529-71.459,67.207-71.459,118.535c0,12.853,10.42,23.273,23.273,23.273c12.853,0,23.273-10.42,23.273-23.273
	c0-40.217,27.265-74.164,64.277-84.385c7.415-2.048,15.216-3.165,23.273-3.165c8.057,0,15.856,1.117,23.271,3.165
	c37.011,10.221,64.279,44.168,64.279,84.385c0,12.853,10.418,23.273,23.273,23.273c12.851,0,23.273-10.42,23.273-23.273
	c0-51.328-28.995-96.006-71.461-118.535c27.32-4.951,56.557,3.092,77.636,24.169c4.543,4.546,10.499,6.816,16.454,6.816
	c5.955,0,11.912-2.273,16.457-6.814c9.089-9.089,9.089-23.823,0-32.914c-36.299-36.299-88.4-47.371-134.367-33.263
	c15.819-22.835,42.189-37.83,72.008-37.83c12.851,0,23.273-10.42,23.273-23.273S379.675,0,366.824,0
	c-45.999,0-86.659,23.285-110.823,58.683C231.838,23.285,191.178,0,145.179,0c-12.853,0-23.273,10.42-23.273,23.273
	s10.42,23.273,23.273,23.273c29.82,0,56.189,14.995,72.005,37.83c-45.966-14.108-98.068-3.036-134.367,33.263
	c-9.089,9.089-9.089,23.825,0,32.914C91.907,159.641,106.644,159.641,115.731,150.55z"/>
<path style="fill:#EE8700;" d="M232.729,334.204c-75.163,11.273-132.987,76.269-132.987,154.522
	c0,12.853,10.42,23.274,23.273,23.274h132.99V332.467C248.095,332.467,240.327,333.065,232.729,334.204z"/>
<path style="fill:#E69629;" d="M256.005,332.467c-7.91,0-15.678,0.597-23.276,1.736
	C240.327,333.065,248.095,332.467,256.005,332.467L256.005,332.467z"/>
<polygon style="fill:#E9A440;" points="256.006,332.467 256.005,332.467 256.005,332.467 "/>
<path style="fill:#79AB03;" d="M145.179,0c-12.853,0-23.273,10.42-23.273,23.273s10.42,23.273,23.273,23.273
	c29.82,0,56.189,14.995,72.005,37.83c-45.966-14.108-98.068-3.036-134.367,33.264c-9.089,9.089-9.089,23.823,0,32.914
	c9.087,9.087,23.823,9.087,32.912-0.002c21.077-21.077,50.314-29.122,77.634-24.169c-42.465,22.529-71.459,67.207-71.459,118.535
	c0,12.853,10.42,23.273,23.273,23.273c12.853,0,23.273-10.42,23.273-23.273c0-40.217,27.265-74.164,64.277-84.385
	c7.415-2.048,15.214-3.165,23.273-3.165V58.683C231.837,23.285,191.178,0,145.179,0z"/>
</svg>