<svg id="svg" version="1.1" xmlns="http://www.w3.org/2000/svg" xmlns:xlink="http://www.w3.org/1999/xlink" width="182" height="88" viewBox="100, 0, 200, 135">
<g id="svgg">

<path id="path0" d="M194.250 20.098 C 189.445 20.233,182.558 20.538,180.833 20.692 C 179.779 20.785,178.204 20.925,177.333 21.001 C 174.772 21.227,172.510 21.496,171.083 21.747 C 170.350 21.876,169.112 22.029,168.333 22.088 C 166.700 22.212,162.181 22.907,160.833 23.242 C 160.329 23.367,158.983 23.599,157.842 23.757 C 156.701 23.915,155.538 24.138,155.259 24.252 C 154.979 24.366,154.375 24.510,153.917 24.573 C 153.458 24.635,152.558 24.827,151.917 25.000 C 151.275 25.172,150.300 25.364,149.750 25.426 C 149.200 25.489,148.511 25.638,148.220 25.757 C 147.928 25.876,147.066 26.100,146.303 26.255 C 145.541 26.410,144.775 26.611,144.603 26.703 C 144.430 26.794,143.755 26.969,143.103 27.092 C 142.450 27.215,141.542 27.438,141.083 27.588 C 138.290 28.504,137.166 28.834,136.500 28.930 C 136.087 28.990,135.572 29.150,135.355 29.286 C 135.024 29.494,131.485 30.723,127.417 32.043 C 125.841 32.554,125.833 32.572,125.833 35.840 C 125.833 39.611,125.873 39.649,128.624 38.500 C 129.501 38.133,130.285 37.833,130.365 37.833 C 130.445 37.833,130.790 37.710,131.130 37.560 C 132.044 37.157,133.662 36.572,135.917 35.831 C 137.017 35.469,138.142 35.090,138.417 34.990 C 139.848 34.466,142.032 33.785,142.917 33.587 C 144.788 33.167,146.914 32.635,147.750 32.377 C 148.208 32.236,149.221 31.983,150.000 31.816 C 150.779 31.649,152.242 31.316,153.250 31.077 C 156.802 30.234,157.087 30.174,157.500 30.171 C 158.070 30.168,160.731 29.697,161.750 29.418 C 162.766 29.141,165.335 28.722,166.917 28.576 C 167.558 28.517,168.983 28.329,170.083 28.159 C 171.183 27.989,172.796 27.798,173.667 27.735 C 174.537 27.672,175.535 27.520,175.884 27.398 C 176.292 27.254,178.513 27.084,182.134 26.920 C 185.223 26.779,188.363 26.587,189.112 26.494 C 190.527 26.318,208.768 26.235,209.504 26.401 C 209.731 26.453,212.204 26.612,215.000 26.756 C 217.796 26.899,220.683 27.082,221.417 27.161 C 222.150 27.241,224.213 27.458,226.000 27.644 C 227.787 27.830,229.512 28.057,229.833 28.149 C 230.154 28.242,231.354 28.399,232.500 28.499 C 233.646 28.599,235.183 28.826,235.917 29.003 C 236.650 29.180,238.487 29.519,240.000 29.756 C 244.685 30.489,245.079 30.568,249.500 31.652 C 251.070 32.037,251.531 32.157,253.833 32.777 C 254.704 33.012,256.017 33.336,256.750 33.499 C 257.483 33.661,258.550 33.953,259.120 34.147 C 259.690 34.341,260.293 34.500,260.460 34.500 C 260.626 34.500,261.049 34.646,261.398 34.824 C 261.747 35.002,262.269 35.195,262.558 35.252 C 262.847 35.310,263.871 35.648,264.833 36.004 C 265.796 36.359,267.290 36.881,268.155 37.163 C 269.019 37.445,269.957 37.817,270.238 37.989 C 270.520 38.161,271.125 38.413,271.583 38.549 C 272.042 38.685,273.249 39.179,274.267 39.648 C 275.284 40.117,276.194 40.500,276.288 40.500 C 276.382 40.500,276.549 40.608,276.658 40.739 C 276.767 40.871,277.067 41.025,277.324 41.081 C 277.582 41.138,278.041 41.368,278.345 41.592 C 278.649 41.816,279.016 42.000,279.160 42.000 C 279.304 42.000,279.683 42.151,280.003 42.335 C 280.322 42.519,281.258 43.007,282.083 43.419 C 282.908 43.830,283.696 44.239,283.833 44.326 C 284.370 44.668,287.888 46.764,288.321 47.000 C 288.573 47.137,288.998 47.422,289.265 47.633 C 290.083 48.279,291.778 49.556,292.517 50.083 C 294.941 51.812,297.970 54.670,300.046 57.188 C 300.301 57.497,301.011 58.335,301.624 59.049 C 302.236 59.764,302.939 60.701,303.185 61.132 C 304.308 63.101,305.521 65.606,305.693 66.310 C 305.797 66.735,305.936 67.158,306.003 67.250 C 306.961 68.567,307.615 75.631,307.014 78.167 C 306.894 78.671,306.660 79.758,306.494 80.583 C 306.209 81.992,305.564 84.075,305.196 84.773 C 305.106 84.943,304.563 86.050,303.988 87.232 C 303.414 88.414,302.709 89.689,302.423 90.066 C 302.136 90.442,301.417 91.386,300.826 92.162 C 299.747 93.578,295.406 98.000,295.095 98.000 C 295.004 98.000,294.776 98.189,294.590 98.420 C 294.403 98.652,293.837 99.134,293.333 99.493 C 291.100 101.081,288.494 102.811,287.258 103.528 C 284.120 105.347,282.624 106.155,282.039 106.347 C 281.697 106.459,280.742 106.868,279.917 107.256 C 279.092 107.643,277.779 108.242,277.000 108.586 C 276.221 108.930,275.493 109.283,275.383 109.370 C 275.272 109.457,274.860 109.631,274.466 109.756 C 274.072 109.881,273.037 110.253,272.167 110.583 C 269.217 111.698,265.635 112.912,264.292 113.251 C 263.810 113.373,262.442 113.768,261.250 114.128 C 260.058 114.489,258.783 114.837,258.417 114.902 C 258.050 114.966,257.262 115.164,256.667 115.342 C 255.192 115.780,252.415 116.446,251.500 116.580 C 251.088 116.641,250.338 116.824,249.833 116.988 C 249.329 117.151,247.829 117.489,246.500 117.738 C 245.171 117.988,243.258 118.370,242.250 118.587 C 241.242 118.803,239.597 119.065,238.595 119.167 C 237.593 119.270,236.655 119.414,236.512 119.487 C 236.368 119.560,235.313 119.710,234.167 119.820 C 233.021 119.930,231.329 120.164,230.407 120.340 C 229.485 120.517,227.828 120.739,226.723 120.835 C 225.618 120.931,224.465 121.081,224.160 121.168 C 223.676 121.308,222.670 121.392,217.500 121.728 C 216.904 121.766,215.254 121.933,213.833 122.098 C 210.598 122.473,191.120 122.561,187.833 122.215 C 183.526 121.762,182.440 121.670,179.271 121.494 C 177.449 121.392,175.798 121.248,175.602 121.174 C 175.406 121.099,174.271 120.949,173.081 120.839 C 171.891 120.730,170.204 120.501,169.333 120.330 C 168.462 120.160,166.850 119.938,165.750 119.837 C 164.650 119.736,163.334 119.545,162.825 119.414 C 162.316 119.282,161.153 119.064,160.241 118.929 C 158.120 118.614,153.830 117.851,153.687 117.763 C 153.506 117.651,149.849 116.835,148.333 116.568 C 147.554 116.431,146.656 116.236,146.338 116.134 C 146.019 116.033,145.194 115.817,144.504 115.655 C 143.034 115.310,140.173 114.537,138.167 113.942 C 137.387 113.711,136.112 113.338,135.333 113.114 C 133.200 112.498,131.922 112.086,130.083 111.421 C 129.167 111.090,128.087 110.710,127.685 110.577 C 127.282 110.444,126.870 110.269,126.768 110.189 C 126.667 110.109,126.286 109.948,125.923 109.831 C 125.560 109.713,124.912 109.441,124.482 109.225 C 124.053 109.010,123.615 108.833,123.509 108.833 C 123.403 108.833,123.039 108.688,122.700 108.511 C 122.361 108.334,121.408 107.906,120.583 107.560 C 119.758 107.215,118.521 106.634,117.833 106.271 C 117.146 105.907,115.833 105.225,114.917 104.754 C 114.000 104.284,112.912 103.682,112.500 103.417 C 109.997 101.811,107.491 100.121,107.405 99.982 C 107.350 99.893,107.013 99.635,106.655 99.409 C 105.910 98.939,105.485 98.572,103.667 96.833 C 102.949 96.146,101.961 95.204,101.472 94.741 C 99.760 93.119,96.714 88.828,95.505 86.333 C 95.216 85.737,94.896 85.100,94.794 84.917 C 94.691 84.733,94.478 84.058,94.318 83.417 C 94.159 82.775,93.754 81.200,93.418 79.917 C 92.584 76.728,92.510 73.139,93.222 70.333 C 93.466 69.371,93.667 68.471,93.668 68.333 C 93.668 68.196,93.784 67.863,93.924 67.594 C 94.064 67.325,94.255 66.765,94.348 66.351 C 94.441 65.936,94.585 65.516,94.667 65.416 C 94.750 65.317,95.292 64.301,95.873 63.159 C 96.453 62.018,97.266 60.633,97.679 60.083 C 98.092 59.533,98.721 58.652,99.076 58.125 C 99.431 57.598,99.779 57.167,99.848 57.167 C 100.420 57.167,100.628 47.811,100.066 47.388 C 99.643 47.071,98.977 47.419,97.556 48.697 C 96.838 49.343,95.950 50.135,95.583 50.456 C 94.620 51.299,91.333 54.497,91.333 54.590 C 91.333 54.634,90.881 55.213,90.328 55.877 C 89.776 56.540,89.007 57.470,88.620 57.943 C 87.649 59.129,86.042 61.660,85.409 63.000 C 85.257 63.321,85.037 63.696,84.920 63.833 C 84.802 63.971,84.654 64.271,84.589 64.500 C 84.525 64.729,84.298 65.292,84.084 65.750 C 83.213 67.618,83.027 68.119,82.923 68.875 C 82.862 69.311,82.635 70.176,82.418 70.797 C 80.186 77.186,82.380 89.060,86.890 94.996 C 87.271 95.498,87.733 96.150,87.917 96.445 C 89.206 98.521,94.273 104.140,96.083 105.502 C 96.542 105.846,97.269 106.469,97.699 106.885 C 98.129 107.302,99.011 107.989,99.660 108.412 C 100.309 108.836,101.082 109.388,101.378 109.640 C 101.674 109.892,102.133 110.245,102.398 110.424 C 102.663 110.603,103.085 110.900,103.334 111.083 C 104.308 111.798,105.792 112.749,106.667 113.219 C 107.171 113.489,107.830 113.926,108.131 114.189 C 108.432 114.452,108.771 114.667,108.884 114.667 C 108.997 114.667,109.350 114.842,109.670 115.057 C 109.989 115.272,110.813 115.748,111.500 116.115 C 112.188 116.482,113.163 117.016,113.668 117.301 C 114.173 117.586,114.896 117.929,115.274 118.062 C 115.652 118.196,116.271 118.500,116.649 118.739 C 117.027 118.977,117.704 119.318,118.154 119.495 C 118.603 119.672,119.668 120.158,120.520 120.575 C 121.371 120.992,122.187 121.333,122.332 121.333 C 122.477 121.333,122.890 121.483,123.250 121.667 C 123.610 121.850,123.982 122.000,124.077 122.001 C 124.172 122.001,124.700 122.226,125.250 122.500 C 125.800 122.774,126.365 122.999,126.506 122.999 C 126.647 123.000,127.060 123.152,127.423 123.338 C 127.786 123.524,128.421 123.783,128.833 123.913 C 129.246 124.044,130.783 124.575,132.250 125.094 C 133.717 125.613,135.217 126.113,135.583 126.205 C 135.950 126.298,137.307 126.703,138.600 127.107 C 139.892 127.510,141.430 127.942,142.016 128.066 C 142.603 128.191,143.627 128.452,144.292 128.646 C 147.045 129.452,147.810 129.646,149.000 129.838 C 149.688 129.949,150.373 130.104,150.524 130.183 C 150.899 130.379,154.400 131.130,156.333 131.428 C 157.968 131.681,159.201 131.898,162.917 132.588 C 164.108 132.809,165.983 133.068,167.083 133.163 C 168.183 133.259,169.646 133.448,170.333 133.584 C 171.021 133.720,172.521 133.907,173.667 134.000 C 174.813 134.093,176.425 134.279,177.250 134.413 C 178.075 134.548,181.600 134.772,185.083 134.913 C 188.567 135.053,192.198 135.243,193.154 135.334 C 195.670 135.574,203.062 135.538,208.613 135.257 C 211.255 135.124,215.142 134.933,217.250 134.833 C 219.358 134.733,221.533 134.582,222.083 134.497 C 223.720 134.244,227.640 133.834,228.474 133.827 C 228.901 133.824,229.438 133.714,229.667 133.583 C 229.896 133.452,230.470 133.342,230.942 133.339 C 232.113 133.331,236.073 132.861,236.574 132.670 C 236.798 132.585,237.818 132.399,238.842 132.256 C 239.866 132.113,240.761 131.961,240.831 131.918 C 240.901 131.875,241.848 131.694,242.937 131.516 C 245.707 131.064,248.227 130.551,249.500 130.181 C 250.096 130.008,251.146 129.753,251.833 129.614 C 253.724 129.233,255.306 128.849,256.417 128.502 C 256.967 128.331,257.829 128.108,258.333 128.007 C 258.837 127.907,259.625 127.680,260.083 127.503 C 260.542 127.326,261.667 126.985,262.583 126.745 C 263.500 126.505,264.827 126.089,265.533 125.821 C 266.239 125.553,266.918 125.333,267.042 125.333 C 267.165 125.333,267.339 125.261,267.426 125.174 C 267.514 125.086,268.073 124.890,268.668 124.739 C 269.263 124.588,269.938 124.362,270.167 124.237 C 270.396 124.113,271.408 123.733,272.417 123.393 C 273.425 123.053,274.580 122.601,274.983 122.388 C 275.386 122.174,275.851 122.000,276.015 122.000 C 276.179 122.000,276.359 121.926,276.415 121.836 C 276.471 121.745,276.907 121.557,277.383 121.418 C 277.860 121.279,278.760 120.904,279.383 120.584 C 280.007 120.264,281.282 119.689,282.217 119.306 C 283.152 118.923,284.008 118.540,284.120 118.455 C 284.233 118.370,284.870 118.018,285.537 117.674 C 288.554 116.117,289.964 115.350,290.565 114.941 C 290.921 114.699,291.279 114.500,291.360 114.500 C 291.511 114.500,291.733 114.366,294.167 112.808 C 294.946 112.309,295.921 111.694,296.333 111.441 C 296.746 111.189,297.646 110.535,298.333 109.988 C 299.021 109.442,300.033 108.686,300.583 108.308 C 301.133 107.931,301.722 107.444,301.891 107.226 C 302.060 107.007,302.744 106.417,303.411 105.915 C 304.892 104.801,310.063 99.488,310.742 98.383 C 311.012 97.943,311.577 97.171,311.998 96.667 C 313.428 94.950,315.516 91.156,316.436 88.598 C 316.566 88.239,316.748 87.853,316.842 87.739 C 316.936 87.626,317.088 87.066,317.180 86.494 C 317.272 85.923,317.449 85.259,317.574 85.019 C 317.698 84.778,317.918 83.794,318.063 82.832 C 318.208 81.870,318.403 80.821,318.496 80.501 C 318.790 79.497,318.698 75.923,318.333 74.167 C 318.152 73.296,318.003 72.415,318.002 72.209 C 318.001 72.003,317.855 71.403,317.678 70.876 C 317.501 70.348,317.268 69.467,317.160 68.917 C 317.052 68.367,316.864 67.729,316.743 67.500 C 316.622 67.271,316.091 66.108,315.563 64.917 C 315.036 63.725,314.477 62.563,314.321 62.333 C 314.165 62.104,313.921 61.635,313.778 61.292 C 313.634 60.948,313.457 60.666,313.384 60.665 C 313.310 60.665,312.987 60.248,312.667 59.740 C 310.805 56.792,305.082 50.508,303.083 49.217 C 302.717 48.980,302.107 48.516,301.728 48.185 C 300.746 47.328,300.079 46.797,298.750 45.816 C 298.108 45.342,297.351 44.759,297.066 44.519 C 296.782 44.279,296.332 43.957,296.066 43.802 C 295.801 43.647,294.683 42.951,293.583 42.256 C 292.483 41.560,291.268 40.841,290.882 40.658 C 290.496 40.474,290.135 40.251,290.080 40.162 C 290.025 40.073,289.837 40.000,289.663 40.000 C 289.488 40.000,289.089 39.775,288.775 39.500 C 288.462 39.225,288.141 39.000,288.061 38.999 C 287.982 38.998,287.692 38.876,287.417 38.728 C 285.935 37.926,284.727 37.339,284.554 37.336 C 284.447 37.335,284.142 37.151,283.878 36.929 C 283.406 36.531,281.628 35.667,281.283 35.667 C 281.187 35.667,280.540 35.396,279.846 35.065 C 279.151 34.733,278.358 34.361,278.083 34.237 C 277.047 33.771,273.721 32.457,273.000 32.230 C 272.587 32.100,271.612 31.734,270.833 31.416 C 270.054 31.098,268.892 30.694,268.250 30.518 C 266.785 30.117,265.585 29.717,264.833 29.381 C 264.512 29.237,263.612 28.953,262.833 28.749 C 262.054 28.545,260.779 28.177,260.000 27.931 C 258.061 27.319,255.762 26.711,253.627 26.245 C 252.642 26.031,251.767 25.812,251.682 25.760 C 251.597 25.707,250.875 25.550,250.078 25.411 C 249.281 25.272,248.486 25.082,248.311 24.988 C 247.749 24.687,243.637 23.859,241.759 23.668 C 240.758 23.566,239.889 23.451,239.826 23.412 C 239.763 23.373,238.745 23.189,237.564 23.002 C 236.383 22.816,234.967 22.557,234.417 22.427 C 233.867 22.297,232.704 22.141,231.833 22.079 C 230.963 22.018,229.741 21.863,229.118 21.735 C 228.495 21.606,227.070 21.423,225.951 21.326 C 224.832 21.230,222.379 21.006,220.500 20.829 C 214.983 20.309,200.788 19.914,194.250 20.098 M112.917 38.522 C 110.937 39.390,110.082 40.794,110.942 41.763 C 111.265 42.127,112.333 42.042,112.333 41.653 C 112.333 41.560,112.591 41.375,112.906 41.244 C 113.435 41.023,114.198 40.566,115.125 39.915 C 115.883 39.382,115.373 38.012,114.417 38.011 C 114.233 38.010,113.558 38.240,112.917 38.522 M186.250 41.413 C 186.158 41.442,185.408 41.667,184.583 41.912 C 183.758 42.157,182.739 42.464,182.319 42.593 C 181.898 42.722,180.811 42.945,179.902 43.088 C 178.993 43.232,177.650 43.477,176.917 43.633 C 175.817 43.867,174.589 43.919,169.917 43.928 C 163.471 43.941,163.680 43.914,161.333 45.033 C 160.371 45.492,159.207 46.048,158.748 46.267 C 158.288 46.487,157.815 46.667,157.698 46.667 C 157.580 46.667,157.269 46.778,157.007 46.913 C 156.744 47.049,155.904 47.271,155.140 47.408 C 154.375 47.544,153.224 47.768,152.582 47.905 C 151.820 48.068,150.168 48.174,147.832 48.212 C 144.309 48.269,144.237 48.278,143.434 48.718 C 142.984 48.965,142.525 49.167,142.412 49.167 C 142.300 49.167,142.114 49.279,142.001 49.416 C 141.887 49.553,141.221 49.978,140.522 50.360 C 139.822 50.742,139.063 51.180,138.833 51.335 C 138.604 51.489,137.854 51.821,137.167 52.072 C 136.479 52.323,135.579 52.703,135.167 52.916 C 134.754 53.129,134.117 53.356,133.750 53.421 C 133.383 53.485,132.746 53.640,132.333 53.766 C 131.921 53.891,130.387 54.070,128.925 54.163 C 127.464 54.256,126.189 54.411,126.092 54.508 C 125.979 54.620,125.887 56.776,125.833 60.550 C 125.741 67.080,125.770 66.910,124.523 68.222 C 123.489 69.311,121.934 69.925,120.592 69.775 C 118.944 69.590,117.920 69.337,117.470 69.004 C 116.846 68.542,115.489 68.942,114.279 69.943 C 114.020 70.158,113.731 70.333,113.638 70.333 C 113.545 70.333,112.965 70.671,112.351 71.083 C 111.736 71.496,111.151 71.833,111.051 71.833 C 110.747 71.833,110.667 72.287,110.667 73.990 C 110.667 75.821,110.217 76.992,109.119 78.014 C 105.971 80.948,100.503 78.638,100.499 74.373 C 100.497 72.283,100.222 71.966,98.963 72.606 C 97.789 73.204,97.964 76.486,99.326 79.417 C 99.497 79.783,99.803 80.496,100.007 81.000 C 100.653 82.595,101.402 84.061,101.838 84.581 C 102.070 84.857,102.535 85.507,102.871 86.026 C 103.583 87.123,105.610 89.484,106.676 90.459 C 108.417 92.049,110.637 93.896,111.785 94.709 C 112.464 95.190,113.484 95.939,114.051 96.374 C 114.619 96.808,115.458 97.344,115.917 97.563 C 116.375 97.783,117.131 98.219,117.596 98.534 C 118.061 98.848,118.990 99.384,119.662 99.725 C 120.333 100.065,121.102 100.529,121.370 100.756 C 121.639 100.982,121.933 101.167,122.023 101.167 C 122.224 101.167,123.926 101.926,124.500 102.272 C 124.729 102.410,125.217 102.646,125.583 102.796 C 125.950 102.946,126.797 103.348,127.465 103.689 C 128.133 104.030,128.920 104.363,129.215 104.427 C 129.509 104.492,130.011 104.684,130.331 104.856 C 130.650 105.027,131.019 105.167,131.150 105.167 C 131.280 105.167,131.694 105.345,132.069 105.563 C 132.443 105.781,133.147 106.043,133.631 106.146 C 134.116 106.248,134.722 106.488,134.979 106.678 C 135.236 106.868,135.702 107.092,136.015 107.176 C 136.328 107.260,137.258 107.508,138.083 107.727 C 138.908 107.946,139.771 108.202,140.000 108.296 C 141.013 108.712,144.761 109.764,147.000 110.260 C 147.596 110.392,148.346 110.609,148.667 110.742 C 148.987 110.874,149.587 111.029,150.000 111.085 C 150.412 111.142,151.275 111.333,151.917 111.509 C 153.693 111.999,157.421 112.787,158.934 112.992 C 159.676 113.093,160.526 113.245,160.821 113.330 C 161.116 113.415,162.189 113.606,163.204 113.755 C 164.219 113.905,165.233 114.097,165.456 114.182 C 165.680 114.267,167.059 114.446,168.522 114.580 C 169.984 114.714,171.459 114.895,171.799 114.981 C 172.139 115.067,172.942 115.184,173.583 115.241 C 174.225 115.297,175.237 115.415,175.833 115.502 C 182.154 116.425,196.340 116.859,208.250 116.492 C 217.496 116.208,220.590 115.977,227.417 115.064 C 228.517 114.917,230.204 114.730,231.167 114.648 C 232.129 114.566,233.404 114.384,234.000 114.244 C 235.013 114.005,236.268 113.790,241.250 113.001 C 243.689 112.615,247.100 111.897,247.667 111.650 C 247.896 111.550,248.758 111.328,249.583 111.157 C 250.408 110.985,251.796 110.645,252.667 110.401 C 253.537 110.157,254.700 109.847,255.250 109.712 C 256.515 109.403,259.400 108.539,260.167 108.240 C 260.487 108.115,261.087 107.931,261.500 107.831 C 262.304 107.636,264.097 107.006,266.250 106.160 C 266.983 105.872,267.958 105.525,268.417 105.389 C 268.875 105.252,269.550 105.000,269.917 104.828 C 270.283 104.655,271.933 103.916,273.583 103.184 C 276.829 101.744,279.718 100.290,280.250 99.828 C 280.433 99.669,280.760 99.485,280.976 99.419 C 281.191 99.354,281.619 99.139,281.927 98.942 C 282.235 98.745,282.846 98.365,283.285 98.098 C 284.131 97.585,286.437 96.031,287.390 95.333 C 287.702 95.104,288.467 94.555,289.088 94.113 C 291.342 92.508,296.158 87.837,296.917 86.519 C 297.008 86.359,297.279 85.971,297.518 85.656 C 297.756 85.341,298.131 84.748,298.351 84.339 C 298.570 83.930,298.994 83.218,299.293 82.757 C 299.592 82.296,299.958 81.581,300.107 81.168 C 300.257 80.755,300.516 80.116,300.684 79.749 C 301.524 77.917,302.209 73.722,301.848 72.627 C 301.696 72.166,301.523 72.019,300.873 71.798 C 298.982 71.156,298.344 70.872,297.842 70.450 C 297.548 70.202,297.257 69.999,297.196 69.997 C 297.014 69.992,294.310 67.331,293.471 66.333 C 290.769 63.118,290.564 62.910,289.664 62.466 C 289.161 62.218,288.225 61.895,287.583 61.748 C 286.942 61.600,286.251 61.372,286.048 61.240 C 285.845 61.108,285.596 61.000,285.496 61.000 C 285.339 61.000,283.774 60.259,282.083 59.384 C 281.504 59.083,280.400 58.345,278.750 57.154 C 278.108 56.691,277.340 56.160,277.042 55.973 C 276.744 55.786,276.500 55.564,276.500 55.479 C 276.500 55.395,276.303 55.250,276.062 55.158 C 275.820 55.067,275.408 54.839,275.145 54.651 C 274.741 54.364,274.260 54.287,272.042 54.155 C 270.026 54.036,269.088 53.900,268.000 53.569 C 265.747 52.885,263.605 52.130,263.333 51.925 C 263.196 51.822,262.821 51.605,262.500 51.444 C 261.823 51.104,260.925 50.591,259.750 49.871 C 259.292 49.591,258.392 49.100,257.750 48.780 L 256.583 48.199 252.667 48.112 C 250.512 48.065,248.487 47.944,248.167 47.845 C 247.846 47.745,246.933 47.551,246.137 47.412 C 245.330 47.272,243.875 46.831,242.844 46.414 C 241.828 46.003,240.908 45.667,240.800 45.667 C 240.692 45.667,239.811 45.273,238.843 44.792 L 237.083 43.917 231.667 43.970 C 225.570 44.030,223.362 43.814,219.998 42.828 C 219.401 42.653,218.337 42.399,217.632 42.265 C 216.928 42.130,216.169 41.900,215.945 41.753 C 215.359 41.369,213.183 41.394,210.667 41.813 C 205.945 42.600,193.511 42.571,189.750 41.764 C 187.963 41.381,186.736 41.258,186.250 41.413 " stroke="none" fill="#09aceb" fill-rule="evenodd"></path>
<path id="path2" d="M112.395 19.169 C 112.292 19.274,111.660 19.428,110.990 19.512 C 110.158 19.617,109.661 19.771,109.418 19.999 C 109.222 20.183,108.901 20.333,108.704 20.333 C 108.507 20.333,108.061 20.621,107.713 20.973 C 107.365 21.324,107.006 21.643,106.915 21.681 C 106.659 21.788,105.500 23.362,105.500 23.602 C 105.500 23.720,105.396 23.877,105.269 23.950 C 105.142 24.023,104.916 24.444,104.768 24.885 L 104.497 25.686 105.082 26.301 C 105.403 26.640,105.709 27.048,105.761 27.208 C 105.980 27.883,106.638 27.554,106.760 26.708 C 106.895 25.772,107.252 24.833,107.473 24.833 C 107.560 24.833,107.674 24.659,107.728 24.445 C 107.847 23.970,109.246 22.500,109.579 22.500 C 109.712 22.500,109.971 22.338,110.155 22.141 C 110.955 21.282,115.448 21.360,116.556 22.252 C 117.472 22.990,118.333 23.861,118.333 24.050 C 118.333 24.150,118.518 24.499,118.743 24.824 C 119.496 25.914,119.662 28.455,119.477 36.083 C 119.466 36.542,119.508 37.629,119.570 38.500 C 119.722 40.630,119.345 42.044,118.544 42.348 C 118.291 42.444,117.933 42.662,117.750 42.833 C 117.567 43.004,117.229 43.227,117.000 43.328 C 116.210 43.677,115.316 44.284,115.065 44.642 C 114.927 44.839,114.698 45.000,114.556 45.000 C 114.414 45.000,114.075 45.188,113.803 45.417 C 113.531 45.646,113.124 45.833,112.899 45.833 C 112.661 45.833,112.444 45.956,112.382 46.125 C 112.243 46.502,112.002 46.661,111.566 46.664 C 111.373 46.666,111.013 46.854,110.766 47.083 C 110.518 47.313,110.229 47.500,110.123 47.500 C 110.016 47.500,109.776 47.685,109.590 47.912 C 109.307 48.255,109.086 48.329,108.269 48.358 C 106.753 48.411,106.833 48.822,106.833 41.046 C 106.833 35.345,106.795 34.263,106.583 33.940 C 106.445 33.729,106.253 33.129,106.157 32.605 C 106.060 32.081,105.797 31.383,105.574 31.053 C 105.350 30.723,105.167 30.314,105.167 30.143 C 105.167 29.973,105.056 29.833,104.921 29.833 C 104.786 29.833,104.564 29.618,104.428 29.355 C 104.291 29.091,104.027 28.836,103.840 28.787 C 103.653 28.738,103.500 28.588,103.500 28.454 C 103.500 28.298,103.261 28.171,102.842 28.104 C 102.468 28.044,102.085 27.857,101.954 27.669 C 101.791 27.437,101.409 27.294,100.653 27.184 C 100.065 27.098,99.315 26.914,98.987 26.774 C 98.463 26.551,98.306 26.549,97.699 26.757 C 97.319 26.888,96.373 27.068,95.596 27.156 C 94.540 27.276,94.097 27.403,93.842 27.658 C 93.654 27.846,93.399 28.000,93.276 28.000 C 93.153 28.000,92.834 28.187,92.568 28.416 C 92.301 28.646,92.027 28.833,91.958 28.833 C 91.761 28.833,90.500 30.146,90.500 30.351 C 90.500 30.452,90.313 30.758,90.083 31.030 C 89.854 31.303,89.666 31.689,89.666 31.888 C 89.666 32.087,89.529 32.475,89.361 32.750 C 88.867 33.562,88.837 34.045,88.826 41.144 C 88.814 49.111,88.763 48.888,90.520 48.639 L 90.917 48.583 90.946 42.667 C 90.981 35.591,91.018 34.974,91.478 33.966 C 91.673 33.536,91.833 33.106,91.833 33.011 C 91.833 32.471,94.248 30.000,94.775 30.000 C 94.915 30.000,95.155 29.845,95.309 29.656 C 95.847 28.991,99.996 28.996,100.662 29.662 C 100.830 29.830,101.129 30.018,101.327 30.081 C 101.525 30.144,102.018 30.545,102.422 30.973 C 102.827 31.400,103.301 31.900,103.475 32.083 C 104.078 32.715,104.447 38.356,104.364 45.667 C 104.353 46.629,104.351 51.954,104.358 57.500 C 104.374 68.905,104.380 68.133,104.237 71.250 C 104.164 72.851,104.196 73.934,104.341 74.702 C 104.499 75.545,104.504 75.878,104.360 76.051 C 104.209 76.233,104.256 76.321,104.585 76.470 C 104.813 76.574,105.000 76.755,105.000 76.871 C 105.001 76.988,105.226 77.099,105.500 77.118 C 105.775 77.138,106.000 77.079,106.000 76.989 C 106.000 76.899,106.189 76.753,106.421 76.665 L 106.841 76.505 106.825 73.402 L 106.810 70.298 107.447 69.652 C 107.797 69.296,108.178 69.004,108.293 69.003 C 108.408 69.001,108.665 68.812,108.864 68.583 C 109.064 68.354,109.391 68.167,109.591 68.167 C 109.791 68.167,110.148 68.015,110.384 67.829 C 110.621 67.643,111.081 67.380,111.407 67.243 C 111.733 67.107,112.000 66.885,112.000 66.751 C 112.000 66.616,112.206 66.456,112.458 66.394 C 112.710 66.332,113.082 66.106,113.284 65.891 C 113.486 65.676,113.839 65.500,114.070 65.500 C 114.318 65.500,114.561 65.364,114.667 65.167 C 114.765 64.983,114.945 64.833,115.066 64.833 C 115.188 64.833,115.553 64.622,115.877 64.365 C 116.201 64.107,116.917 63.760,117.467 63.593 L 118.468 63.290 118.879 63.687 C 119.382 64.172,119.785 65.967,119.508 66.486 C 119.130 67.192,119.936 67.622,121.262 67.424 L 122.000 67.313 122.017 52.031 C 122.042 29.613,122.010 26.503,121.750 26.000 C 121.630 25.767,121.449 25.131,121.348 24.586 C 121.247 24.041,121.063 23.538,120.938 23.468 C 120.813 23.398,120.618 23.118,120.505 22.846 C 120.190 22.085,118.621 20.553,118.022 20.421 C 117.736 20.359,117.433 20.185,117.350 20.035 C 117.045 19.491,112.808 18.750,112.395 19.169 M120.488 45.208 C 120.467 45.592,120.192 46.122,120.178 45.805 C 120.172 45.652,120.121 45.409,120.066 45.264 C 119.999 45.091,120.056 45.000,120.232 45.000 C 120.379 45.000,120.495 45.094,120.488 45.208 M118.643 46.183 C 118.999 46.308,119.203 46.509,119.274 46.808 C 119.332 47.051,119.455 47.346,119.548 47.464 C 119.654 47.598,119.675 48.353,119.605 49.503 C 119.533 50.687,119.561 51.596,119.685 52.086 C 119.844 52.720,119.829 52.964,119.587 53.596 C 119.347 54.225,119.333 54.431,119.504 54.844 C 119.621 55.126,119.672 55.672,119.622 56.112 C 119.574 56.537,119.608 57.094,119.698 57.350 C 119.969 58.129,119.153 59.736,118.315 60.071 C 117.959 60.214,117.667 60.444,117.667 60.582 C 117.667 60.735,117.513 60.833,117.275 60.833 C 117.059 60.833,116.628 61.019,116.316 61.246 C 116.005 61.473,115.564 61.740,115.337 61.840 C 115.109 61.939,114.884 62.081,114.837 62.155 C 114.789 62.228,114.425 62.467,114.027 62.686 C 112.538 63.505,112.363 63.613,112.094 63.882 C 111.942 64.034,111.522 64.238,111.159 64.335 C 110.797 64.433,110.500 64.610,110.500 64.730 C 110.500 64.958,109.821 65.333,109.409 65.333 C 109.276 65.333,109.167 65.407,109.167 65.496 C 109.167 66.344,107.320 66.179,107.015 65.305 C 106.780 64.630,106.765 53.202,106.998 52.588 C 107.235 51.966,107.986 51.371,108.687 51.249 C 109.105 51.177,109.346 51.020,109.475 50.739 C 109.576 50.516,109.782 50.333,109.931 50.333 C 110.080 50.333,110.425 50.146,110.697 49.917 C 110.969 49.688,111.327 49.500,111.492 49.500 C 111.657 49.500,111.890 49.382,112.010 49.238 C 112.130 49.094,112.520 48.812,112.878 48.613 C 114.221 47.864,114.429 47.741,114.917 47.408 C 115.192 47.221,115.604 46.973,115.833 46.858 C 116.063 46.743,116.513 46.507,116.833 46.333 C 117.513 45.964,117.917 45.930,118.643 46.183 " stroke="none" fill="#686b6c" fill-rule="evenodd"></path><path id="path3" d="M111.250 18.476 C 110.354 18.639,108.699 19.321,108.083 19.780 C 106.036 21.308,104.333 23.171,104.333 23.885 C 104.333 23.965,104.183 24.221,104.000 24.455 C 103.484 25.110,103.551 26.086,104.151 26.638 C 106.613 28.904,106.689 28.954,107.072 28.571 C 107.232 28.411,107.333 28.019,107.333 27.561 C 107.333 26.625,108.200 24.756,108.908 24.167 C 109.183 23.938,109.560 23.600,109.745 23.417 C 112.308 20.884,116.913 22.338,118.302 26.120 L 118.855 27.624 118.783 34.312 L 118.712 41.000 118.314 41.392 C 118.096 41.608,117.729 41.882,117.500 42.002 C 117.271 42.121,116.558 42.556,115.917 42.967 C 114.208 44.064,113.674 44.399,112.780 44.935 C 112.338 45.200,111.809 45.567,111.605 45.750 C 111.401 45.933,111.350 45.998,111.492 45.894 C 111.634 45.791,112.050 45.545,112.417 45.349 C 114.060 44.470,115.328 43.729,115.610 43.482 C 115.779 43.335,116.442 42.875,117.083 42.460 C 119.104 41.155,118.917 42.033,118.917 33.858 L 118.917 26.750 118.441 25.667 C 116.999 22.382,113.823 21.099,110.764 22.566 C 108.824 23.497,107.169 25.638,107.167 27.219 C 107.166 28.650,106.728 28.719,105.417 27.497 C 105.142 27.241,104.673 26.805,104.375 26.529 C 103.784 25.980,103.699 25.495,104.076 24.833 C 104.206 24.604,104.463 24.131,104.646 23.782 C 108.973 15.535,120.932 17.251,122.425 26.333 L 122.658 27.750 122.583 26.358 C 122.529 25.356,122.395 24.725,122.107 24.108 C 121.887 23.636,121.655 23.081,121.592 22.875 C 121.529 22.669,121.410 22.500,121.326 22.500 C 121.243 22.500,121.053 22.264,120.904 21.975 C 120.403 21.007,119.117 19.908,117.615 19.163 L 116.167 18.446 114.042 18.400 C 112.873 18.375,111.617 18.409,111.250 18.476 M189.795 19.354 C 188.261 19.419,186.623 19.553,186.154 19.654 C 185.686 19.754,183.941 19.876,182.276 19.925 C 180.612 19.974,178.463 20.039,177.500 20.069 C 176.537 20.100,175.295 20.245,174.739 20.392 C 174.183 20.539,172.899 20.733,171.884 20.822 C 170.870 20.911,169.543 21.099,168.935 21.240 C 168.328 21.381,166.650 21.605,165.207 21.738 C 163.764 21.870,162.321 22.087,162.000 22.218 C 161.679 22.350,160.817 22.508,160.083 22.570 C 159.350 22.633,158.262 22.797,157.667 22.936 C 157.071 23.075,155.887 23.295,155.037 23.424 C 154.187 23.554,153.336 23.743,153.148 23.843 C 152.504 24.188,149.086 24.965,147.769 25.066 C 147.045 25.121,146.146 25.307,145.769 25.479 C 144.888 25.882,142.749 26.485,141.216 26.763 C 140.555 26.882,139.880 27.051,139.716 27.139 C 139.158 27.434,136.323 28.331,135.618 28.435 C 135.232 28.493,134.729 28.661,134.500 28.810 C 134.113 29.062,132.651 29.529,130.532 30.078 C 130.045 30.205,129.483 30.412,129.282 30.540 C 129.081 30.668,128.392 30.909,127.750 31.077 C 124.891 31.824,124.834 31.919,124.898 35.774 C 124.961 39.514,125.345 40.471,126.596 39.995 C 126.830 39.906,127.194 39.833,127.405 39.833 C 127.616 39.833,127.967 39.694,128.186 39.523 C 128.404 39.352,128.958 39.095,129.417 38.950 C 131.415 38.319,132.434 37.942,132.667 37.746 C 132.804 37.630,133.479 37.373,134.167 37.174 C 134.854 36.975,135.904 36.672,136.500 36.499 C 137.096 36.327,137.862 36.069,138.203 35.926 C 138.544 35.783,138.959 35.667,139.126 35.667 C 139.293 35.667,139.727 35.511,140.090 35.322 C 140.757 34.973,143.953 34.118,145.333 33.919 C 146.201 33.794,148.029 33.233,148.735 32.876 C 149.002 32.741,150.069 32.492,151.107 32.323 C 152.145 32.153,153.384 31.899,153.860 31.757 C 154.337 31.616,154.934 31.500,155.187 31.500 C 155.440 31.500,156.167 31.312,156.803 31.083 C 157.641 30.781,158.457 30.638,159.771 30.563 C 160.970 30.496,161.809 30.359,162.250 30.160 C 162.617 29.995,163.704 29.773,164.667 29.667 C 165.629 29.561,166.917 29.370,167.529 29.242 C 168.141 29.114,169.266 28.968,170.029 28.916 C 172.196 28.769,174.554 28.471,174.881 28.302 C 175.044 28.218,176.319 28.076,177.714 27.987 C 179.109 27.898,181.487 27.702,183.000 27.550 C 188.616 26.988,213.782 27.067,217.417 27.659 C 217.967 27.748,219.917 27.906,221.750 28.010 C 223.583 28.113,225.458 28.306,225.917 28.438 C 226.375 28.570,227.950 28.751,229.417 28.841 C 230.981 28.936,232.566 29.132,233.250 29.315 C 233.892 29.486,234.754 29.677,235.167 29.738 C 235.579 29.799,236.250 29.963,236.658 30.101 C 237.066 30.239,238.491 30.427,239.825 30.519 C 241.204 30.614,242.681 30.816,243.250 30.988 C 243.800 31.154,244.700 31.345,245.250 31.412 C 245.800 31.479,246.444 31.635,246.681 31.758 C 246.919 31.880,247.632 32.066,248.265 32.170 C 249.359 32.349,250.865 32.765,253.083 33.501 C 253.633 33.683,254.630 33.901,255.298 33.985 C 255.967 34.069,256.604 34.210,256.715 34.299 C 256.826 34.388,257.479 34.585,258.167 34.737 C 258.854 34.889,259.650 35.121,259.936 35.254 C 260.222 35.386,260.971 35.614,261.602 35.760 C 262.232 35.907,263.261 36.279,263.887 36.587 C 264.514 36.896,265.452 37.232,265.972 37.333 C 266.491 37.434,267.067 37.585,267.250 37.668 C 267.433 37.751,267.980 37.931,268.465 38.069 C 268.949 38.206,269.541 38.472,269.779 38.660 C 270.017 38.847,270.313 39.000,270.436 39.000 C 270.726 39.000,272.734 39.768,273.553 40.193 C 273.902 40.374,274.488 40.628,274.855 40.758 C 275.222 40.887,275.735 41.145,275.995 41.330 C 276.255 41.515,276.614 41.667,276.792 41.667 C 276.969 41.667,277.245 41.810,277.403 41.985 C 277.562 42.160,277.892 42.353,278.137 42.413 C 278.383 42.473,279.152 42.855,279.848 43.261 C 280.544 43.668,281.202 44.000,281.311 44.000 C 281.619 44.000,283.530 45.000,284.043 45.429 C 284.295 45.640,284.989 46.053,285.584 46.346 C 286.180 46.639,286.667 46.936,286.667 47.005 C 286.667 47.074,286.970 47.252,287.340 47.400 C 287.711 47.548,288.270 47.926,288.584 48.239 C 288.897 48.552,289.332 48.908,289.550 49.029 C 290.438 49.524,291.667 50.370,291.667 50.488 C 291.667 50.557,291.837 50.691,292.046 50.786 C 292.494 50.990,292.947 51.366,294.554 52.867 C 295.212 53.482,295.956 54.072,296.208 54.179 C 296.460 54.286,296.667 54.440,296.667 54.520 C 296.667 54.601,296.835 54.835,297.042 55.040 C 297.248 55.246,298.033 56.127,298.785 56.999 C 299.538 57.870,300.326 58.768,300.535 58.994 C 300.745 59.220,301.029 59.604,301.167 59.847 C 301.304 60.090,301.629 60.543,301.889 60.853 C 302.436 61.506,303.428 63.169,303.593 63.712 C 303.655 63.916,303.801 64.196,303.917 64.333 C 304.285 64.769,305.015 66.700,305.344 68.111 C 305.519 68.860,305.734 69.648,305.824 69.861 C 306.051 70.407,306.667 73.604,306.667 74.243 C 306.667 75.271,305.847 79.990,305.578 80.510 C 305.428 80.800,305.264 81.460,305.213 81.977 C 305.162 82.494,304.991 83.179,304.833 83.500 C 304.674 83.821,304.496 84.354,304.436 84.685 C 304.376 85.017,304.181 85.419,304.003 85.581 C 303.825 85.742,303.592 86.146,303.485 86.478 C 303.378 86.811,303.196 87.196,303.079 87.333 C 302.962 87.471,302.746 87.876,302.598 88.234 C 302.450 88.591,302.049 89.203,301.706 89.592 C 300.768 90.659,299.046 92.903,298.650 93.573 C 298.458 93.900,298.242 94.167,298.170 94.167 C 298.099 94.167,297.750 94.463,297.395 94.825 C 296.155 96.091,296.135 96.109,294.324 97.648 C 292.597 99.115,292.303 99.333,292.055 99.333 C 291.940 99.333,291.765 99.483,291.667 99.667 C 291.569 99.850,291.407 100.000,291.309 100.000 C 291.210 100.000,290.894 100.192,290.606 100.428 C 289.828 101.064,287.906 102.292,286.578 103.001 C 285.350 103.657,284.368 104.264,283.667 104.801 C 283.438 104.976,283.063 105.176,282.833 105.246 C 282.604 105.315,282.183 105.513,281.897 105.686 C 281.611 105.859,281.242 106.000,281.077 106.000 C 280.808 106.000,280.034 106.328,277.917 107.338 C 277.550 107.513,276.688 107.885,276.000 108.164 C 275.313 108.443,274.487 108.812,274.167 108.984 C 273.846 109.155,273.321 109.375,273.000 109.472 C 271.705 109.864,270.116 110.494,269.857 110.717 C 269.707 110.847,269.096 111.045,268.500 111.158 C 267.904 111.270,267.192 111.455,266.917 111.568 C 265.783 112.035,264.171 112.540,262.917 112.821 C 262.183 112.985,261.396 113.198,261.167 113.294 C 260.348 113.637,257.403 114.475,256.667 114.574 C 256.254 114.629,255.429 114.811,254.833 114.978 C 253.357 115.392,250.232 116.125,249.417 116.248 C 249.050 116.304,248.300 116.491,247.750 116.665 C 246.163 117.165,243.456 117.685,240.750 118.010 C 239.375 118.175,236.750 118.568,234.917 118.882 C 233.083 119.196,230.703 119.544,229.628 119.654 C 228.552 119.765,227.428 119.925,227.129 120.011 C 226.831 120.096,225.235 120.283,223.585 120.425 C 221.934 120.568,220.171 120.752,219.667 120.835 C 218.453 121.034,208.936 121.545,205.667 121.587 C 204.246 121.605,200.946 121.647,198.333 121.681 C 193.467 121.744,186.879 121.434,181.917 120.910 C 180.633 120.774,178.383 120.584,176.917 120.488 C 175.450 120.392,173.838 120.245,173.333 120.161 C 171.684 119.886,170.306 119.687,166.417 119.160 C 164.132 118.850,162.280 118.513,161.833 118.326 C 161.330 118.115,160.343 117.957,158.832 117.846 C 157.594 117.755,156.249 117.563,155.844 117.420 C 155.439 117.277,154.577 117.081,153.929 116.983 C 153.280 116.886,152.417 116.696,152.011 116.561 C 151.604 116.426,150.666 116.241,149.927 116.149 C 149.188 116.057,148.248 115.869,147.837 115.730 C 147.427 115.592,146.602 115.376,146.004 115.251 C 145.406 115.126,144.504 114.913,144.000 114.777 C 143.496 114.641,142.783 114.456,142.417 114.365 C 141.122 114.045,139.244 113.474,138.750 113.250 C 138.475 113.126,137.725 112.938,137.083 112.832 C 136.442 112.726,135.542 112.500,135.083 112.330 C 133.860 111.877,132.723 111.509,131.500 111.172 C 130.904 111.007,130.192 110.752,129.917 110.604 C 129.642 110.456,129.297 110.335,129.150 110.334 C 129.003 110.334,128.538 110.150,128.116 109.926 C 127.695 109.702,127.065 109.466,126.717 109.403 C 126.368 109.339,125.896 109.157,125.667 108.999 C 125.438 108.840,125.063 108.653,124.833 108.584 C 124.604 108.514,124.110 108.280,123.735 108.062 C 123.361 107.845,122.934 107.667,122.787 107.667 C 122.640 107.667,121.883 107.336,121.105 106.932 C 120.326 106.529,119.460 106.148,119.180 106.086 C 118.900 106.025,118.632 105.912,118.584 105.835 C 118.446 105.611,116.129 104.392,115.596 104.264 C 115.329 104.199,114.925 104.001,114.699 103.823 C 114.473 103.645,114.195 103.500,114.081 103.500 C 113.967 103.500,113.778 103.384,113.660 103.242 C 113.542 103.100,113.065 102.802,112.598 102.580 C 112.132 102.357,111.455 101.911,111.095 101.588 C 110.734 101.264,110.380 101.000,110.306 101.000 C 110.138 101.000,108.648 100.006,107.667 99.238 C 107.254 98.916,106.592 98.411,106.195 98.118 C 105.798 97.824,105.369 97.471,105.242 97.333 C 105.115 97.196,104.579 96.615,104.051 96.042 C 103.523 95.469,103.014 94.999,102.920 94.998 C 102.637 94.994,101.461 93.779,100.691 92.694 C 100.292 92.131,99.676 91.373,99.322 91.008 C 98.968 90.643,98.494 89.981,98.269 89.537 C 98.044 89.093,97.741 88.631,97.596 88.511 C 97.452 88.391,97.333 88.204,97.333 88.095 C 97.333 87.987,97.146 87.644,96.917 87.333 C 96.688 87.023,96.500 86.639,96.500 86.480 C 96.500 86.322,96.324 85.980,96.109 85.721 C 95.613 85.122,94.910 83.047,94.766 81.754 C 94.705 81.206,94.508 80.509,94.329 80.205 C 93.468 78.747,93.406 71.460,94.243 70.095 C 94.360 69.905,94.549 69.082,94.665 68.265 C 94.781 67.449,95.008 66.549,95.171 66.265 C 95.333 65.982,95.521 65.563,95.589 65.333 C 95.657 65.104,95.890 64.705,96.106 64.446 C 96.323 64.186,96.500 63.855,96.500 63.710 C 96.500 63.415,97.222 62.221,98.242 60.830 C 98.613 60.324,98.992 59.790,99.083 59.644 C 99.175 59.497,99.693 58.719,100.234 57.915 C 101.390 56.198,101.584 55.468,101.362 53.667 C 101.277 52.979,101.223 51.179,101.241 49.667 C 101.301 44.826,100.471 44.722,95.941 49.004 C 95.313 49.598,94.676 50.149,94.525 50.229 C 93.934 50.541,91.667 52.770,91.667 53.038 C 91.667 53.160,91.460 53.451,91.208 53.686 C 90.956 53.921,90.600 54.312,90.417 54.555 C 90.233 54.799,89.570 55.541,88.943 56.204 C 88.315 56.868,87.688 57.637,87.548 57.914 C 87.409 58.190,87.166 58.567,87.008 58.750 C 86.541 59.293,84.202 63.541,84.070 64.083 C 84.003 64.358,83.898 64.621,83.835 64.667 C 83.525 64.895,82.644 66.878,82.427 67.833 C 82.155 69.038,81.606 70.775,81.217 71.667 C 80.605 73.070,80.615 81.154,81.231 83.025 C 81.363 83.424,81.523 84.080,81.587 84.483 C 81.652 84.887,81.877 85.712,82.087 86.317 C 82.298 86.922,82.522 87.771,82.586 88.203 C 82.650 88.635,82.802 89.072,82.924 89.173 C 83.046 89.274,83.197 89.595,83.261 89.887 C 83.324 90.178,83.554 90.629,83.772 90.888 C 83.989 91.147,84.167 91.484,84.168 91.638 C 84.168 91.791,84.353 92.217,84.579 92.583 C 84.805 92.950,84.992 93.331,84.995 93.430 C 85.004 93.755,86.437 96.139,87.061 96.869 C 88.051 98.026,88.324 98.367,89.025 99.324 C 89.391 99.823,89.818 100.348,89.974 100.491 C 90.130 100.633,90.636 101.209,91.098 101.769 C 92.111 102.998,94.513 105.311,96.000 106.488 C 96.596 106.960,97.635 107.850,98.310 108.465 C 98.985 109.080,99.735 109.688,99.977 109.816 C 100.219 109.944,100.629 110.225,100.888 110.441 C 101.147 110.657,101.466 110.833,101.596 110.833 C 101.727 110.833,101.833 110.906,101.833 110.996 C 101.833 111.085,102.062 111.276,102.341 111.421 C 102.620 111.565,102.977 111.790,103.133 111.919 C 103.779 112.457,104.612 113.007,105.042 113.181 C 105.294 113.283,105.500 113.425,105.500 113.498 C 105.500 113.571,105.781 113.743,106.125 113.881 C 106.469 114.019,107.140 114.383,107.618 114.691 C 109.720 116.046,110.484 116.501,111.500 117.006 C 112.096 117.302,112.756 117.679,112.966 117.844 C 113.177 118.009,113.572 118.193,113.845 118.253 C 114.118 118.313,115.010 118.730,115.827 119.181 C 116.643 119.631,117.381 120.000,117.466 120.000 C 117.551 120.000,118.212 120.309,118.935 120.686 C 119.658 121.063,120.662 121.508,121.167 121.675 C 122.665 122.169,124.055 122.733,124.500 123.026 C 124.729 123.177,125.179 123.355,125.500 123.421 C 125.821 123.487,126.362 123.682,126.702 123.854 C 127.042 124.026,127.403 124.167,127.504 124.167 C 127.605 124.167,128.076 124.349,128.552 124.572 C 129.028 124.794,129.712 125.030,130.074 125.096 C 130.435 125.162,130.960 125.347,131.240 125.508 C 131.521 125.669,132.012 125.853,132.333 125.917 C 132.654 125.981,133.090 126.143,133.303 126.277 C 133.515 126.412,134.152 126.621,134.719 126.743 C 135.862 126.988,138.175 127.744,138.857 128.096 C 139.099 128.221,139.812 128.392,140.441 128.475 C 141.069 128.559,142.371 128.866,143.333 129.158 C 146.309 130.062,146.721 130.167,147.328 130.172 C 147.652 130.175,148.292 130.362,148.750 130.587 C 149.208 130.812,149.759 130.998,149.974 130.998 C 150.189 130.999,150.864 131.148,151.474 131.330 C 152.084 131.511,153.146 131.731,153.833 131.818 C 155.888 132.077,160.713 132.952,161.250 133.163 C 161.525 133.271,162.612 133.425,163.667 133.506 C 164.721 133.586,166.033 133.765,166.583 133.904 C 167.133 134.042,168.647 134.233,169.948 134.328 C 171.248 134.424,172.748 134.610,173.281 134.743 C 173.814 134.876,175.862 135.099,177.833 135.239 C 179.804 135.379,182.354 135.565,183.500 135.654 C 188.502 136.039,197.331 136.214,204.750 136.076 C 208.875 136.000,212.816 135.956,213.509 135.978 C 214.201 136.001,215.288 135.905,215.925 135.766 C 216.562 135.627,219.071 135.394,221.500 135.248 C 223.929 135.101,226.404 134.880,227.000 134.756 C 228.385 134.467,230.529 134.198,232.333 134.087 C 233.112 134.040,234.012 133.928,234.333 133.839 C 234.654 133.750,235.704 133.603,236.667 133.511 C 237.629 133.419,238.846 133.191,239.371 133.005 C 239.896 132.819,240.577 132.667,240.886 132.667 C 241.194 132.667,242.040 132.514,242.765 132.327 C 243.490 132.140,244.871 131.908,245.833 131.812 C 246.796 131.716,247.958 131.500,248.417 131.331 C 248.875 131.162,249.588 130.973,250.000 130.910 C 250.412 130.847,251.012 130.686,251.333 130.553 C 251.654 130.419,252.587 130.200,253.407 130.065 C 254.226 129.931,254.976 129.760,255.073 129.685 C 255.236 129.559,258.395 128.740,260.167 128.364 C 260.579 128.276,261.292 128.054,261.750 127.871 C 263.068 127.344,263.659 127.155,265.073 126.811 C 265.801 126.634,266.483 126.417,266.588 126.329 C 266.799 126.155,268.729 125.470,270.145 125.067 C 270.637 124.927,271.311 124.667,271.643 124.490 C 271.974 124.312,272.437 124.167,272.671 124.167 C 272.905 124.167,273.382 124.021,273.731 123.843 C 274.080 123.665,274.574 123.474,274.829 123.418 C 275.084 123.362,275.541 123.132,275.845 122.908 C 276.149 122.684,276.494 122.500,276.611 122.500 C 276.728 122.500,277.233 122.313,277.734 122.083 C 278.235 121.854,278.733 121.667,278.840 121.667 C 278.947 121.667,279.383 121.482,279.809 121.256 C 280.522 120.877,281.784 120.335,283.125 119.830 C 283.423 119.718,283.667 119.561,283.667 119.482 C 283.667 119.402,283.962 119.290,284.323 119.232 C 284.693 119.173,285.141 118.955,285.352 118.730 C 285.557 118.512,285.847 118.333,285.996 118.333 C 286.145 118.333,286.751 118.019,287.342 117.635 C 287.933 117.251,288.787 116.795,289.241 116.623 C 289.694 116.451,290.331 116.100,290.657 115.843 C 290.983 115.587,291.625 115.177,292.083 114.933 C 292.542 114.689,293.254 114.267,293.667 113.996 C 294.079 113.725,294.717 113.350,295.083 113.161 C 296.191 112.593,297.902 111.505,298.472 111.007 C 298.687 110.820,298.962 110.667,299.085 110.667 C 299.207 110.667,299.849 110.142,300.512 109.500 C 301.174 108.858,301.773 108.333,301.843 108.333 C 302.149 108.333,305.612 105.240,307.707 103.095 C 310.690 100.040,310.540 100.211,311.084 99.256 C 311.343 98.802,311.712 98.273,311.903 98.081 C 313.020 96.959,314.167 95.498,314.167 95.196 C 314.167 95.003,314.317 94.765,314.500 94.667 C 314.683 94.569,314.833 94.403,314.833 94.299 C 314.833 94.086,315.504 92.626,316.590 90.474 C 317.044 89.575,317.392 88.601,317.514 87.891 C 317.621 87.263,317.813 86.546,317.939 86.297 C 318.066 86.048,318.276 85.373,318.405 84.797 C 318.535 84.221,318.759 83.433,318.902 83.045 C 319.509 81.404,319.400 72.863,318.758 71.695 C 318.514 71.250,317.500 67.755,317.500 67.357 C 317.500 67.164,316.729 65.392,316.294 64.583 C 315.958 63.959,315.858 63.750,315.367 62.652 C 315.097 62.049,314.510 61.016,314.063 60.357 C 313.616 59.698,313.005 58.767,312.705 58.288 C 312.128 57.364,311.417 56.508,309.679 54.641 C 309.090 54.009,308.482 53.284,308.328 53.031 C 308.174 52.778,307.648 52.237,307.159 51.827 C 306.670 51.418,305.933 50.723,305.521 50.284 C 304.862 49.579,303.392 48.365,301.801 47.209 C 301.518 47.003,300.925 46.497,300.483 46.084 C 300.042 45.671,299.608 45.333,299.519 45.333 C 299.430 45.333,299.227 45.202,299.068 45.042 C 298.908 44.881,298.608 44.637,298.400 44.500 C 298.192 44.362,297.378 43.781,296.590 43.208 C 295.803 42.635,295.121 42.167,295.076 42.167 C 295.031 42.167,294.676 41.963,294.288 41.715 C 293.266 41.059,292.764 40.783,291.042 39.933 C 290.194 39.514,289.500 39.104,289.500 39.022 C 289.500 38.941,289.256 38.776,288.958 38.656 C 288.660 38.537,288.205 38.265,287.946 38.053 C 287.686 37.840,287.398 37.667,287.305 37.667 C 287.211 37.667,286.935 37.524,286.691 37.351 C 286.447 37.177,285.923 36.947,285.528 36.841 C 285.132 36.734,284.383 36.352,283.863 35.990 C 283.342 35.629,282.654 35.292,282.333 35.241 C 281.789 35.155,280.998 34.823,279.167 33.912 C 278.754 33.707,278.229 33.487,278.000 33.424 C 277.560 33.302,276.508 32.839,275.447 32.300 C 275.098 32.123,274.498 31.862,274.114 31.721 C 271.439 30.738,270.169 30.296,269.628 30.158 C 268.627 29.903,266.472 29.168,265.750 28.835 C 265.383 28.666,264.690 28.477,264.209 28.415 C 263.727 28.353,263.297 28.242,263.252 28.169 C 263.207 28.096,262.625 27.904,261.960 27.742 C 261.294 27.580,260.600 27.354,260.417 27.239 C 260.233 27.124,259.459 26.904,258.697 26.751 C 257.934 26.598,256.997 26.331,256.613 26.157 C 256.230 25.983,255.720 25.839,255.479 25.837 C 255.239 25.835,254.716 25.718,254.317 25.578 C 253.919 25.437,252.878 25.210,252.005 25.074 C 251.131 24.938,250.267 24.753,250.083 24.663 C 248.699 23.986,246.017 23.351,244.499 23.340 C 243.994 23.336,243.320 23.258,243.001 23.167 C 242.682 23.075,241.558 22.883,240.502 22.739 C 239.447 22.595,238.096 22.334,237.500 22.159 C 236.894 21.981,235.382 21.766,234.071 21.671 C 232.762 21.576,231.141 21.346,230.404 21.150 C 229.678 20.957,228.483 20.737,227.750 20.661 C 227.017 20.586,225.929 20.448,225.333 20.355 C 224.737 20.262,222.525 20.139,220.417 20.083 C 218.308 20.026,215.683 19.877,214.583 19.752 C 213.483 19.627,211.833 19.477,210.917 19.419 C 208.480 19.266,193.049 19.218,189.795 19.354 M213.000 20.341 C 215.246 20.433,218.621 20.652,220.500 20.829 C 222.379 21.006,224.832 21.230,225.951 21.326 C 227.070 21.423,228.495 21.606,229.118 21.735 C 229.741 21.863,230.963 22.018,231.833 22.079 C 232.704 22.141,233.867 22.297,234.417 22.427 C 234.967 22.557,236.383 22.816,237.564 23.002 C 238.745 23.189,239.763 23.373,239.826 23.412 C 239.889 23.451,240.758 23.566,241.759 23.668 C 243.637 23.859,247.749 24.687,248.311 24.988 C 248.486 25.082,249.281 25.272,250.078 25.411 C 250.875 25.550,251.597 25.707,251.682 25.760 C 251.767 25.812,252.642 26.031,253.627 26.245 C 255.762 26.711,258.061 27.319,260.000 27.931 C 260.779 28.177,262.054 28.545,262.833 28.749 C 263.612 28.953,264.512 29.237,264.833 29.381 C 265.585 29.717,266.785 30.117,268.250 30.518 C 268.892 30.694,270.054 31.098,270.833 31.416 C 271.612 31.734,272.587 32.100,273.000 32.230 C 273.721 32.457,277.047 33.771,278.083 34.237 C 278.358 34.361,279.151 34.733,279.846 35.065 C 280.540 35.396,281.187 35.667,281.283 35.667 C 281.628 35.667,283.406 36.531,283.878 36.929 C 284.142 37.151,284.447 37.335,284.554 37.336 C 284.727 37.339,285.935 37.926,287.417 38.728 C 287.692 38.876,287.982 38.998,288.061 38.999 C 288.141 39.000,288.462 39.225,288.775 39.500 C 289.089 39.775,289.488 40.000,289.663 40.000 C 289.837 40.000,290.025 40.073,290.080 40.162 C 290.135 40.251,290.496 40.474,290.882 40.658 C 291.268 40.841,292.483 41.560,293.583 42.256 C 294.683 42.951,295.801 43.647,296.066 43.802 C 296.332 43.957,296.782 44.279,297.066 44.519 C 297.351 44.759,298.108 45.342,298.750 45.816 C 300.079 46.797,300.746 47.328,301.728 48.185 C 302.107 48.516,302.717 48.980,303.083 49.217 C 305.082 50.508,310.805 56.792,312.667 59.740 C 312.987 60.248,313.310 60.665,313.384 60.665 C 313.457 60.666,313.634 60.948,313.778 61.292 C 313.921 61.635,314.165 62.104,314.321 62.333 C 314.477 62.563,315.036 63.725,315.563 64.917 C 316.091 66.108,316.622 67.271,316.743 67.500 C 316.864 67.729,317.052 68.367,317.160 68.917 C 317.268 69.467,317.501 70.348,317.678 70.876 C 317.855 71.403,318.001 72.003,318.002 72.209 C 318.003 72.415,318.152 73.296,318.333 74.167 C 318.698 75.923,318.790 79.497,318.496 80.501 C 318.403 80.821,318.208 81.870,318.063 82.832 C 317.918 83.794,317.698 84.778,317.574 85.019 C 317.449 85.259,317.272 85.923,317.180 86.494 C 317.088 87.066,316.936 87.626,316.842 87.739 C 316.748 87.853,316.566 88.239,316.436 88.598 C 315.516 91.156,313.428 94.950,311.998 96.667 C 311.577 97.171,311.012 97.943,310.742 98.383 C 310.063 99.488,304.892 104.801,303.411 105.915 C 302.744 106.417,302.060 107.007,301.891 107.226 C 301.722 107.444,301.133 107.931,300.583 108.308 C 300.033 108.686,299.021 109.442,298.333 109.988 C 297.646 110.535,296.746 111.189,296.333 111.441 C 295.921 111.694,294.946 112.309,294.167 112.808 C 291.733 114.366,291.511 114.500,291.360 114.500 C 291.279 114.500,290.921 114.699,290.565 114.941 C 289.964 115.350,288.554 116.117,285.537 117.674 C 284.870 118.018,284.233 118.370,284.120 118.455 C 284.008 118.540,283.152 118.923,282.217 119.306 C 281.282 119.689,280.007 120.264,279.383 120.584 C 278.760 120.904,277.860 121.279,277.383 121.418 C 276.907 121.557,276.471 121.745,276.415 121.836 C 276.359 121.926,276.179 122.000,276.015 122.000 C 275.851 122.000,275.386 122.174,274.983 122.388 C 274.580 122.601,273.425 123.053,272.417 123.393 C 271.408 123.733,270.396 124.113,270.167 124.237 C 269.938 124.362,269.263 124.588,268.668 124.739 C 268.073 124.890,267.514 125.086,267.426 125.174 C 267.339 125.261,267.165 125.333,267.042 125.333 C 266.918 125.333,266.239 125.553,265.533 125.821 C 264.827 126.089,263.500 126.505,262.583 126.745 C 261.667 126.985,260.542 127.326,260.083 127.503 C 259.625 127.680,258.837 127.907,258.333 128.007 C 257.829 128.108,256.967 128.331,256.417 128.502 C 255.306 128.849,253.724 129.233,251.833 129.614 C 251.146 129.753,250.096 130.008,249.500 130.181 C 248.227 130.551,245.707 131.064,242.937 131.516 C 241.848 131.694,240.901 131.875,240.831 131.918 C 240.761 131.961,239.866 132.113,238.842 132.256 C 237.818 132.399,236.798 132.585,236.574 132.670 C 236.073 132.861,232.113 133.331,230.942 133.339 C 230.470 133.342,229.896 133.452,229.667 133.583 C 229.438 133.714,228.901 133.824,228.474 133.827 C 227.640 133.834,223.720 134.244,222.083 134.497 C 221.533 134.582,219.358 134.733,217.250 134.833 C 215.142 134.933,211.255 135.124,208.613 135.257 C 203.062 135.538,195.670 135.574,193.154 135.334 C 192.198 135.243,188.567 135.053,185.083 134.913 C 181.600 134.772,178.075 134.548,177.250 134.413 C 176.425 134.279,174.813 134.093,173.667 134.000 C 172.521 133.907,171.021 133.720,170.333 133.584 C 169.646 133.448,168.183 133.259,167.083 133.163 C 165.983 133.068,164.108 132.809,162.917 132.588 C 159.201 131.898,157.968 131.681,156.333 131.428 C 154.400 131.130,150.899 130.379,150.524 130.183 C 150.373 130.104,149.688 129.949,149.000 129.838 C 147.810 129.646,147.045 129.452,144.292 128.646 C 143.627 128.452,142.603 128.191,142.016 128.066 C 141.430 127.942,139.892 127.510,138.600 127.107 C 137.307 126.703,135.950 126.298,135.583 126.205 C 135.217 126.113,133.717 125.613,132.250 125.094 C 130.783 124.575,129.246 124.044,128.833 123.913 C 128.421 123.783,127.786 123.524,127.423 123.338 C 127.060 123.152,126.647 123.000,126.506 122.999 C 126.365 122.999,125.800 122.774,125.250 122.500 C 124.700 122.226,124.172 122.001,124.077 122.001 C 123.982 122.000,123.610 121.850,123.250 121.667 C 122.890 121.483,122.477 121.333,122.332 121.333 C 122.187 121.333,121.371 120.992,120.520 120.575 C 119.668 120.158,118.603 119.672,118.154 119.495 C 117.704 119.318,117.027 118.977,116.649 118.739 C 116.271 118.500,115.652 118.196,115.274 118.062 C 114.896 117.929,114.173 117.586,113.668 117.301 C 113.163 117.016,112.188 116.482,111.500 116.115 C 110.813 115.748,109.989 115.272,109.670 115.057 C 109.350 114.842,108.997 114.667,108.884 114.667 C 108.771 114.667,108.432 114.452,108.131 114.189 C 107.830 113.926,107.171 113.489,106.667 113.219 C 105.792 112.749,104.308 111.798,103.334 111.083 C 103.085 110.900,102.663 110.603,102.398 110.424 C 102.133 110.245,101.674 109.892,101.378 109.640 C 101.082 109.388,100.309 108.836,99.660 108.412 C 99.011 107.989,98.129 107.302,97.699 106.885 C 97.269 106.469,96.542 105.846,96.083 105.502 C 94.273 104.140,89.206 98.521,87.917 96.445 C 87.733 96.150,87.271 95.498,86.890 94.996 C 82.380 89.060,80.186 77.186,82.418 70.797 C 82.635 70.176,82.862 69.311,82.923 68.875 C 83.027 68.119,83.213 67.618,84.084 65.750 C 84.298 65.292,84.525 64.729,84.589 64.500 C 84.654 64.271,84.802 63.971,84.920 63.833 C 85.037 63.696,85.257 63.321,85.409 63.000 C 86.042 61.660,87.649 59.129,88.620 57.943 C 89.007 57.470,89.776 56.540,90.328 55.877 C 90.881 55.213,91.333 54.634,91.333 54.590 C 91.333 54.496,94.628 51.291,95.583 50.457 C 95.950 50.137,96.802 49.375,97.477 48.765 C 98.651 47.704,99.950 46.895,100.154 47.098 C 100.628 47.570,100.354 56.760,99.854 57.167 C 99.685 57.304,99.113 58.054,98.582 58.833 C 98.052 59.612,97.476 60.408,97.302 60.602 C 97.128 60.795,96.498 61.917,95.901 63.094 C 95.305 64.272,94.750 65.317,94.667 65.416 C 94.585 65.516,94.441 65.936,94.348 66.351 C 94.255 66.765,94.064 67.325,93.924 67.594 C 93.784 67.863,93.668 68.196,93.668 68.333 C 93.667 68.471,93.466 69.371,93.222 70.333 C 92.510 73.139,92.584 76.728,93.418 79.917 C 93.754 81.200,94.159 82.775,94.318 83.417 C 94.478 84.058,94.691 84.733,94.794 84.917 C 94.896 85.100,95.216 85.737,95.505 86.333 C 96.714 88.828,99.760 93.119,101.472 94.741 C 101.961 95.204,102.949 96.146,103.667 96.833 C 105.485 98.572,105.910 98.939,106.655 99.409 C 107.013 99.635,107.350 99.893,107.405 99.982 C 107.491 100.121,109.997 101.811,112.500 103.417 C 112.912 103.682,114.000 104.284,114.917 104.754 C 115.833 105.225,117.146 105.907,117.833 106.271 C 118.521 106.634,119.758 107.215,120.583 107.560 C 121.408 107.906,122.361 108.334,122.700 108.511 C 123.039 108.688,123.403 108.833,123.509 108.833 C 123.615 108.833,124.053 109.010,124.482 109.225 C 124.912 109.441,125.560 109.713,125.923 109.831 C 126.286 109.948,126.667 110.109,126.768 110.189 C 126.870 110.269,127.282 110.444,127.685 110.577 C 128.087 110.710,129.167 111.090,130.083 111.421 C 131.922 112.086,133.200 112.498,135.333 113.114 C 136.112 113.338,137.387 113.711,138.167 113.942 C 140.173 114.537,143.034 115.310,144.504 115.655 C 145.194 115.817,146.019 116.033,146.338 116.134 C 146.656 116.236,147.554 116.431,148.333 116.568 C 149.849 116.835,153.506 117.651,153.687 117.763 C 153.830 117.851,158.120 118.614,160.241 118.929 C 161.153 119.064,162.316 119.282,162.825 119.414 C 163.334 119.545,164.650 119.736,165.750 119.837 C 166.850 119.938,168.462 120.160,169.333 120.330 C 170.204 120.501,171.891 120.730,173.081 120.839 C 174.271 120.949,175.406 121.099,175.602 121.174 C 175.798 121.248,177.449 121.392,179.271 121.494 C 182.440 121.670,183.526 121.762,187.833 122.215 C 191.120 122.561,210.598 122.473,213.833 122.098 C 215.254 121.933,216.904 121.766,217.500 121.728 C 222.670 121.392,223.676 121.308,224.160 121.168 C 224.465 121.081,225.618 120.931,226.723 120.835 C 227.828 120.739,229.485 120.517,230.407 120.340 C 231.329 120.164,233.021 119.930,234.167 119.820 C 235.313 119.710,236.368 119.560,236.512 119.487 C 236.655 119.414,237.593 119.270,238.595 119.167 C 239.597 119.065,241.242 118.803,242.250 118.587 C 243.258 118.370,245.171 117.988,246.500 117.738 C 247.829 117.489,249.329 117.151,249.833 116.988 C 250.338 116.824,251.088 116.641,251.500 116.580 C 252.415 116.446,255.192 115.780,256.667 115.342 C 257.262 115.164,258.050 114.966,258.417 114.902 C 258.783 114.837,260.058 114.489,261.250 114.128 C 262.442 113.768,263.810 113.373,264.292 113.251 C 265.635 112.912,269.217 111.698,272.167 110.583 C 273.037 110.253,274.072 109.881,274.466 109.756 C 274.860 109.631,275.272 109.457,275.383 109.370 C 275.493 109.283,276.221 108.930,277.000 108.586 C 277.779 108.242,279.092 107.643,279.917 107.256 C 280.742 106.868,281.697 106.459,282.039 106.347 C 282.624 106.155,284.120 105.347,287.258 103.528 C 288.494 102.811,291.100 101.081,293.333 99.493 C 293.837 99.134,294.403 98.652,294.590 98.420 C 294.776 98.189,295.004 98.000,295.095 98.000 C 295.406 98.000,299.747 93.578,300.826 92.162 C 301.417 91.386,302.136 90.442,302.423 90.066 C 302.709 89.689,303.414 88.414,303.988 87.232 C 304.563 86.050,305.106 84.943,305.196 84.773 C 305.564 84.075,306.209 81.992,306.494 80.583 C 306.660 79.758,306.894 78.671,307.014 78.167 C 307.615 75.631,306.961 68.567,306.003 67.250 C 305.936 67.158,305.797 66.735,305.693 66.310 C 305.521 65.606,304.308 63.101,303.185 61.132 C 302.939 60.701,302.236 59.764,301.624 59.049 C 301.011 58.335,300.301 57.497,300.046 57.188 C 297.970 54.670,294.941 51.812,292.517 50.083 C 291.778 49.556,290.083 48.279,289.265 47.633 C 288.998 47.422,288.573 47.137,288.321 47.000 C 287.888 46.764,284.370 44.668,283.833 44.326 C 283.696 44.239,282.908 43.830,282.083 43.419 C 281.258 43.007,280.322 42.519,280.003 42.335 C 279.683 42.151,279.304 42.000,279.160 42.000 C 279.016 42.000,278.649 41.816,278.345 41.592 C 278.041 41.368,277.582 41.138,277.324 41.081 C 277.067 41.025,276.767 40.871,276.658 40.739 C 276.549 40.608,276.382 40.500,276.288 40.500 C 276.194 40.500,275.284 40.117,274.267 39.648 C 273.249 39.179,272.042 38.685,271.583 38.549 C 271.125 38.413,270.520 38.161,270.238 37.989 C 269.957 37.817,269.019 37.445,268.155 37.163 C 267.290 36.881,265.796 36.359,264.833 36.004 C 263.871 35.648,262.847 35.310,262.558 35.252 C 262.269 35.195,261.747 35.002,261.398 34.824 C 261.049 34.646,260.626 34.500,260.460 34.500 C 260.293 34.500,259.690 34.341,259.120 34.147 C 258.550 33.953,257.483 33.661,256.750 33.499 C 256.017 33.336,254.704 33.012,253.833 32.777 C 251.531 32.157,251.070 32.037,249.500 31.652 C 245.079 30.568,244.685 30.489,240.000 29.756 C 238.487 29.519,236.650 29.180,235.917 29.003 C 235.183 28.826,233.646 28.599,232.500 28.499 C 231.354 28.399,230.154 28.242,229.833 28.149 C 229.512 28.057,227.787 27.830,226.000 27.644 C 224.213 27.458,222.150 27.241,221.417 27.161 C 220.683 27.082,217.796 26.899,215.000 26.756 C 212.204 26.612,209.731 26.453,209.504 26.401 C 208.768 26.235,190.527 26.318,189.112 26.494 C 188.363 26.587,185.223 26.779,182.134 26.920 C 178.513 27.084,176.292 27.254,175.884 27.398 C 175.535 27.520,174.537 27.672,173.667 27.735 C 172.796 27.798,171.183 27.989,170.083 28.159 C 168.983 28.329,167.558 28.517,166.917 28.576 C 165.335 28.722,162.766 29.141,161.750 29.418 C 160.731 29.697,158.070 30.168,157.500 30.171 C 157.087 30.174,156.802 30.234,153.250 31.077 C 152.242 31.316,150.779 31.649,150.000 31.816 C 149.221 31.983,148.208 32.236,147.750 32.377 C 146.914 32.635,144.788 33.167,142.917 33.587 C 142.032 33.785,139.848 34.466,138.417 34.990 C 138.142 35.090,137.017 35.469,135.917 35.831 C 133.662 36.572,132.044 37.157,131.130 37.560 C 130.790 37.710,130.445 37.833,130.365 37.833 C 130.285 37.833,129.514 38.124,128.651 38.479 C 125.701 39.694,125.833 39.826,125.833 35.664 C 125.833 32.595,125.853 32.551,127.417 32.043 C 131.485 30.723,135.024 29.494,135.355 29.286 C 135.572 29.150,136.087 28.990,136.500 28.930 C 137.166 28.834,138.290 28.504,141.083 27.588 C 141.542 27.438,142.450 27.215,143.103 27.092 C 143.755 26.969,144.430 26.794,144.603 26.703 C 144.775 26.611,145.541 26.410,146.303 26.255 C 147.066 26.100,147.928 25.876,148.220 25.757 C 148.511 25.638,149.200 25.489,149.750 25.426 C 150.300 25.364,151.275 25.172,151.917 25.000 C 152.558 24.827,153.458 24.635,153.917 24.573 C 154.375 24.510,154.979 24.366,155.259 24.252 C 155.538 24.138,156.701 23.915,157.842 23.757 C 158.983 23.599,160.329 23.367,160.833 23.242 C 162.181 22.907,166.700 22.212,168.333 22.088 C 169.112 22.029,170.350 21.876,171.083 21.747 C 172.510 21.496,174.772 21.227,177.333 21.001 C 178.204 20.925,179.779 20.785,180.833 20.692 C 182.558 20.538,189.445 20.233,194.250 20.098 C 197.211 20.015,208.576 20.162,213.000 20.341 M96.784 26.015 C 95.605 26.112,94.997 26.245,94.597 26.491 C 94.293 26.679,93.903 26.834,93.730 26.834 C 92.984 26.835,90.918 28.399,89.989 29.667 C 88.832 31.247,88.475 32.227,87.895 35.417 C 87.588 37.101,87.682 47.397,88.009 48.031 C 88.281 48.558,88.848 49.164,89.250 49.358 C 89.433 49.446,89.375 49.356,89.120 49.159 C 88.192 48.437,88.171 48.303,88.056 42.213 C 87.894 33.699,88.483 31.230,91.315 28.560 C 91.871 28.036,93.556 27.000,93.855 26.999 C 93.981 26.998,94.296 26.887,94.556 26.751 C 96.492 25.742,101.224 26.137,102.858 27.445 C 102.982 27.544,103.313 27.741,103.593 27.884 C 104.712 28.451,106.225 30.663,107.036 32.917 C 107.147 33.224,107.234 35.492,107.263 38.807 C 107.288 41.772,107.359 44.247,107.420 44.307 C 107.480 44.368,107.504 41.829,107.473 38.667 L 107.417 32.917 106.725 31.500 C 105.554 29.102,104.180 27.703,102.148 26.839 C 101.816 26.699,101.439 26.494,101.309 26.384 C 101.080 26.192,99.176 25.813,98.667 25.858 C 98.529 25.870,97.682 25.941,96.784 26.015 M122.539 29.750 L 122.542 31.583 122.691 30.424 C 122.779 29.735,122.778 28.991,122.688 28.591 C 122.565 28.047,122.536 28.270,122.539 29.750 M95.761 30.162 C 92.033 31.694,91.068 35.571,91.792 46.099 C 91.887 47.485,91.936 46.335,92.000 41.250 L 92.083 34.583 92.617 33.500 C 93.096 32.527,93.737 31.720,94.602 31.000 C 95.747 30.047,98.398 29.593,99.553 30.152 C 99.948 30.343,100.404 30.500,100.566 30.500 C 100.956 30.500,102.833 32.388,102.833 32.781 C 102.833 32.950,102.983 33.368,103.167 33.710 C 103.480 34.295,103.501 34.673,103.521 40.041 C 103.532 43.181,103.595 46.275,103.661 46.917 C 103.726 47.558,103.742 44.942,103.696 41.103 C 103.614 34.351,103.599 34.093,103.236 33.187 C 102.053 30.237,98.791 28.917,95.761 30.162 M122.558 33.833 C 122.558 34.612,122.587 34.931,122.622 34.542 C 122.657 34.152,122.657 33.515,122.622 33.125 C 122.587 32.735,122.558 33.054,122.558 33.833 M113.750 37.253 C 113.200 37.480,112.625 37.665,112.471 37.666 C 112.318 37.666,111.980 37.843,111.721 38.059 C 111.462 38.274,111.081 38.539,110.876 38.647 C 109.863 39.180,109.367 42.321,110.204 42.907 C 110.721 43.270,112.333 43.076,112.333 42.651 C 112.333 42.588,112.519 42.490,112.745 42.433 C 112.972 42.376,113.237 42.180,113.334 41.998 C 113.432 41.816,113.604 41.667,113.716 41.667 C 113.828 41.667,114.118 41.483,114.359 41.260 C 114.601 41.036,115.056 40.745,115.371 40.613 C 116.350 40.204,116.637 39.674,116.580 38.385 C 116.505 36.715,115.770 36.421,113.750 37.253 M122.619 38.333 C 122.553 39.204,122.502 46.010,122.505 53.456 C 122.511 68.804,122.570 68.167,121.153 68.167 C 120.977 68.167,120.833 68.242,120.833 68.333 C 120.833 68.425,121.208 68.500,121.667 68.500 C 122.791 68.500,122.725 68.781,121.567 68.926 C 120.126 69.106,118.603 68.893,117.894 68.412 C 117.002 67.807,114.841 68.011,114.834 68.701 C 114.834 68.765,114.569 68.868,114.245 68.929 C 113.922 68.989,113.585 69.175,113.496 69.341 C 113.407 69.508,113.165 69.696,112.959 69.760 C 110.930 70.384,109.569 72.087,109.730 73.800 C 109.868 75.266,109.537 76.543,108.888 77.049 C 108.629 77.251,108.240 77.603,108.025 77.833 C 107.443 78.453,103.835 78.382,103.158 77.738 C 102.923 77.516,102.655 77.333,102.562 77.333 C 101.886 77.333,101.313 75.673,101.354 73.834 C 101.397 71.950,100.825 71.201,99.483 71.381 C 97.157 71.693,96.730 76.030,98.655 79.802 C 99.014 80.507,99.390 81.383,99.490 81.750 C 99.590 82.117,99.783 82.562,99.919 82.740 C 100.055 82.918,100.167 83.163,100.167 83.284 C 100.167 83.572,101.484 85.500,101.681 85.500 C 101.765 85.500,101.833 85.579,101.833 85.676 C 101.833 85.929,104.336 89.463,104.719 89.750 C 104.841 89.842,105.010 90.042,105.095 90.194 C 105.233 90.441,105.587 90.745,106.962 91.794 C 107.731 92.382,108.667 93.313,108.667 93.491 C 108.667 93.592,108.835 93.748,109.042 93.838 C 109.248 93.928,109.754 94.263,110.167 94.582 C 110.579 94.901,111.367 95.461,111.917 95.825 C 112.467 96.190,113.019 96.576,113.144 96.685 C 113.865 97.310,114.841 97.979,115.186 98.086 C 115.737 98.257,117.058 99.026,117.204 99.262 C 117.271 99.369,117.571 99.557,117.871 99.680 C 118.171 99.803,118.904 100.177,119.500 100.512 C 123.589 102.808,127.674 104.833,128.217 104.833 C 128.482 104.833,128.898 104.940,129.141 105.071 C 130.480 105.789,132.134 106.500,132.465 106.500 C 132.873 106.500,134.748 107.391,135.118 107.760 C 135.242 107.885,135.585 108.029,135.880 108.081 C 137.246 108.320,138.053 108.536,139.833 109.139 C 140.887 109.496,142.124 109.843,142.581 109.910 C 143.038 109.977,143.601 110.127,143.831 110.244 C 144.062 110.360,144.662 110.546,145.167 110.658 C 145.671 110.769,146.366 110.966,146.712 111.097 C 147.058 111.227,147.921 111.441,148.629 111.572 C 149.785 111.786,150.726 112.019,153.417 112.758 C 153.875 112.884,154.887 113.072,155.667 113.176 C 156.446 113.280,157.496 113.466,158.000 113.590 C 158.504 113.714,159.592 113.903,160.417 114.009 C 161.242 114.116,161.992 114.261,162.083 114.330 C 162.465 114.619,163.532 114.829,165.417 114.986 C 166.517 115.077,168.242 115.267,169.250 115.407 C 170.258 115.547,171.821 115.738,172.723 115.831 C 173.626 115.924,174.751 116.108,175.223 116.242 C 175.723 116.382,177.584 116.557,179.669 116.658 C 181.641 116.754,183.853 116.902,184.585 116.986 C 191.861 117.826,217.902 117.395,224.000 116.334 C 226.534 115.894,231.849 115.213,234.571 114.982 C 235.481 114.904,236.681 114.692,237.238 114.509 C 237.794 114.327,239.012 114.102,239.942 114.009 C 240.873 113.916,241.965 113.728,242.368 113.591 C 242.772 113.454,243.838 113.260,244.737 113.160 C 245.635 113.060,246.560 112.906,246.791 112.818 C 247.022 112.730,247.557 112.582,247.980 112.488 C 248.404 112.394,249.050 112.176,249.417 112.002 C 249.783 111.829,250.619 111.615,251.274 111.526 C 251.929 111.438,252.717 111.250,253.024 111.108 C 253.332 110.966,254.071 110.765,254.667 110.660 C 255.262 110.556,256.065 110.327,256.449 110.152 C 256.834 109.977,257.474 109.833,257.872 109.833 C 258.270 109.833,258.878 109.690,259.223 109.514 C 259.975 109.131,262.740 108.167,263.087 108.167 C 263.487 108.167,266.153 107.202,266.724 106.851 C 267.013 106.673,267.550 106.476,267.917 106.413 C 268.283 106.349,269.108 106.016,269.750 105.674 C 270.392 105.331,271.291 104.958,271.749 104.846 C 272.207 104.733,272.994 104.391,273.499 104.084 C 274.004 103.778,274.826 103.366,275.327 103.169 C 275.828 102.972,276.428 102.705,276.661 102.577 C 276.893 102.449,277.346 102.230,277.667 102.092 C 277.987 101.953,278.362 101.765,278.500 101.674 C 278.637 101.583,279.012 101.391,279.333 101.248 C 279.654 101.105,280.217 100.805,280.583 100.582 C 280.950 100.358,281.644 99.990,282.125 99.763 C 282.606 99.537,283.000 99.273,283.000 99.176 C 283.000 99.079,283.080 99.000,283.178 99.000 C 283.276 99.000,283.601 98.812,283.902 98.583 C 284.202 98.354,284.577 98.167,284.735 98.167 C 285.086 98.167,285.657 97.880,286.023 97.519 C 286.173 97.371,286.548 97.050,286.856 96.805 C 287.164 96.561,287.829 96.028,288.333 95.622 C 288.837 95.216,289.487 94.762,289.777 94.612 C 290.067 94.462,290.801 93.851,291.407 93.253 C 292.014 92.656,292.582 92.167,292.670 92.167 C 292.758 92.167,292.924 92.017,293.039 91.833 C 293.153 91.650,293.313 91.500,293.393 91.500 C 293.595 91.500,294.833 90.244,294.833 90.039 C 294.833 89.947,295.021 89.749,295.250 89.599 C 295.479 89.449,295.667 89.215,295.667 89.079 C 295.667 88.944,295.777 88.833,295.911 88.833 C 296.045 88.833,296.244 88.665,296.352 88.458 C 296.461 88.252,296.691 87.933,296.863 87.750 C 297.515 87.058,298.130 86.222,298.581 85.417 C 299.070 84.544,299.679 83.554,300.185 82.808 C 300.350 82.565,300.535 82.153,300.595 81.892 C 300.656 81.630,300.891 81.140,301.118 80.803 C 301.901 79.636,302.364 77.286,302.393 74.330 L 302.417 71.909 301.890 71.268 C 301.398 70.670,301.292 70.622,300.307 70.552 C 299.726 70.511,299.133 70.370,298.989 70.240 C 298.846 70.110,298.508 69.927,298.239 69.834 C 297.948 69.732,297.562 69.367,297.287 68.932 C 297.033 68.530,296.413 67.918,295.910 67.571 C 295.407 67.225,294.678 66.528,294.289 66.023 C 293.901 65.517,293.433 64.937,293.250 64.733 C 293.067 64.529,292.767 64.160,292.583 63.913 C 291.355 62.257,290.505 61.659,288.917 61.333 C 288.367 61.220,287.654 60.996,287.333 60.834 C 287.012 60.673,286.507 60.488,286.210 60.424 C 285.913 60.360,285.623 60.231,285.566 60.138 C 285.405 59.878,283.140 58.833,282.736 58.833 C 282.540 58.833,282.096 58.608,281.750 58.333 C 281.404 58.058,281.046 57.833,280.955 57.833 C 280.863 57.833,280.617 57.665,280.409 57.458 C 279.760 56.817,278.288 55.765,277.562 55.424 C 277.275 55.289,276.998 55.070,276.947 54.936 C 276.700 54.292,275.439 53.838,273.442 53.676 C 272.372 53.588,271.428 53.475,271.345 53.424 C 271.262 53.372,270.543 53.217,269.749 53.078 C 268.954 52.940,268.101 52.722,267.853 52.593 C 267.605 52.465,266.940 52.277,266.376 52.174 C 265.369 51.992,263.740 51.292,262.083 50.331 C 261.625 50.066,261.019 49.737,260.737 49.600 C 260.454 49.464,260.130 49.240,260.015 49.101 C 259.900 48.963,259.531 48.761,259.195 48.651 C 258.859 48.541,258.404 48.312,258.186 48.142 C 257.967 47.972,257.682 47.833,257.553 47.833 C 257.423 47.833,257.077 47.706,256.783 47.550 C 256.351 47.320,255.729 47.261,253.500 47.237 C 249.959 47.199,246.784 46.929,245.833 46.585 C 245.421 46.436,244.723 46.244,244.282 46.159 C 243.842 46.074,243.373 45.897,243.241 45.764 C 243.108 45.632,242.583 45.437,242.074 45.331 C 241.565 45.226,240.629 44.845,239.996 44.486 C 237.721 43.197,235.981 42.821,233.917 43.172 C 232.451 43.421,227.601 43.372,225.970 43.091 C 225.207 42.960,224.096 42.805,223.500 42.746 C 222.904 42.688,222.154 42.542,221.833 42.422 C 221.512 42.302,220.650 42.111,219.917 41.998 C 218.456 41.773,216.937 41.380,215.462 40.846 C 214.336 40.438,212.554 40.385,211.775 40.737 C 211.486 40.868,210.264 41.057,209.060 41.159 C 207.855 41.260,206.243 41.453,205.477 41.588 C 203.869 41.871,196.354 41.929,195.250 41.667 C 194.883 41.580,193.432 41.393,192.025 41.250 C 190.413 41.087,189.272 40.889,188.942 40.715 C 188.302 40.378,186.600 40.384,185.780 40.727 C 185.470 40.856,184.886 41.017,184.483 41.084 C 184.080 41.152,183.487 41.339,183.167 41.501 C 182.846 41.663,182.053 41.878,181.405 41.978 C 180.757 42.078,179.903 42.274,179.509 42.414 C 179.085 42.563,178.217 42.667,177.390 42.667 C 176.499 42.667,175.764 42.761,175.370 42.926 C 174.489 43.295,169.167 43.450,166.712 43.179 C 164.710 42.958,162.849 43.266,161.833 43.985 C 161.604 44.148,161.118 44.379,160.754 44.499 C 160.390 44.619,159.865 44.856,159.587 45.025 C 159.310 45.194,158.962 45.332,158.814 45.333 C 158.666 45.333,158.358 45.481,158.129 45.661 C 157.900 45.841,157.358 46.068,156.924 46.165 C 156.491 46.262,155.862 46.458,155.526 46.599 C 154.559 47.008,152.219 47.208,148.000 47.241 L 144.083 47.271 142.838 47.977 C 142.153 48.365,141.478 48.782,141.338 48.904 C 141.198 49.026,140.821 49.257,140.500 49.416 C 140.179 49.575,139.767 49.838,139.583 50.000 C 139.400 50.162,139.063 50.350,138.833 50.417 C 138.604 50.484,138.267 50.670,138.083 50.832 C 137.900 50.993,137.450 51.220,137.083 51.334 C 136.717 51.449,136.229 51.636,136.000 51.750 C 135.381 52.058,132.925 52.779,131.500 53.070 C 130.813 53.211,129.988 53.402,129.668 53.496 C 129.348 53.590,128.598 53.667,128.001 53.669 C 124.935 53.674,125.082 53.341,124.932 60.602 C 124.793 67.327,124.742 67.545,123.203 68.108 L 122.679 68.300 122.741 64.775 C 122.775 62.836,122.791 59.450,122.777 57.250 C 122.727 49.685,122.750 44.244,122.844 41.321 C 122.959 37.764,122.811 35.800,122.619 38.333 M115.520 38.500 C 115.468 39.833,115.162 40.162,113.042 41.156 C 112.652 41.339,112.333 41.563,112.333 41.654 C 112.333 41.849,111.014 42.237,110.864 42.086 C 110.505 41.727,110.766 39.992,111.250 39.520 C 111.743 39.040,113.895 38.000,114.397 38.000 C 114.539 38.000,114.738 37.845,114.839 37.657 C 115.231 36.924,115.564 37.337,115.520 38.500 M189.750 41.764 C 193.511 42.571,205.945 42.600,210.667 41.813 C 213.183 41.394,215.359 41.369,215.945 41.753 C 216.169 41.900,216.928 42.130,217.632 42.265 C 218.337 42.399,219.401 42.653,219.998 42.828 C 223.362 43.814,225.570 44.030,231.667 43.970 L 237.083 43.917 238.843 44.792 C 239.811 45.273,240.692 45.667,240.800 45.667 C 240.908 45.667,241.828 46.003,242.844 46.414 C 243.875 46.831,245.330 47.272,246.137 47.412 C 246.933 47.551,247.846 47.745,248.167 47.845 C 248.487 47.944,250.512 48.065,252.667 48.112 L 256.583 48.199 257.750 48.780 C 258.392 49.100,259.292 49.591,259.750 49.871 C 260.925 50.591,261.823 51.104,262.500 51.444 C 262.821 51.605,263.196 51.822,263.333 51.925 C 263.605 52.130,265.747 52.885,268.000 53.569 C 269.088 53.900,270.026 54.036,272.042 54.155 C 274.260 54.287,274.741 54.364,275.145 54.651 C 275.408 54.839,275.820 55.067,276.062 55.158 C 276.303 55.250,276.500 55.395,276.500 55.479 C 276.500 55.564,276.744 55.786,277.042 55.973 C 277.340 56.160,278.108 56.691,278.750 57.154 C 280.400 58.345,281.504 59.083,282.083 59.384 C 283.774 60.259,285.339 61.000,285.496 61.000 C 285.596 61.000,285.845 61.108,286.048 61.240 C 286.251 61.372,286.942 61.600,287.583 61.748 C 288.225 61.895,289.161 62.218,289.664 62.466 C 290.564 62.910,290.769 63.118,293.471 66.333 C 294.310 67.331,297.014 69.992,297.196 69.997 C 297.257 69.999,297.548 70.202,297.842 70.450 C 298.344 70.872,298.982 71.156,300.873 71.798 C 301.523 72.019,301.696 72.166,301.848 72.627 C 302.209 73.722,301.524 77.917,300.684 79.749 C 300.516 80.116,300.257 80.755,300.107 81.168 C 299.958 81.581,299.592 82.296,299.293 82.757 C 298.994 83.218,298.570 83.930,298.351 84.339 C 298.131 84.748,297.756 85.341,297.518 85.656 C 297.279 85.971,297.008 86.359,296.917 86.519 C 296.158 87.837,291.342 92.508,289.088 94.113 C 288.467 94.555,287.702 95.104,287.390 95.333 C 286.437 96.031,284.131 97.585,283.285 98.098 C 282.846 98.365,282.235 98.745,281.927 98.942 C 281.619 99.139,281.191 99.354,280.976 99.419 C 280.760 99.485,280.433 99.669,280.250 99.828 C 279.718 100.290,276.829 101.744,273.583 103.184 C 271.933 103.916,270.283 104.655,269.917 104.828 C 269.550 105.000,268.875 105.252,268.417 105.389 C 267.958 105.525,266.983 105.872,266.250 106.160 C 264.097 107.006,262.304 107.636,261.500 107.831 C 261.087 107.931,260.487 108.115,260.167 108.240 C 259.400 108.539,256.515 109.403,255.250 109.712 C 254.700 109.847,253.537 110.157,252.667 110.401 C 251.796 110.645,250.408 110.985,249.583 111.157 C 248.758 111.328,247.896 111.550,247.667 111.650 C 247.100 111.897,243.689 112.615,241.250 113.001 C 236.268 113.790,235.013 114.005,234.000 114.244 C 233.404 114.384,232.129 114.566,231.167 114.648 C 230.204 114.730,228.517 114.917,227.417 115.064 C 213.099 116.978,187.429 117.196,175.833 115.502 C 175.237 115.415,174.225 115.297,173.583 115.241 C 172.942 115.184,172.139 115.067,171.799 114.981 C 171.459 114.895,169.984 114.714,168.522 114.580 C 167.059 114.446,165.680 114.267,165.456 114.182 C 165.233 114.097,164.219 113.905,163.204 113.755 C 162.189 113.606,161.116 113.415,160.821 113.330 C 160.526 113.245,159.676 113.093,158.934 112.992 C 157.421 112.787,153.693 111.999,151.917 111.509 C 151.275 111.333,150.412 111.142,150.000 111.085 C 149.587 111.029,148.987 110.874,148.667 110.742 C 148.346 110.609,147.596 110.392,147.000 110.260 C 144.761 109.764,141.013 108.712,140.000 108.296 C 139.771 108.202,138.908 107.946,138.083 107.727 C 137.258 107.508,136.328 107.260,136.015 107.176 C 135.702 107.092,135.236 106.868,134.979 106.678 C 134.722 106.488,134.116 106.248,133.631 106.146 C 133.147 106.043,132.443 105.781,132.069 105.563 C 131.694 105.345,131.280 105.167,131.150 105.167 C 131.019 105.167,130.650 105.027,130.331 104.856 C 130.011 104.684,129.509 104.492,129.215 104.427 C 128.920 104.363,128.133 104.030,127.465 103.689 C 126.797 103.348,125.950 102.946,125.583 102.796 C 125.217 102.646,124.729 102.410,124.500 102.272 C 123.926 101.926,122.224 101.167,122.023 101.167 C 121.933 101.167,121.639 100.982,121.370 100.756 C 121.102 100.529,120.333 100.065,119.662 99.725 C 118.990 99.384,118.061 98.848,117.596 98.534 C 117.131 98.219,116.375 97.783,115.917 97.563 C 115.458 97.344,114.619 96.808,114.051 96.374 C 113.484 95.939,112.464 95.190,111.785 94.709 C 110.637 93.896,108.417 92.049,106.676 90.459 C 105.610 89.484,103.583 87.123,102.871 86.026 C 102.535 85.507,102.070 84.857,101.838 84.581 C 101.402 84.061,100.653 82.595,100.007 81.000 C 99.803 80.496,99.497 79.783,99.326 79.417 C 97.964 76.486,97.789 73.204,98.963 72.606 C 100.222 71.966,100.497 72.283,100.499 74.373 C 100.503 78.638,105.971 80.948,109.119 78.014 C 110.217 76.992,110.667 75.821,110.667 73.990 C 110.667 72.287,110.747 71.833,111.051 71.833 C 111.151 71.833,111.736 71.496,112.351 71.083 C 112.965 70.671,113.545 70.333,113.638 70.333 C 113.731 70.333,114.020 70.158,114.279 69.943 C 115.489 68.942,116.846 68.542,117.470 69.004 C 117.920 69.337,118.944 69.590,120.592 69.775 C 121.934 69.925,123.489 69.311,124.523 68.222 C 125.770 66.910,125.741 67.080,125.833 60.550 C 125.887 56.776,125.979 54.620,126.092 54.508 C 126.189 54.411,127.464 54.256,128.925 54.163 C 130.387 54.070,131.921 53.891,132.333 53.766 C 132.746 53.640,133.383 53.485,133.750 53.421 C 134.117 53.356,134.754 53.129,135.167 52.916 C 135.579 52.703,136.479 52.323,137.167 52.072 C 137.854 51.821,138.604 51.489,138.833 51.335 C 139.063 51.180,139.822 50.742,140.522 50.360 C 141.221 49.978,141.887 49.553,142.001 49.416 C 142.114 49.279,142.300 49.167,142.412 49.167 C 142.525 49.167,142.984 48.965,143.434 48.718 C 144.237 48.278,144.309 48.269,147.832 48.212 C 150.168 48.174,151.820 48.068,152.582 47.905 C 153.224 47.768,154.375 47.544,155.140 47.408 C 155.904 47.271,156.744 47.049,157.007 46.913 C 157.269 46.778,157.580 46.667,157.698 46.667 C 157.815 46.667,158.288 46.487,158.748 46.267 C 164.118 43.701,162.966 43.942,169.917 43.928 C 174.589 43.919,175.817 43.867,176.917 43.633 C 177.650 43.477,178.993 43.232,179.902 43.088 C 180.811 42.945,181.898 42.722,182.319 42.593 C 182.739 42.464,183.758 42.157,184.583 41.912 C 185.408 41.667,186.158 41.442,186.250 41.413 C 186.736 41.258,187.963 41.381,189.750 41.764 M110.104 46.602 C 109.054 47.315,108.424 47.418,107.788 46.981 L 107.250 46.611 107.805 47.203 L 108.361 47.794 109.139 47.362 C 110.171 46.787,111.084 46.167,110.895 46.167 C 110.812 46.167,110.456 46.362,110.104 46.602 M117.147 46.810 C 116.929 46.981,116.590 47.171,116.395 47.232 C 116.200 47.293,115.825 47.528,115.562 47.755 C 115.299 47.982,114.596 48.436,114.000 48.763 C 112.913 49.361,112.226 49.774,110.833 50.668 C 110.421 50.933,109.648 51.391,109.117 51.686 C 108.585 51.981,107.991 52.453,107.797 52.736 L 107.443 53.250 107.939 52.792 C 108.212 52.540,108.520 52.333,108.623 52.333 C 108.727 52.333,109.428 51.921,110.181 51.417 C 110.934 50.913,111.943 50.315,112.423 50.088 C 112.902 49.861,113.335 49.571,113.384 49.442 C 113.433 49.314,113.676 49.159,113.923 49.097 C 114.312 48.999,115.580 48.141,115.837 47.802 C 115.884 47.739,116.270 47.539,116.693 47.358 C 117.117 47.176,117.513 46.947,117.574 46.848 C 117.760 46.547,118.648 47.117,118.774 47.619 C 118.835 47.864,118.839 50.376,118.781 53.201 L 118.677 58.339 118.213 58.920 C 117.959 59.240,117.512 59.580,117.222 59.676 C 116.931 59.772,116.597 59.967,116.479 60.109 C 116.360 60.252,116.111 60.438,115.924 60.524 C 115.736 60.609,115.133 60.974,114.583 61.334 C 114.033 61.694,113.283 62.143,112.917 62.331 C 111.889 62.860,111.519 63.092,111.119 63.458 C 110.916 63.643,110.563 63.850,110.333 63.917 C 110.104 63.984,109.754 64.187,109.556 64.368 C 108.951 64.921,108.178 64.850,107.813 64.207 C 107.536 63.718,107.500 63.168,107.458 58.707 L 107.412 53.750 107.372 59.049 L 107.333 64.348 107.758 64.774 C 108.090 65.106,108.282 65.174,108.632 65.086 C 109.081 64.973,109.329 64.831,111.667 63.348 C 112.354 62.911,113.498 62.235,114.208 61.846 C 114.918 61.456,115.541 61.068,115.593 60.984 C 115.646 60.899,116.232 60.532,116.897 60.167 C 117.561 59.802,118.288 59.309,118.511 59.072 L 118.917 58.640 118.970 53.278 C 119.026 47.530,118.950 46.782,118.291 46.605 C 117.716 46.451,117.576 46.476,117.147 46.810 M91.680 48.158 C 91.673 48.290,91.462 48.628,91.212 48.908 L 90.758 49.417 91.316 48.893 C 91.625 48.603,91.833 48.269,91.783 48.143 C 91.711 47.961,91.690 47.964,91.680 48.158 M103.535 60.587 C 103.553 65.401,103.624 69.430,103.692 69.540 C 103.759 69.650,103.800 65.711,103.783 60.787 C 103.765 55.862,103.694 51.833,103.626 51.833 C 103.558 51.833,103.517 55.772,103.535 60.587 M116.892 64.377 C 116.696 64.491,116.096 64.876,115.559 65.234 C 114.296 66.075,112.783 67.031,111.284 67.935 C 108.384 69.682,107.333 70.510,107.333 71.047 C 107.333 71.140,107.505 70.961,107.714 70.650 C 107.924 70.338,108.555 69.821,109.118 69.500 C 111.158 68.336,113.902 66.642,116.209 65.125 C 118.246 63.785,118.679 63.983,118.817 66.323 C 118.926 68.162,119.023 68.337,119.917 68.316 L 120.417 68.305 119.917 68.156 C 119.170 67.933,119.000 67.576,119.000 66.229 C 119.000 64.235,118.264 63.588,116.892 64.377 M103.566 72.667 C 103.566 73.996,103.592 74.540,103.624 73.875 C 103.655 73.210,103.655 72.123,103.624 71.458 C 103.592 70.794,103.566 71.337,103.566 72.667 M107.333 74.796 C 107.333 77.324,107.232 77.501,105.782 77.498 C 104.453 77.495,104.078 77.387,103.864 76.944 C 103.694 76.594,103.689 76.596,103.678 77.021 C 103.653 77.990,106.475 78.395,107.181 77.523 C 107.482 77.152,107.699 72.833,107.417 72.833 C 107.371 72.833,107.333 73.717,107.333 74.796 " stroke="none" fill="#97def4" fill-rule="evenodd"></path><path id="path4" d="M111.500 18.668 C 108.823 19.129,105.971 21.257,104.646 23.782 C 104.463 24.131,104.206 24.604,104.076 24.833 C 103.699 25.495,103.784 25.980,104.375 26.529 C 104.673 26.805,105.142 27.241,105.417 27.497 C 106.728 28.719,107.166 28.650,107.167 27.219 C 107.169 25.638,108.824 23.497,110.764 22.566 C 113.823 21.099,116.999 22.382,118.441 25.667 L 118.917 26.750 118.917 33.858 C 118.917 42.033,119.104 41.155,117.083 42.460 C 116.442 42.875,115.779 43.335,115.610 43.482 C 115.442 43.629,114.804 44.030,114.194 44.371 C 112.096 45.545,111.582 45.845,110.833 46.329 C 110.421 46.595,109.694 47.033,109.219 47.302 L 108.354 47.790 107.930 47.347 C 107.426 46.821,107.335 45.530,107.263 37.917 C 107.238 35.179,107.150 33.221,107.039 32.917 C 106.204 30.631,104.711 28.451,103.593 27.884 C 103.313 27.741,102.982 27.544,102.858 27.445 C 101.224 26.137,96.492 25.742,94.556 26.751 C 94.296 26.887,93.981 26.998,93.855 26.999 C 93.556 27.000,91.871 28.036,91.315 28.560 C 88.483 31.230,87.894 33.699,88.056 42.213 C 88.174 48.437,88.183 48.493,89.263 49.227 C 89.963 49.702,90.538 49.577,91.298 48.783 L 91.750 48.311 91.700 42.530 C 91.643 35.941,91.796 34.275,92.583 32.932 C 95.190 28.484,101.376 28.668,103.275 33.250 L 103.689 34.250 103.734 55.500 C 103.779 77.364,103.775 77.234,104.387 77.398 C 106.920 78.077,107.333 77.575,107.333 73.819 C 107.333 70.118,107.112 70.449,111.284 67.935 C 111.723 67.670,112.365 67.276,112.708 67.060 C 113.052 66.844,113.615 66.491,113.958 66.275 C 114.302 66.060,115.022 65.591,115.559 65.234 C 117.059 64.234,117.199 64.172,117.962 64.169 C 118.841 64.166,119.000 64.476,119.000 66.188 C 119.000 67.775,119.750 68.613,120.857 68.266 C 120.982 68.226,121.288 68.150,121.539 68.095 C 122.542 67.875,122.494 68.937,122.510 46.888 C 122.519 33.728,122.465 26.432,122.353 25.833 C 121.398 20.730,116.874 17.743,111.500 18.668 M115.890 19.448 C 116.668 19.635,117.259 19.873,117.350 20.035 C 117.433 20.185,117.736 20.359,118.022 20.421 C 118.621 20.553,120.190 22.085,120.505 22.846 C 120.618 23.118,120.813 23.398,120.938 23.468 C 121.063 23.538,121.247 24.041,121.348 24.586 C 121.449 25.131,121.630 25.767,121.750 26.000 C 122.010 26.503,122.042 29.613,122.017 52.031 L 122.000 67.313 121.262 67.424 C 119.936 67.622,119.130 67.192,119.508 66.486 C 119.785 65.967,119.382 64.172,118.879 63.687 L 118.468 63.290 117.467 63.593 C 116.917 63.760,116.201 64.107,115.877 64.365 C 115.553 64.622,115.188 64.833,115.066 64.833 C 114.945 64.833,114.765 64.983,114.667 65.167 C 114.561 65.364,114.318 65.500,114.070 65.500 C 113.839 65.500,113.486 65.676,113.284 65.891 C 113.082 66.106,112.710 66.332,112.458 66.394 C 112.206 66.456,112.000 66.616,112.000 66.751 C 112.000 66.885,111.733 67.107,111.407 67.243 C 111.081 67.380,110.621 67.643,110.384 67.829 C 110.148 68.015,109.791 68.167,109.591 68.167 C 109.391 68.167,109.064 68.354,108.864 68.583 C 108.665 68.812,108.408 69.001,108.293 69.003 C 108.178 69.004,107.797 69.296,107.447 69.652 L 106.810 70.298 106.825 73.402 L 106.841 76.505 106.421 76.665 C 106.189 76.753,106.000 76.899,106.000 76.989 C 106.000 77.079,105.775 77.138,105.500 77.118 C 105.226 77.099,105.001 76.988,105.000 76.871 C 105.000 76.755,104.813 76.574,104.585 76.470 C 104.256 76.321,104.209 76.233,104.360 76.051 C 104.504 75.878,104.499 75.545,104.341 74.702 C 104.196 73.934,104.164 72.851,104.237 71.250 C 104.380 68.133,104.374 68.905,104.358 57.500 C 104.351 51.954,104.353 46.629,104.364 45.667 C 104.447 38.356,104.078 32.715,103.475 32.083 C 103.301 31.900,102.827 31.400,102.422 30.973 C 102.018 30.545,101.525 30.144,101.327 30.081 C 101.129 30.018,100.830 29.830,100.662 29.662 C 99.996 28.996,95.847 28.991,95.309 29.656 C 95.155 29.845,94.915 30.000,94.775 30.000 C 94.248 30.000,91.833 32.471,91.833 33.011 C 91.833 33.106,91.673 33.536,91.478 33.966 C 91.018 34.974,90.981 35.591,90.946 42.667 L 90.917 48.583 90.520 48.639 C 88.763 48.888,88.814 49.111,88.826 41.144 C 88.837 34.045,88.867 33.562,89.361 32.750 C 89.529 32.475,89.666 32.087,89.666 31.888 C 89.666 31.689,89.854 31.303,90.083 31.030 C 90.313 30.758,90.500 30.452,90.500 30.351 C 90.500 30.146,91.761 28.833,91.958 28.833 C 92.027 28.833,92.301 28.646,92.568 28.416 C 92.834 28.187,93.153 28.000,93.276 28.000 C 93.399 28.000,93.654 27.846,93.842 27.658 C 94.097 27.403,94.540 27.276,95.596 27.156 C 96.373 27.068,97.319 26.888,97.699 26.757 C 98.306 26.549,98.463 26.551,98.987 26.774 C 99.315 26.914,100.065 27.098,100.653 27.184 C 101.409 27.294,101.791 27.437,101.954 27.669 C 102.085 27.857,102.468 28.044,102.842 28.104 C 103.261 28.171,103.500 28.298,103.500 28.454 C 103.500 28.588,103.653 28.738,103.840 28.787 C 104.027 28.836,104.291 29.091,104.428 29.355 C 104.564 29.618,104.786 29.833,104.921 29.833 C 105.056 29.833,105.167 29.973,105.167 30.143 C 105.167 30.314,105.350 30.723,105.574 31.053 C 105.797 31.383,106.060 32.081,106.157 32.605 C 106.253 33.129,106.445 33.729,106.583 33.940 C 106.795 34.263,106.833 35.345,106.833 41.046 C 106.833 48.822,106.753 48.411,108.269 48.358 C 109.086 48.329,109.307 48.255,109.590 47.912 C 109.776 47.685,110.016 47.500,110.123 47.500 C 110.229 47.500,110.518 47.313,110.766 47.083 C 111.013 46.854,111.373 46.666,111.566 46.664 C 112.002 46.661,112.243 46.502,112.382 46.125 C 112.444 45.956,112.661 45.833,112.899 45.833 C 113.124 45.833,113.531 45.646,113.803 45.417 C 114.075 45.188,114.414 45.000,114.556 45.000 C 114.698 45.000,114.927 44.839,115.065 44.642 C 115.316 44.284,116.210 43.677,117.000 43.328 C 117.229 43.227,117.567 43.004,117.750 42.833 C 117.933 42.662,118.291 42.444,118.544 42.348 C 119.345 42.044,119.722 40.630,119.570 38.500 C 119.508 37.629,119.466 36.542,119.477 36.083 C 119.662 28.455,119.496 25.914,118.743 24.824 C 118.518 24.499,118.333 24.150,118.333 24.050 C 118.333 23.861,117.472 22.990,116.556 22.252 C 115.448 21.360,110.955 21.282,110.155 22.141 C 109.971 22.338,109.712 22.500,109.579 22.500 C 109.246 22.500,107.847 23.970,107.728 24.445 C 107.674 24.659,107.560 24.833,107.473 24.833 C 107.252 24.833,106.895 25.772,106.760 26.708 C 106.638 27.554,105.980 27.883,105.761 27.208 C 105.709 27.048,105.403 26.640,105.082 26.301 L 104.497 25.686 104.768 24.885 C 104.916 24.444,105.142 24.023,105.269 23.950 C 105.396 23.877,105.500 23.720,105.500 23.602 C 105.500 23.362,106.659 21.788,106.915 21.681 C 107.006 21.643,107.365 21.324,107.713 20.973 C 108.061 20.621,108.507 20.333,108.704 20.333 C 108.901 20.333,109.222 20.183,109.418 19.999 C 109.661 19.771,110.158 19.617,110.990 19.512 C 111.660 19.428,112.292 19.274,112.395 19.169 C 112.643 18.918,114.207 19.043,115.890 19.448 M114.850 37.636 C 114.714 37.889,114.748 38.022,115.006 38.256 C 115.396 38.608,115.449 38.574,115.525 37.920 C 115.595 37.324,115.123 37.126,114.850 37.636 M120.066 45.264 C 120.121 45.409,120.172 45.652,120.178 45.805 C 120.188 46.027,120.219 46.016,120.333 45.750 C 120.556 45.233,120.524 45.000,120.232 45.000 C 120.056 45.000,119.999 45.091,120.066 45.264 M116.833 46.333 C 116.513 46.507,116.063 46.743,115.833 46.858 C 115.604 46.973,115.192 47.221,114.917 47.408 C 114.429 47.741,114.221 47.864,112.878 48.613 C 112.520 48.812,112.130 49.094,112.010 49.238 C 111.890 49.382,111.657 49.500,111.492 49.500 C 111.327 49.500,110.969 49.688,110.697 49.917 C 110.425 50.146,110.080 50.333,109.931 50.333 C 109.782 50.333,109.576 50.516,109.475 50.739 C 109.346 51.020,109.105 51.177,108.687 51.249 C 107.986 51.371,107.235 51.966,106.998 52.588 C 106.765 53.202,106.780 64.630,107.015 65.305 C 107.320 66.179,109.167 66.344,109.167 65.496 C 109.167 65.407,109.276 65.333,109.409 65.333 C 109.821 65.333,110.500 64.958,110.500 64.730 C 110.500 64.610,110.797 64.433,111.159 64.335 C 111.522 64.238,111.942 64.034,112.094 63.882 C 112.363 63.613,112.538 63.505,114.027 62.686 C 114.425 62.467,114.789 62.228,114.837 62.155 C 114.884 62.081,115.109 61.939,115.337 61.840 C 115.564 61.740,116.005 61.473,116.316 61.246 C 116.628 61.019,117.059 60.833,117.275 60.833 C 117.513 60.833,117.667 60.735,117.667 60.582 C 117.667 60.444,117.959 60.214,118.315 60.071 C 119.153 59.736,119.969 58.129,119.698 57.350 C 119.608 57.094,119.574 56.537,119.622 56.112 C 119.672 55.672,119.621 55.126,119.504 54.844 C 119.333 54.431,119.347 54.225,119.587 53.596 C 119.829 52.964,119.844 52.720,119.685 52.086 C 119.561 51.596,119.533 50.687,119.605 49.503 C 119.675 48.353,119.654 47.598,119.548 47.464 C 119.455 47.346,119.332 47.051,119.274 46.808 C 119.087 46.026,117.844 45.784,116.833 46.333 M118.291 46.605 C 118.950 46.782,119.026 47.530,118.970 53.278 L 118.917 58.640 118.511 59.072 C 118.288 59.309,117.561 59.802,116.897 60.167 C 116.232 60.532,115.646 60.899,115.593 60.984 C 115.541 61.068,114.918 61.456,114.208 61.846 C 113.498 62.235,112.354 62.911,111.667 63.348 C 109.329 64.831,109.081 64.973,108.632 65.086 C 108.282 65.174,108.090 65.106,107.758 64.774 L 107.333 64.348 107.333 58.880 L 107.333 53.411 107.735 52.820 C 107.958 52.491,108.568 51.990,109.110 51.689 C 109.645 51.392,110.421 50.933,110.833 50.668 C 112.226 49.774,112.913 49.361,114.000 48.763 C 114.596 48.436,115.299 47.982,115.562 47.755 C 115.825 47.528,116.200 47.293,116.395 47.232 C 116.590 47.171,116.929 46.981,117.147 46.810 C 117.576 46.476,117.716 46.451,118.291 46.605 " stroke="none" fill="#878289" fill-rule="evenodd"></path></g></svg>
