<svg xmlns="http://www.w3.org/2000/svg" xmlns:xlink="http://www.w3.org/1999/xlink" width="250" zoomAndPan="magnify" viewBox="0 0 187.5 37.5" height="50" preserveAspectRatio="xMidYMid meet" version="1.0"><defs><clipPath id="bbb118e3ae"><path d="M 0.988281 0 L 186.019531 0 L 186.019531 37.007812 L 0.988281 37.007812 Z M 0.988281 0 " clip-rule="nonzero"/></clipPath><clipPath id="41eb73081a"><path d="M 167 7 L 183.515625 7 L 183.515625 30 L 167 30 Z M 167 7 " clip-rule="nonzero"/></clipPath><clipPath id="8415e3d3c3"><path d="M 12 3.699219 L 21 3.699219 L 21 12 L 12 12 Z M 12 3.699219 " clip-rule="nonzero"/></clipPath><clipPath id="3459aefde8"><path d="M 3.664062 9 L 31 9 L 31 33.304688 L 3.664062 33.304688 Z M 3.664062 9 " clip-rule="nonzero"/></clipPath></defs><g clip-path="url(#bbb118e3ae)"><path fill="#ffffff" d="M 0.988281 0 L 186.019531 0 L 186.019531 37.007812 L 0.988281 37.007812 Z M 0.988281 0 " fill-opacity="1" fill-rule="nonzero"/><path fill="#ffffff" d="M 0.988281 0 L 186.019531 0 L 186.019531 37.007812 L 0.988281 37.007812 Z M 0.988281 0 " fill-opacity="1" fill-rule="nonzero"/></g><path fill="#ff9100" d="M 36.304688 29.59375 L 36.304688 7.808594 L 45.394531 7.808594 C 47.003906 7.808594 48.378906 8.058594 49.492188 8.558594 C 50.605469 9.058594 51.453125 9.746094 52.027344 10.628906 C 52.59375 11.511719 52.875 12.539062 52.875 13.714844 C 52.875 14.625 52.714844 15.433594 52.375 16.167969 C 52.039062 16.902344 51.542969 17.503906 50.867188 18.003906 C 50.195312 18.503906 49.390625 18.839844 48.425781 19.03125 L 48.425781 19.222656 C 49.15625 19.398438 49.773438 19.691406 50.269531 20.105469 C 50.769531 20.515625 51.175781 21.015625 51.5 21.585938 C 51.835938 22.175781 52.128906 22.878906 52.390625 23.730469 L 54.25 29.578125 L 49.625 29.578125 L 47.984375 24.378906 C 47.75 23.542969 47.472656 22.894531 47.152344 22.421875 C 46.832031 21.953125 46.421875 21.617188 45.894531 21.410156 C 45.367188 21.203125 44.691406 21.085938 43.84375 21.085938 L 40.828125 21.085938 L 40.828125 29.5625 L 36.304688 29.5625 Z M 44.617188 17.605469 C 45.378906 17.605469 46.039062 17.488281 46.609375 17.269531 C 47.164062 17.046875 47.605469 16.695312 47.914062 16.222656 C 48.21875 15.753906 48.378906 15.167969 48.378906 14.492188 C 48.378906 13.8125 48.21875 13.226562 47.914062 12.773438 C 47.605469 12.316406 47.164062 11.980469 46.609375 11.773438 C 46.050781 11.570312 45.378906 11.449219 44.617188 11.449219 L 40.828125 11.449219 L 40.828125 17.621094 L 44.617188 17.621094 Z M 44.617188 17.605469 " fill-opacity="1" fill-rule="nonzero"/><path fill="#ff9100" d="M 63.207031 29.960938 C 61.566406 29.960938 60.089844 29.59375 58.773438 28.875 C 57.441406 28.152344 56.402344 27.125 55.640625 25.804688 C 54.878906 24.480469 54.496094 22.96875 54.496094 21.265625 C 54.496094 19.558594 54.878906 18.0625 55.625 16.738281 C 56.371094 15.417969 57.421875 14.375 58.742188 13.640625 C 60.074219 12.890625 61.566406 12.523438 63.234375 12.523438 C 64.902344 12.523438 66.394531 12.890625 67.710938 13.640625 C 69.027344 14.375 70.070312 15.417969 70.816406 16.738281 C 71.5625 18.0625 71.941406 19.574219 71.941406 21.277344 C 71.941406 22.984375 71.5625 24.480469 70.800781 25.804688 C 70.039062 27.125 69 28.152344 67.683594 28.886719 C 66.351562 29.59375 64.859375 29.960938 63.203125 29.960938 Z M 63.207031 26.332031 C 64.039062 26.332031 64.785156 26.125 65.445312 25.714844 C 66.101562 25.304688 66.628906 24.714844 67.023438 23.953125 C 67.40625 23.1875 67.609375 22.292969 67.609375 21.265625 C 67.609375 20.234375 67.421875 19.351562 67.039062 18.574219 C 66.660156 17.8125 66.132812 17.210938 65.472656 16.796875 C 64.816406 16.386719 64.054688 16.167969 63.21875 16.167969 C 62.386719 16.167969 61.640625 16.371094 60.980469 16.796875 C 60.324219 17.210938 59.796875 17.8125 59.414062 18.574219 C 59.035156 19.339844 58.84375 20.25 58.84375 21.277344 C 58.84375 22.308594 59.035156 23.1875 59.429688 23.953125 C 59.8125 24.714844 60.335938 25.304688 60.996094 25.714844 C 61.625 26.125 62.371094 26.332031 63.207031 26.332031 Z M 63.207031 26.332031 " fill-opacity="1" fill-rule="nonzero"/><path fill="#ff9100" d="M 81.878906 29.960938 C 80.242188 29.960938 78.761719 29.59375 77.445312 28.875 C 76.113281 28.152344 75.074219 27.125 74.3125 25.804688 C 73.550781 24.480469 73.171875 22.96875 73.171875 21.265625 C 73.171875 19.558594 73.550781 18.0625 74.296875 16.738281 C 75.042969 15.417969 76.097656 14.375 77.414062 13.640625 C 78.746094 12.890625 80.238281 12.523438 81.90625 12.523438 C 83.574219 12.523438 85.070312 12.890625 86.386719 13.640625 C 87.703125 14.375 88.742188 15.417969 89.488281 16.738281 C 90.234375 18.0625 90.617188 19.574219 90.617188 21.277344 C 90.617188 22.984375 90.234375 24.480469 89.472656 25.804688 C 88.710938 27.125 87.675781 28.152344 86.355469 28.886719 C 85.023438 29.59375 83.53125 29.960938 81.878906 29.960938 Z M 81.878906 26.332031 C 82.710938 26.332031 83.460938 26.125 84.117188 25.714844 C 84.777344 25.304688 85.304688 24.714844 85.699219 23.953125 C 86.078125 23.1875 86.285156 22.292969 86.285156 21.265625 C 86.285156 20.234375 86.09375 19.351562 85.714844 18.574219 C 85.332031 17.8125 84.808594 17.210938 84.148438 16.796875 C 83.488281 16.386719 82.726562 16.167969 81.894531 16.167969 C 81.058594 16.167969 80.3125 16.371094 79.65625 16.796875 C 78.996094 17.210938 78.46875 17.8125 78.089844 18.574219 C 77.707031 19.339844 77.519531 20.25 77.519531 21.277344 C 77.519531 22.308594 77.707031 23.1875 78.105469 23.953125 C 78.484375 24.714844 79.011719 25.304688 79.671875 25.714844 C 80.300781 26.125 81.046875 26.332031 81.878906 26.332031 Z M 81.878906 26.332031 " fill-opacity="1" fill-rule="nonzero"/><path fill="#ff9100" d="M 99.542969 29.859375 C 98.152344 29.859375 97.039062 29.636719 96.234375 29.195312 C 95.414062 28.753906 94.84375 28.152344 94.523438 27.417969 C 94.1875 26.671875 94.023438 25.789062 94.023438 24.773438 L 94.023438 16.269531 L 91.082031 16.269531 L 91.082031 12.847656 L 94.023438 12.847656 L 94.023438 8.660156 L 98.3125 8.660156 L 98.3125 12.847656 L 102.175781 12.847656 L 102.175781 16.257812 L 98.3125 16.257812 L 98.3125 24.539062 C 98.3125 25.113281 98.488281 25.554688 98.839844 25.863281 C 99.191406 26.171875 99.761719 26.316406 100.550781 26.316406 C 101.050781 26.316406 101.574219 26.257812 102.132812 26.15625 L 102.132812 29.445312 C 101.328125 29.726562 100.464844 29.859375 99.542969 29.859375 Z M 99.542969 29.859375 " fill-opacity="1" fill-rule="nonzero"/><path fill="#ff9100" d="M 110.3125 29.976562 C 108.46875 29.976562 106.929688 29.566406 105.703125 28.742188 C 104.472656 27.917969 103.636719 26.742188 103.199219 25.203125 L 106.714844 24.011719 C 107.007812 24.878906 107.460938 25.554688 108.058594 26.023438 C 108.660156 26.496094 109.40625 26.730469 110.269531 26.730469 C 111.132812 26.730469 111.804688 26.570312 112.261719 26.261719 C 112.714844 25.953125 112.933594 25.527344 112.933594 25.027344 C 112.933594 24.617188 112.832031 24.277344 112.625 24.042969 C 112.421875 23.792969 112.070312 23.585938 111.585938 23.394531 C 111.105469 23.21875 110.402344 23.027344 109.507812 22.824219 C 108.105469 22.515625 106.992188 22.164062 106.1875 21.765625 C 105.382812 21.371094 104.78125 20.871094 104.402344 20.238281 C 104.019531 19.605469 103.816406 18.828125 103.816406 17.859375 C 103.816406 16.785156 104.09375 15.859375 104.636719 15.050781 C 105.175781 14.246094 105.953125 13.628906 106.976562 13.171875 C 108 12.730469 109.171875 12.511719 110.503906 12.511719 C 111.671875 12.511719 112.714844 12.671875 113.621094 13.011719 C 114.527344 13.347656 115.257812 13.847656 115.84375 14.507812 C 116.429688 15.171875 116.839844 15.976562 117.058594 16.917969 L 113.578125 18.09375 C 113.328125 17.359375 112.933594 16.785156 112.421875 16.359375 C 111.894531 15.949219 111.265625 15.726562 110.535156 15.726562 C 110.023438 15.726562 109.582031 15.785156 109.203125 15.917969 C 108.820312 16.050781 108.53125 16.242188 108.324219 16.492188 C 108.117188 16.738281 108.015625 17.035156 108.015625 17.371094 C 108.015625 17.753906 108.105469 18.0625 108.292969 18.28125 C 108.46875 18.503906 108.804688 18.695312 109.277344 18.855469 C 109.742188 19.015625 110.429688 19.195312 111.324219 19.382812 C 112.800781 19.707031 113.972656 20.058594 114.808594 20.457031 C 115.640625 20.839844 116.269531 21.351562 116.664062 21.96875 C 117.0625 22.601562 117.265625 23.394531 117.265625 24.394531 C 117.265625 25.523438 117.003906 26.492188 116.460938 27.328125 C 115.917969 28.152344 115.128906 28.800781 114.089844 29.269531 C 113.050781 29.738281 111.792969 29.972656 110.3125 29.972656 Z M 110.3125 29.976562 " fill-opacity="1" fill-rule="nonzero"/><path fill="#ff9100" d="M 126.308594 29.859375 C 124.917969 29.859375 123.804688 29.636719 123 29.195312 C 122.179688 28.753906 121.609375 28.152344 121.289062 27.417969 C 120.953125 26.671875 120.789062 25.789062 120.789062 24.773438 L 120.789062 16.269531 L 117.851562 16.269531 L 117.851562 12.847656 L 120.789062 12.847656 L 120.789062 8.660156 L 125.078125 8.660156 L 125.078125 12.847656 L 128.941406 12.847656 L 128.941406 16.257812 L 125.078125 16.257812 L 125.078125 24.539062 C 125.078125 25.113281 125.253906 25.554688 125.605469 25.863281 C 125.957031 26.171875 126.527344 26.316406 127.316406 26.316406 C 127.816406 26.316406 128.34375 26.257812 128.898438 26.15625 L 128.898438 29.445312 C 128.09375 29.726562 127.230469 29.859375 126.308594 29.859375 Z M 126.308594 29.859375 " fill-opacity="1" fill-rule="nonzero"/><path fill="#ff9100" d="M 138.6875 29.960938 C 137.050781 29.960938 135.570312 29.59375 134.253906 28.875 C 132.921875 28.152344 131.882812 27.125 131.121094 25.804688 C 130.359375 24.480469 129.980469 22.96875 129.980469 21.265625 C 129.980469 19.558594 130.359375 18.0625 131.105469 16.738281 C 131.851562 15.417969 132.90625 14.375 134.222656 13.640625 C 135.554688 12.890625 137.046875 12.523438 138.71875 12.523438 C 140.386719 12.523438 141.878906 12.890625 143.195312 13.640625 C 144.511719 14.375 145.550781 15.417969 146.296875 16.738281 C 147.042969 18.0625 147.425781 19.574219 147.425781 21.277344 C 147.425781 22.984375 147.042969 24.480469 146.28125 25.804688 C 145.523438 27.125 144.484375 28.152344 143.164062 28.886719 C 141.835938 29.59375 140.355469 29.960938 138.6875 29.960938 Z M 138.6875 26.332031 C 139.523438 26.332031 140.269531 26.125 140.925781 25.714844 C 141.585938 25.304688 142.113281 24.714844 142.507812 23.953125 C 142.890625 23.1875 143.09375 22.292969 143.09375 21.265625 C 143.09375 20.234375 142.902344 19.351562 142.523438 18.574219 C 142.140625 17.8125 141.617188 17.210938 140.957031 16.796875 C 140.296875 16.386719 139.535156 16.167969 138.703125 16.167969 C 137.871094 16.167969 137.121094 16.371094 136.464844 16.796875 C 135.804688 17.210938 135.277344 17.8125 134.898438 18.574219 C 134.519531 19.339844 134.328125 20.25 134.328125 21.277344 C 134.328125 22.308594 134.519531 23.1875 134.914062 23.953125 C 135.292969 24.714844 135.820312 25.304688 136.480469 25.714844 C 137.125 26.125 137.855469 26.332031 138.691406 26.332031 Z M 138.6875 26.332031 " fill-opacity="1" fill-rule="nonzero"/><path fill="#ff9100" d="M 157.742188 29.976562 C 156.191406 29.976562 154.757812 29.652344 153.441406 28.992188 C 152.109375 28.328125 151.054688 27.347656 150.25 26.039062 C 149.445312 24.730469 149.046875 23.160156 149.046875 21.335938 C 149.046875 19.515625 149.429688 17.972656 150.203125 16.636719 C 150.980469 15.300781 152.019531 14.285156 153.335938 13.566406 C 154.652344 12.847656 156.117188 12.496094 157.710938 12.496094 C 159.027344 12.496094 160.214844 12.742188 161.265625 13.242188 C 162.320312 13.742188 163.214844 14.417969 163.917969 15.285156 C 164.621094 16.152344 165.132812 17.136719 165.425781 18.238281 L 161.722656 19.308594 C 161.546875 18.691406 161.265625 18.148438 160.917969 17.679688 C 160.566406 17.210938 160.128906 16.828125 159.613281 16.546875 C 159.101562 16.269531 158.503906 16.136719 157.84375 16.136719 C 156.964844 16.136719 156.175781 16.355469 155.488281 16.785156 C 154.800781 17.210938 154.257812 17.8125 153.878906 18.589844 C 153.496094 19.367188 153.292969 20.265625 153.292969 21.261719 C 153.292969 22.261719 153.496094 23.203125 153.90625 23.964844 C 154.316406 24.730469 154.875 25.316406 155.5625 25.714844 C 156.25 26.109375 156.996094 26.316406 157.816406 26.316406 C 158.472656 26.316406 159.058594 26.183594 159.585938 25.917969 C 160.113281 25.65625 160.550781 25.289062 160.917969 24.847656 C 161.28125 24.390625 161.5625 23.894531 161.75 23.347656 L 165.4375 24.453125 C 165.175781 25.4375 164.707031 26.347656 164.03125 27.199219 C 163.359375 28.035156 162.480469 28.710938 161.398438 29.226562 C 160.332031 29.710938 159.117188 29.972656 157.738281 29.972656 Z M 157.742188 29.976562 " fill-opacity="1" fill-rule="nonzero"/><g clip-path="url(#41eb73081a)"><path fill="#ff9100" d="M 167.535156 29.59375 L 167.535156 7.808594 L 171.820312 7.808594 L 171.820312 19.53125 L 178.550781 12.847656 L 183.515625 12.847656 L 176.34375 19.808594 L 183.46875 29.59375 L 178.464844 29.59375 L 173.300781 22.421875 L 171.804688 23.832031 L 171.804688 29.59375 Z M 167.535156 29.59375 " fill-opacity="1" fill-rule="nonzero"/></g><g clip-path="url(#8415e3d3c3)"><path fill="#ff9100" d="M 20.984375 7.796875 C 20.984375 8.0625 20.960938 8.324219 20.90625 8.585938 C 20.855469 8.847656 20.777344 9.101562 20.675781 9.347656 C 20.574219 9.59375 20.453125 9.828125 20.304688 10.046875 C 20.15625 10.269531 19.988281 10.472656 19.800781 10.664062 C 19.613281 10.851562 19.410156 11.019531 19.191406 11.167969 C 18.96875 11.3125 18.738281 11.4375 18.492188 11.542969 C 18.246094 11.644531 17.992188 11.71875 17.734375 11.773438 C 17.472656 11.824219 17.210938 11.851562 16.945312 11.851562 C 16.679688 11.851562 16.417969 11.824219 16.15625 11.773438 C 15.898438 11.71875 15.644531 11.644531 15.398438 11.542969 C 15.15625 11.4375 14.921875 11.3125 14.703125 11.167969 C 14.480469 11.019531 14.277344 10.851562 14.089844 10.664062 C 13.902344 10.472656 13.734375 10.269531 13.585938 10.046875 C 13.4375 9.828125 13.316406 9.59375 13.214844 9.347656 C 13.113281 9.101562 13.035156 8.847656 12.984375 8.585938 C 12.933594 8.324219 12.90625 8.0625 12.90625 7.796875 C 12.90625 7.527344 12.933594 7.265625 12.984375 7.003906 C 13.035156 6.742188 13.113281 6.488281 13.214844 6.242188 C 13.316406 5.996094 13.4375 5.765625 13.585938 5.542969 C 13.734375 5.320312 13.902344 5.117188 14.089844 4.929688 C 14.277344 4.738281 14.480469 4.570312 14.703125 4.421875 C 14.921875 4.277344 15.15625 4.152344 15.398438 4.050781 C 15.644531 3.945312 15.898438 3.871094 16.15625 3.816406 C 16.417969 3.765625 16.679688 3.742188 16.945312 3.742188 C 17.210938 3.742188 17.472656 3.765625 17.734375 3.816406 C 17.992188 3.871094 18.246094 3.945312 18.492188 4.050781 C 18.738281 4.152344 18.96875 4.277344 19.191406 4.421875 C 19.410156 4.570312 19.613281 4.738281 19.800781 4.929688 C 19.988281 5.117188 20.15625 5.320312 20.304688 5.542969 C 20.453125 5.765625 20.574219 5.996094 20.675781 6.242188 C 20.777344 6.488281 20.855469 6.742188 20.90625 7.003906 C 20.960938 7.265625 20.984375 7.527344 20.984375 7.796875 Z M 20.984375 7.796875 " fill-opacity="1" fill-rule="nonzero"/></g><g clip-path="url(#3459aefde8)"><path fill="#ff9100" d="M 28.171875 20.324219 C 26.238281 19.207031 23.765625 19.867188 22.652344 21.808594 C 22.273438 22.46875 22.097656 23.203125 22.113281 23.921875 C 22.15625 25.714844 20.546875 26.640625 19.023438 25.714844 C 18.964844 25.6875 18.90625 25.640625 18.835938 25.613281 C 17.300781 24.746094 17.300781 22.910156 18.835938 22.058594 C 20.09375 21.367188 20.957031 20.03125 20.957031 18.488281 L 20.957031 18.402344 C 20.914062 16.609375 22.523438 15.683594 24.042969 16.609375 C 25.257812 17.355469 26.839844 17.414062 28.15625 16.652344 C 30.085938 15.535156 30.746094 13.054688 29.632812 11.113281 C 28.519531 9.175781 26.046875 8.515625 24.117188 9.632812 C 22.800781 10.394531 22.066406 11.804688 22.097656 13.230469 C 22.140625 15.023438 20.53125 15.949219 19.023438 15.023438 C 18.40625 14.640625 17.691406 14.421875 16.914062 14.421875 C 16.140625 14.421875 15.421875 14.640625 14.808594 15.007812 C 13.285156 15.917969 11.691406 14.992188 11.734375 13.214844 C 11.761719 11.777344 11.03125 10.378906 9.714844 9.617188 C 7.78125 8.5 5.308594 9.175781 4.199219 11.113281 C 3.085938 13.054688 3.757812 15.535156 5.691406 16.652344 C 7.007812 17.414062 8.589844 17.34375 9.800781 16.609375 C 11.324219 15.683594 12.917969 16.609375 12.875 18.402344 L 12.875 18.488281 C 12.875 20.03125 13.722656 21.367188 14.996094 22.058594 C 16.535156 22.925781 16.535156 24.761719 14.996094 25.613281 C 14.9375 25.640625 14.878906 25.6875 14.820312 25.714844 C 13.296875 26.625 11.703125 25.699219 11.746094 23.921875 C 11.761719 23.203125 11.585938 22.46875 11.207031 21.792969 C 10.09375 19.855469 7.621094 19.195312 5.6875 20.3125 C 3.757812 21.457031 3.097656 23.941406 4.210938 25.878906 C 5.324219 27.816406 7.796875 28.480469 9.726562 27.363281 C 9.757812 27.347656 9.773438 27.332031 9.800781 27.316406 C 11.324219 26.390625 12.917969 27.316406 12.875 29.109375 L 12.875 29.214844 C 12.875 31.445312 14.691406 33.269531 16.914062 33.269531 C 19.140625 33.269531 20.953125 31.445312 20.953125 29.214844 L 20.953125 29.125 C 20.910156 27.332031 22.519531 26.40625 24.042969 27.332031 C 24.070312 27.347656 24.101562 27.363281 24.128906 27.390625 C 26.0625 28.507812 28.535156 27.847656 29.644531 25.910156 C 30.757812 23.925781 30.101562 21.445312 28.167969 20.328125 Z M 28.171875 20.324219 " fill-opacity="1" fill-rule="nonzero"/></g></svg>