<?xml version="1.0" encoding="UTF-8"?> <!-- Generator: Adobe Illustrator 26.3.1, SVG Export Plug-In . SVG Version: 6.00 Build 0) --> <svg xmlns="http://www.w3.org/2000/svg" xmlns:xlink="http://www.w3.org/1999/xlink" version="1.1" id="Layer_1" x="0px" y="0px" viewBox="0 0 800 472.7" style="enable-background:new 0 0 800 472.7;" xml:space="preserve"> <style type="text/css"> .st0{fill:#FFFFFF;} .st1{fill-rule:evenodd;clip-rule:evenodd;fill:#FFFFFF;} .st2{clip-path:url(#SVGID_00000176005564683996466690000003963609532495710849_);} </style> <g> <path d="M30.2,412h132.2c5.7,0,10.2,4.6,10.2,10.2v28.1c0,5.7-4.6,10.2-10.2,10.2H30.2c-5.7,0-10.2-4.6-10.2-10.2v-28.1 C20,416.5,24.6,412,30.2,412z"></path> <path d="M207.2,412h132.2c5.7,0,10.2,4.6,10.2,10.2v28.1c0,5.7-4.6,10.2-10.2,10.2H207.2c-5.7,0-10.2-4.6-10.2-10.2v-28.1 C197,416.5,201.6,412,207.2,412z"></path> <path d="M384.2,412h132.2c5.7,0,10.2,4.6,10.2,10.2v28.1c0,5.7-4.6,10.2-10.2,10.2H384.2c-5.7,0-10.2-4.6-10.2-10.2v-28.1 C374,416.5,378.6,412,384.2,412z"></path> <path d="M561.2,412h208.6c5.7,0,10.2,4.6,10.2,10.2v28.1c0,5.7-4.6,10.2-10.2,10.2H561.2c-5.7,0-10.2-4.6-10.2-10.2v-28.1 C551,416.5,555.5,412,561.2,412z"></path> <g> <g id="pictogram"> <g> <path class="st0" d="M575.9,429.2h10.7c-2.3,4.3-2.3,12.2-1.6,14.3h4.2c-3-5.2-1.7-10.7-0.7-13.4l0.1,0.1l0,0l6,6 c0.3-1.4,0.3-3.4-1.5-5.5c-1.2-1.2-1.4-1.2-2.3-1.6h8.5c-1.2-1.7-3.3-2.8-5.7-2.8c-0.6,0-1.2,0.1-1.7,0.2l5.7-5.7 c-2.5-0.6-5.1,0.1-7.2,2.1l-0.1,0.1c-1,1-1.6,2.1-2,3.2c-0.4-0.9-1-1.8-1.8-2.6c-1.8-1.9-4.2-2.6-6.5-2.2l4.5,4.5 c-0.6-0.1-1.2-0.2-1.9-0.2h0C579.7,425.9,577.3,427.1,575.9,429.2L575.9,429.2z"></path> <path class="st0" d="M583.1,439.2h-3.7l-2.5,2.5h2.6l1.1-1.5h2L583.1,439.2z"></path> <path class="st0" d="M574.5,444.1h3.2l-1.2,1.6h3.3l-1.2,2.3h-8.2L574.5,444.1L574.5,444.1z"></path> <path class="st0" d="M589.8,440.2l-0.4-1.1h4.8l1.9,1.9h-2.3l-0.6-0.8H589.8L589.8,440.2z"></path> <path class="st0" d="M595.2,443.1h2.8l4.9,4.9h-16.2v-2.3h10.4L595.2,443.1L595.2,443.1z"></path> </g> </g> <path class="st0" d="M607.8,440.9v-8.1h-2.4v-3.6h2.4v-4.4h3.8v4.4h3.5v3.6h-3.5v7.4c0,0.8,0.3,1,1,1h2.4v3.3h-3.3 C609.2,444.5,607.8,443.2,607.8,440.9L607.8,440.9z"></path> <path class="st0" d="M616.8,429.2h3.2l0.3,1.4h0.1c0,0,0.9-1.4,2.7-1.4h3v3.6h-2.7c-2,0-2.9,0.9-2.9,2.9v8.9h-3.8L616.8,429.2 L616.8,429.2L616.8,429.2z"></path> <path class="st0" d="M626.2,436.8c0-4.7,3.3-8,7.8-8s7.8,3.3,7.8,8s-3.3,8-7.8,8S626.2,441.5,626.2,436.8z M638,436.8 c0-2.7-1.8-4.5-4-4.5s-4,1.8-4,4.5s1.8,4.5,4,4.5S638,439.6,638,436.8z"></path> <path class="st0" d="M643.6,429.2h3.5l0.3,1.6h0.1c0,0,1.4-2,4.4-2c3.9,0,7.1,3.1,7.1,8s-3.2,8-7.1,8c-3.2,0-4.4-1.8-4.4-1.8h-0.1 v7.5h-3.8L643.6,429.2L643.6,429.2z M655.2,436.8c0-2.9-1.7-4.5-3.9-4.5s-3.9,1.6-3.9,4.5s1.7,4.5,3.9,4.5 S655.2,439.7,655.2,436.8z"></path> <path class="st0" d="M660.6,423.2h4v3.6h-4V423.2z M660.7,429.2h3.8v15.3h-3.8V429.2z"></path> <path class="st0" d="M666.4,436.8c0-4.7,3.3-8,7.8-8c4.8,0,6.8,3.6,7.2,5.9h-3.8c-0.3-0.9-1.2-2.4-3.5-2.4s-4,1.8-4,4.5 s1.8,4.5,4,4.5s3.2-1.5,3.5-2.5h3.8c-0.5,2.4-2.4,6-7.2,6C669.7,444.8,666.4,441.5,666.4,436.8z"></path> <path class="st0" d="M684.3,440.2h1.7c0,1.5,1.6,2.9,4.2,2.9s3.9-1.2,3.9-2.5c0-1.2-0.8-2-2.5-2.3l-3-0.6 c-2.5-0.5-3.9-1.7-3.9-4.1c0-2.3,2-4.2,5.4-4.2c3.6,0,5.7,2.1,5.7,4.7H694c0-1.5-1.4-2.9-3.9-2.9c-2.4,0-3.6,1.2-3.6,2.4 s0.8,2.1,2.4,2.4l3,0.6c2.9,0.6,4,1.8,4,4c0,2.4-2,4.4-5.7,4.4C686.6,444.8,684.4,442.6,684.3,440.2L684.3,440.2z"></path> <path class="st0" d="M709.4,442.1h-0.1c-0.6,0.9-2.3,2.7-5.1,2.7c-3.8,0-6.8-3-6.8-7.8s3-7.8,6.8-7.8c2.9,0,4.5,1.8,5.1,2.7h0.1 l0.3-2.4h1.5v21h-1.8V442.1z M709.4,437c0-3.8-2.3-6-5.1-6s-5.1,2.3-5.1,6s2.3,6,5.1,6S709.4,440.7,709.4,437z"></path> <path class="st0" d="M713.3,438.5v-9h1.8v9c0,2.7,1.8,4.5,4.4,4.5c2.7,0,4.7-2,4.7-4.5v-9h1.8v15h-1.5l-0.3-2H724 c0,0-1.4,2.3-4.7,2.3C715.8,444.8,713.3,442.3,713.3,438.5L713.3,438.5z"></path> <path class="st0" d="M727.8,440.2c0-2.7,2-4.7,5.9-4.7h4.4v-0.6c0-2.5-1.4-3.9-3.9-3.9c-2.4,0-3.9,1.2-4,2.9h-1.8 c0.3-2.5,2.3-4.7,5.9-4.7s5.7,2.1,5.7,5.7v9.6h-1.5l-0.3-2.1H738c0,0-1.7,2.4-5,2.4C729.8,444.8,727.8,442.8,727.8,440.2 L727.8,440.2z M738,437.9v-0.8h-4.4c-2.7,0-4,1.4-4,3s1.2,2.9,3.3,2.9C736.1,443,738,441.1,738,437.9z"></path> <path class="st0" d="M741.9,429.5h1.5l0.1,1.5h0.1c0.3-0.5,1-1.5,3-1.5h2.7v1.8h-2.5c-2,0-3.2,1.2-3.2,3.3v9.9h-1.8L741.9,429.5 L741.9,429.5z"></path> <path class="st0" d="M748.9,437c0-4.8,3-7.8,7.1-7.8s6.9,3,6.9,7.5c0,0.8-0.1,1.2-0.1,1.2h-12.1c0.3,3.1,2.5,5.1,5.3,5.1 c2.4,0,3.9-1.5,4.5-2.7h2c-0.8,2-2.5,4.5-6.5,4.5S748.9,441.8,748.9,437L748.9,437z M761.1,436.1c-0.1-3-2.3-5.1-5.1-5.1 s-5,2-5.3,5.1H761.1z"></path> </g> <g> <path class="st1" d="M304.5,429c0.1,0,0.1,0,0.2,0.1l0,0l3.7,10.8l3.6-10.8c0,0,0-0.1,0.1-0.1l0,0h0h3.5c0.1,0,0.2,0.1,0.2,0.2v0 l-7.3,19.4c-0.3,0.9-0.7,1.6-1.2,2.1c-0.8,0.8-1.9,1.2-3.3,1.2h-0.3h-1.3c-0.1,0-0.2-0.1-0.2-0.1v0v-2.9c0-0.1,0.1-0.2,0.2-0.2h0 h0.8c1.2,0,1.7-0.3,2.1-1.5l0.1-0.1l0.9-2.5l-5.7-15.4c0-0.1,0-0.2,0.1-0.2l0,0h0L304.5,429L304.5,429L304.5,429z M258.4,428.9 c1.7,0,3.2,0.5,4.2,1.5c1.2,1.1,1.7,2.5,1.7,4.5v0.3v10.4c0,0.1-0.1,0.2-0.2,0.2h-0.1h-3.3c-0.1,0-0.2-0.1-0.2-0.1v0v-9.9 c0-2.2-1.2-3.4-3.1-3.4c-1.9,0-3.1,1.1-3.2,3.2v0.2v9.9c0,0.1-0.1,0.2-0.2,0.2H254h-3.3c-0.1,0-0.2-0.1-0.2-0.1v0v-16.2 c0-0.1,0.1-0.2,0.2-0.2h0.1h3.2c0.1,0,0.2,0.1,0.2,0.1v0v1.1l0.2-0.1c1-0.8,2.2-1.3,3.5-1.4h0.3L258.4,428.9L258.4,428.9 L258.4,428.9z M269.5,429c0.1,0,0.1,0,0.2,0.1l0,0l3.7,10.8l3.7-10.8c0,0,0-0.1,0.1-0.1l0,0h0h3.5c0.1,0,0.2,0.1,0.2,0.2v0 l-6,16.2c0,0.1-0.1,0.1-0.1,0.1h0H272c-0.1,0-0.1,0-0.2-0.1l0,0l-6-16.2c0-0.1,0-0.2,0.1-0.3h0L269.5,429L269.5,429L269.5,429z M287,429c0.1,0,0.2,0.1,0.2,0.1v0v16.2c0,0.1-0.1,0.2-0.2,0.2h0h-3.3c-0.1,0-0.2-0.1-0.2-0.1v0v-16.2c0-0.1,0.1-0.2,0.2-0.2h0 H287L287,429z M295.1,424.4c0.1,0,0.2,0.1,0.2,0.1v0v4.4h3c0.1,0,0.1,0,0.2,0.1l0,0v0v2.5c0,0.1-0.1,0.2-0.2,0.2h0h-3v8.8 c0,1,0.4,1.6,1.3,1.7h0.1l0.1,0h1.4c0.1,0,0.2,0.1,0.2,0.1v0v2.8c0,0.1-0.1,0.2-0.2,0.2h0h-2c-2.9,0-4.6-1.9-4.7-4.5v-0.2v-9h-1.7 c-0.1,0-0.1,0-0.2-0.1l0,0v0v-2.5c0-0.1,0.1-0.2,0.2-0.2h0h1.7v-4.4c0-0.1,0-0.1,0.1-0.2l0,0h0L295.1,424.4L295.1,424.4 L295.1,424.4z M235.1,432c0.1,0,0.1,0,0.2,0.1v0v3.6h3.7c0.1,0,0.1,0,0.1,0.1l0,0v0v2.5c0,0.1-0.1,0.1-0.1,0.2h0h-3.7v3.6 c0,0.1,0,0.1-0.1,0.1l0,0h0h-2.6c-0.1,0-0.1,0-0.2-0.1v0v-3.6h-3.7c-0.1,0-0.1,0-0.1-0.1l0,0v0V436c0-0.1,0.1-0.1,0.1-0.2h0h3.7 v-3.6c0-0.1,0-0.1,0.1-0.1l0,0h0H235.1L235.1,432z M246.3,429.1c0.1,0,0.2,0.1,0.2,0.1v0v16.2c0,0.1-0.1,0.2-0.2,0.2h-0.1H243 c-0.1,0-0.2-0.1-0.2-0.1v0v-13.5h-2.1h-0.1c-0.1,0-0.1-0.1-0.1-0.1v0v-2.5v0l0,0c0,0,0.1-0.1,0.1-0.1h0L246.3,429.1L246.3,429.1 L246.3,429.1z"></path> <g> <defs> <path id="SVGID_1_" d="M304.5,429c0.1,0,0.1,0,0.2,0.1l0,0l3.7,10.8l3.6-10.8c0,0,0-0.1,0.1-0.1l0,0h0h3.5 c0.1,0,0.2,0.1,0.2,0.2v0l-7.3,19.4c-0.3,0.9-0.7,1.6-1.2,2.1c-0.8,0.8-1.9,1.2-3.3,1.2h-0.3h-1.3c-0.1,0-0.2-0.1-0.2-0.1v0 v-2.9c0-0.1,0.1-0.2,0.2-0.2h0h0.8c1.2,0,1.7-0.3,2.1-1.5l0.1-0.1l0.9-2.5l-5.7-15.4c0-0.1,0-0.2,0.1-0.2l0,0h0L304.5,429 L304.5,429L304.5,429z M258.4,428.9c1.7,0,3.2,0.5,4.2,1.5c1.2,1.1,1.7,2.5,1.7,4.5v0.3v10.4c0,0.1-0.1,0.2-0.2,0.2h-0.1h-3.3 c-0.1,0-0.2-0.1-0.2-0.1v0v-9.9c0-2.2-1.2-3.4-3.1-3.4c-1.9,0-3.1,1.1-3.2,3.2v0.2v9.9c0,0.1-0.1,0.2-0.2,0.2H254h-3.3 c-0.1,0-0.2-0.1-0.2-0.1v0v-16.2c0-0.1,0.1-0.2,0.2-0.2h0.1h3.2c0.1,0,0.2,0.1,0.2,0.1v0v1.1l0.2-0.1c1-0.8,2.2-1.3,3.5-1.4h0.3 L258.4,428.9L258.4,428.9L258.4,428.9z M269.5,429c0.1,0,0.1,0,0.2,0.1l0,0l3.7,10.8l3.7-10.8c0,0,0-0.1,0.1-0.1l0,0h0h3.5 c0.1,0,0.2,0.1,0.2,0.2v0l-6,16.2c0,0.1-0.1,0.1-0.1,0.1h0H272c-0.1,0-0.1,0-0.2-0.1l0,0l-6-16.2c0-0.1,0-0.2,0.1-0.3h0 L269.5,429L269.5,429L269.5,429z M287,429c0.1,0,0.2,0.1,0.2,0.1v0v16.2c0,0.1-0.1,0.2-0.2,0.2h0h-3.3c-0.1,0-0.2-0.1-0.2-0.1v0 v-16.2c0-0.1,0.1-0.2,0.2-0.2h0H287L287,429z M295.1,424.4c0.1,0,0.2,0.1,0.2,0.1v0v4.4h3c0.1,0,0.1,0,0.2,0.1l0,0v0v2.5 c0,0.1-0.1,0.2-0.2,0.2h0h-3v8.8c0,1,0.4,1.6,1.3,1.7h0.1l0.1,0h1.4c0.1,0,0.2,0.1,0.2,0.1v0v2.8c0,0.1-0.1,0.2-0.2,0.2h0h-2 c-2.9,0-4.6-1.9-4.7-4.5v-0.2v-9h-1.7c-0.1,0-0.1,0-0.2-0.1l0,0v0v-2.5c0-0.1,0.1-0.2,0.2-0.2h0h1.7v-4.4c0-0.1,0-0.1,0.1-0.2 l0,0h0L295.1,424.4L295.1,424.4L295.1,424.4z M235.1,432c0.1,0,0.1,0,0.2,0.1v0v3.6h3.7c0.1,0,0.1,0,0.1,0.1l0,0v0v2.5 c0,0.1-0.1,0.1-0.1,0.2h0h-3.7v3.6c0,0.1,0,0.1-0.1,0.1l0,0h0h-2.6c-0.1,0-0.1,0-0.2-0.1v0v-3.6h-3.7c-0.1,0-0.1,0-0.1-0.1l0,0 v0V436c0-0.1,0.1-0.1,0.1-0.2h0h3.7v-3.6c0-0.1,0-0.1,0.1-0.1l0,0h0H235.1L235.1,432z M246.3,429.1c0.1,0,0.2,0.1,0.2,0.1v0 v16.2c0,0.1-0.1,0.2-0.2,0.2h-0.1H243c-0.1,0-0.2-0.1-0.2-0.1v0v-13.5h-2.1h-0.1c-0.1,0-0.1-0.1-0.1-0.1v0v-2.5v0l0,0 c0,0,0.1-0.1,0.1-0.1h0L246.3,429.1L246.3,429.1L246.3,429.1z"></path> </defs> <clipPath id="SVGID_00000031886424880794196130000008333029385563829133_"> <use xlink:href="#SVGID_1_" style="overflow:visible;"></use> </clipPath> <g style="clip-path:url(#SVGID_00000031886424880794196130000008333029385563829133_);"> <rect x="228.1" y="423.9" class="st0" width="88.4" height="28.6"></rect> </g> </g> </g> <g> <path class="st0" d="M427,442.4l6.3-12.5h5.1l-7.8,15.3h-7.3l-7.8-15.3h5.1L427,442.4L427,442.4z"></path> <path class="st0" d="M448.1,441.9c1.5,0,2.7-0.2,3.5-0.5c0.8-0.4,1.4-0.9,1.7-1.5h4.9c-0.5,1.9-1.6,3.3-3.3,4.4 c-1.7,1-4,1.5-7,1.5c-3.4,0-6-0.7-8-2.1c-1.9-1.4-2.9-3.4-2.9-6.1c0-1.8,0.5-3.3,1.4-4.5c0.9-1.2,2.2-2.1,3.8-2.8 c1.6-0.6,3.4-0.9,5.5-0.9c3.3,0,5.9,0.8,7.8,2.2c1.9,1.5,2.9,3.8,2.9,6.9h-16.3c0.2,1.2,0.8,2.1,1.8,2.6 C444.9,441.6,446.3,441.9,448.1,441.9L448.1,441.9z M447.7,432.8c-1.5,0-2.6,0.2-3.5,0.7c-0.9,0.4-1.5,1.1-1.8,2.1h10.9 c-0.3-1-0.9-1.7-1.9-2.1C450.5,433.1,449.3,432.8,447.7,432.8L447.7,432.8z"></path> <path class="st0" d="M462.7,445.2h-6.7l8.3-7.6l-8.3-7.6h6.7l4.9,4.9l4.9-4.9h6.7l-8.3,7.6l8.3,7.6h-6.7l-4.9-4.9L462.7,445.2z"></path> <path class="st0" d="M480.1,445.2v-20.6h4.9v20.6H480.1z"></path> </g> <g id="Layer_2"> <g id="Logos"> <g id="Black_logo_on_white"> <polygon class="st0" points="109.4,429.9 121.1,429.9 121.1,433 114.8,441.7 121.1,441.7 121.1,445.3 109.4,445.3 109.4,442.2 115.8,433.6 109.4,433.6 "></polygon> <path class="st0" d="M149,439.6c1.4-0.5,2.9-2,2.9-4.5c0-3.1-2.1-5.1-5.3-5.1h-7.2v15.3h4v-5.1h1.5l2.8,5.1h4.6L149,439.6 L149,439.6z M146.2,436.6h-2.7v-3.1h2.7c1,0,1.7,0.6,1.7,1.5C147.9,436,147.2,436.6,146.2,436.6z"></path> <path class="st0" d="M129.8,429.7c-4.7,0-7.9,3.4-7.9,7.9s3.4,7.9,7.9,7.9s8-3.4,8-7.9S134.4,429.7,129.8,429.7z M129.8,441.9 c-2.3,0-3.9-1.8-3.9-4.3s1.6-4.3,3.9-4.3s4,1.8,4,4.3S132.1,441.9,129.8,441.9z"></path> <polygon class="st0" points="96.4,429.9 107.5,429.9 107.5,433.5 100.4,433.5 100.4,435.8 107.3,435.8 107.3,439.3 100.4,439.3 100.4,441.7 107.5,441.7 107.5,445.3 96.4,445.3 "></polygon> <path class="st0" d="M56.9,427.8c0-3.6-3.2-6.6-7-6.6s-7,3-7,6.6v2.1h-2.9v15.3l0,0l9.9,4.6l9.9-4.6l0,0V430h-2.9L56.9,427.8 L56.9,427.8z M46.5,427.8c0-1.7,1.5-3.1,3.4-3.1s3.4,1.4,3.4,3.1v2.1h-6.9V427.8z M55.8,442.8l-5.9,2.8l-5.9-2.7v-9.2h11.8 V442.8L55.8,442.8z"></path> <path class="st0" d="M94.5,435.1c0-3.1-2.1-5.1-5.3-5.1h-7.2v15.3h4v-5.1h1.5l2.8,5.1H95l-3.4-5.7 C93,439.1,94.5,437.6,94.5,435.1L94.5,435.1z M88.8,436.6H86v-3.1h2.7c1,0,1.7,0.6,1.7,1.5C90.5,436,89.8,436.6,88.8,436.6 L88.8,436.6L88.8,436.6z"></path> <polygon class="st0" points="67.8,429.9 80.3,429.9 80.3,433.6 76,433.6 76,445.3 72,445.3 72,433.6 67.8,433.6 "></polygon> </g> </g> </g> </g> <g id="Layer_2-2"> <g id="Layer_3"> <polygon points="402.4,71.4 401.5,70.5 383.8,70.5 372.3,70.5 371.4,71.3 371.4,82.8 371.4,169.2 370.5,170.1 353.6,170.1 352.8,170.9 352.8,181.5 353.7,182.4 371.4,182.4 382.9,182.4 383.8,181.6 383.8,170.1 383.8,83.6 384.6,82.8 401.5,82.8 402.4,81.9 402.4,71.4 "></polygon> <polygon points="415.6,70.5 426.2,70.5 427.1,71.3 427.1,169.2 428,170.1 444.9,170.1 445.7,170.9 445.7,181.5 444.8,182.4 427.1,182.4 415.6,182.4 414.7,181.6 414.7,170.1 414.7,71.4 415.6,70.5 "></polygon> <path d="M399.8,242.3c-63.4,0-115.1-51.6-115.1-115s51.6-115,115.1-115s115.1,51.6,115.1,115.1S463.2,242.3,399.8,242.3 L399.8,242.3z M399.8,24.5c-56.7,0-102.7,46.1-102.7,102.7s46.1,102.7,102.7,102.7s102.7-46.1,102.7-102.7S456.4,24.5,399.8,24.5 L399.8,24.5L399.8,24.5z"></path> <path d="M66.5,374.6c-18,0-26.2-9-26.2-20.7l0.9-0.9H52l0.9,0.9c0,6.3,3.6,9.9,14.4,9.9c8.1,0,12.6-2.7,12.6-8.1 c0-6.3-3.6-8.1-16.2-9.9c-12.6-1.8-22.5-6.3-22.5-19c0-9,7.2-17.1,24.4-17.1S90,317.8,90,328.6l-0.9,0.9H78.2l-0.9-0.9 c0-5.4-2.7-8.1-12.6-8.1c-8.1,0-10.8,2.7-10.8,6.3c0,5.4,3.6,7.2,16.2,9c12.6,1.8,22.6,7.2,22.6,19.9 C92.7,365.7,85.4,374.7,66.5,374.6L66.5,374.6L66.5,374.6z"></path> <path d="M162.1,373.7H154l-0.9-0.9l-4.5-11.7l-1.8-0.9h-22.6l-1.8,0.9l-4.5,11.7l-0.9,0.9h-8.1l-0.9-0.9v-9l20.7-52.3l0.9-0.9 h11.7l0.9,0.9l20.8,52.3v9L162.1,373.7L162.1,373.7L162.1,373.7z M135.9,326.8H135l-8.1,21.6l0.9,0.9h15.3l0.9-0.9L135.9,326.8 L135.9,326.8L135.9,326.8z"></path> <polygon points="223.4,321.4 205.4,321.4 204.5,322.3 204.5,372.8 203.6,373.7 192.8,373.7 191.9,372.8 191.9,322.3 191,321.4 172.9,321.4 172,320.5 172,311.5 172.9,310.6 223.4,310.6 224.3,311.5 224.3,320.5 223.4,321.4 "></polygon> <path d="M269.4,374.6c-18.9,0-30.7-13.5-30.7-32.5s11.7-32.5,30.7-32.5s30.7,13.5,30.7,32.5S288.4,374.6,269.4,374.6L269.4,374.6z M269.4,320.5c-11.7,0-18,9-18,21.6s6.3,21.6,18,21.6s18-9,18-21.6S281.2,320.5,269.4,320.5z"></path> <path d="M344.3,374.6c-18,0-26.2-9-26.2-20.7l0.9-0.9h10.8l0.9,0.9c0,6.3,3.6,9.9,14.4,9.9c8.1,0,12.6-2.7,12.6-8.1 c0-6.3-3.6-8.1-16.2-9.9c-12.6-1.8-22.5-6.3-22.5-19c0-9,7.2-17.1,24.4-17.1s24.4,8.1,24.4,18.9l-0.9,0.9H356l-0.9-0.9 c0-5.4-2.7-8.1-12.6-8.1c-8.1,0-10.8,2.7-10.8,6.3c0,5.4,3.6,7.2,16.2,9c12.6,1.8,22.5,7.2,22.5,19.9 C370.5,365.7,363.2,374.7,344.3,374.6L344.3,374.6L344.3,374.6z"></path> <polygon points="442.6,373.7 431.8,373.7 430.9,372.8 430.9,347.6 430,346.7 405.6,346.7 404.7,347.6 404.7,372.8 403.8,373.7 393,373.7 392.1,372.8 392.1,311.5 393,310.6 403.8,310.6 404.7,311.5 404.7,335 405.6,335.9 430,335.9 430.9,335 430.9,311.5 431.8,310.6 442.6,310.6 443.5,311.5 443.5,372.8 442.6,373.7 "></polygon> <polygon points="480.5,373.7 469.7,373.7 468.8,372.8 468.8,311.5 469.7,310.6 480.5,310.6 481.4,311.5 481.4,372.8 480.5,373.7 "></polygon> <polygon points="548.2,373.7 507.6,373.7 506.7,372.8 506.7,311.5 507.6,310.6 518.4,310.6 519.3,311.5 519.3,362 520.2,362.9 548.2,362.9 549.1,363.8 549.1,372.8 548.2,373.7 "></polygon> <path d="M618.5,373.7h-8.1l-0.9-0.9l-4.5-11.7l-1.8-0.9h-22.5l-1.8,0.9l-4.5,11.7l-0.9,0.9h-8.1l-0.9-0.9v-9l20.8-52.3l0.9-0.9 h11.7l0.9,0.9l20.7,52.3v9L618.5,373.7L618.5,373.7L618.5,373.7z M592.4,326.8h-0.9l-8.1,21.6l0.9,0.9h15.3l0.9-0.9L592.4,326.8 L592.4,326.8z"></path> <path d="M670.8,373.7h-30.7l-0.9-0.9v-61.3l0.9-0.9H669c9,0,18,4.5,18,16.2c0,6.3-2.7,11.7-9,13.5v0.9c7.2,1.8,10.8,7.2,10.8,15.3 C688.9,369.2,679.9,373.7,670.8,373.7L670.8,373.7L670.8,373.7z M667.2,321.4h-14.4l-0.9,0.9V335l0.9,0.9h14.4 c5.4,0,7.2-3.6,7.2-7.2C674.4,324.1,672.6,321.4,667.2,321.4L667.2,321.4z M667.2,346.7h-14.4l-0.9,0.9V362l0.9,0.9h14.4 c6.3,0,9-2.7,9-8.1S673.5,346.7,667.2,346.7L667.2,346.7z"></path> <path d="M733.1,374.6c-18,0-26.2-9-26.2-20.7l0.9-0.9h10.8l0.9,0.9c0,6.3,3.6,9.9,14.4,9.9c8.1,0,12.6-2.7,12.6-8.1 c0-6.3-3.6-8.1-16.2-9.9c-12.6-1.8-22.5-6.3-22.5-19c0-9,7.2-17.1,24.3-17.1s24.3,8.1,24.3,18.9l-0.9,0.9h-10.8l-0.9-0.9 c0-5.4-2.7-8.1-12.6-8.1c-8.1,0-10.8,2.7-10.8,6.3c0,5.4,3.6,7.2,16.2,9s22.5,7.2,22.5,19.9C759.2,365.7,752,374.7,733.1,374.6 L733.1,374.6L733.1,374.6z"></path> </g> </g> </svg> 