<svg width="2518" height="754" viewBox="0 0 2518 754" fill="none" xmlns="http://www.w3.org/2000/svg">
<rect width="2516" height="752" transform="translate(1 1)" fill="white"/>
<path d="M100.076 284L200.832 437.149L201 459.987H1V410.952H120.563L36.6003 284H100.076Z" fill="#EBEBEB"/>
<path d="M400.076 577L500.832 730.149L501 752.987H301V703.952H420.563L336.6 577H400.076Z" fill="#EBEBEB"/>
<path d="M2416.08 284L2516.83 437.149L2517 459.987H2317V410.952H2436.56L2352.6 284H2416.08Z" fill="#EBEBEB"/>
<path d="M400.076 1L500.832 154.149L501 176.987H301V127.952H420.563L336.6 1H400.076Z" fill="#EBEBEB"/>
<rect x="200.5" y="0.5" width="2117" height="753" stroke="#5546FF"/>
<path d="M833.289 432.551C834.945 453.203 843.553 469.594 858.785 482.051C874.016 494.507 893.882 500.736 918.385 500.736C939.907 500.736 957.125 496.146 970.369 486.968C983.614 477.789 990.236 465.005 990.236 448.942C990.236 437.469 986.594 427.962 979.309 421.406C972.025 414.522 962.423 409.277 949.84 405.671C937.258 402.065 920.04 398.132 897.525 394.198C874.678 390.264 855.142 385.019 838.918 378.463C822.693 371.907 809.449 362.073 799.185 348.96C788.92 335.52 783.953 318.146 783.953 296.511C783.953 276.515 789.251 258.813 799.847 243.078C810.442 227.343 825.011 215.214 844.216 206.691C863.089 198.168 884.942 193.579 909.445 193.579C934.609 193.579 957.125 198.168 976.991 207.675C996.858 216.854 1012.42 229.638 1023.68 246.028C1034.94 262.419 1041.23 280.776 1042.22 301.756H985.269C983.283 283.726 975.336 269.303 961.76 258.485C947.854 247.668 930.636 242.095 909.445 242.095C888.916 242.095 872.691 246.356 860.44 255.207C848.189 264.058 842.229 276.515 842.229 292.249C842.229 303.395 845.871 312.574 853.156 319.13C860.44 325.686 870.042 330.603 881.962 334.209C893.882 337.487 911.431 341.093 933.947 345.027C956.794 348.96 976.329 354.205 992.885 361.089C1009.44 367.645 1022.68 377.48 1033.28 390.592C1043.54 403.704 1048.84 420.75 1048.84 442.058C1048.84 462.71 1043.21 481.067 1032.29 497.458C1021.36 513.848 1005.8 526.305 985.931 535.483C966.065 544.662 943.549 549.251 918.385 549.251C890.571 549.251 866.069 544.334 844.878 534.172C823.687 524.338 807.131 510.242 795.211 492.54C783.291 474.839 777.331 454.515 777 431.568L833.289 432.551ZM1110.1 338.47H1065.4V291.266H1110.1V219.804H1165.06V290.938H1226.98V338.143H1165.06V471.233C1165.06 481.067 1167.05 488.279 1171.02 492.54C1175 496.802 1181.95 498.769 1191.55 498.769H1232.94V546.301H1180.62C1156.12 546.301 1138.24 540.728 1126.98 529.255C1115.73 518.109 1110.1 500.408 1110.1 476.806V338.47ZM1506.77 291.266V546.301H1459.09L1453.13 507.292C1444.19 520.076 1432.6 529.911 1418.36 537.778C1404.13 545.318 1387.9 549.251 1369.03 549.251C1345.52 549.251 1324.66 544.006 1306.12 533.516C1287.57 523.027 1273.34 507.947 1262.74 488.279C1252.48 468.61 1247.18 445.336 1247.18 418.784C1247.18 392.887 1252.48 369.94 1263.07 350.272C1273.67 330.603 1288.24 315.196 1306.45 304.378C1324.99 293.561 1345.85 288.316 1368.7 288.316C1387.9 288.316 1404.46 291.922 1418.36 299.133C1432.6 306.345 1443.86 316.179 1452.47 328.636L1459.09 291.266H1506.77ZM1432.27 480.412C1446.18 464.677 1452.8 444.68 1452.8 419.767C1452.8 394.526 1445.85 373.874 1432.27 358.139C1418.36 342.076 1400.48 334.209 1377.97 334.209C1355.45 334.209 1337.24 342.076 1323.67 357.811C1309.76 373.546 1303.14 393.87 1303.14 418.784C1303.14 444.025 1310.09 464.677 1323.67 480.412C1337.57 496.146 1355.45 504.014 1377.97 504.014C1400.48 504.014 1418.69 496.146 1432.27 480.412ZM1759.08 524.01C1738.22 540.728 1711.73 549.251 1678.95 549.251C1653.45 549.251 1630.94 544.006 1611.4 533.189C1591.87 522.371 1576.97 506.964 1566.37 486.968C1555.77 466.971 1550.48 444.025 1550.48 418.128C1550.48 392.231 1555.77 369.612 1566.7 349.944C1577.3 330.275 1592.53 315.196 1612.39 304.378C1631.93 293.561 1654.78 288.316 1680.6 288.316C1712.72 288.316 1739.21 296.839 1759.74 313.557C1780.27 330.275 1792.85 353.222 1798.15 382.069H1742.19C1738.55 367.318 1731.26 355.844 1720.01 347.321C1709.08 338.798 1695.5 334.209 1679.28 334.209C1657.43 334.209 1639.88 342.076 1626.63 357.483C1613.39 373.218 1606.77 393.214 1606.77 418.128C1606.77 443.369 1613.39 464.021 1626.63 479.756C1639.88 495.491 1657.43 503.358 1679.28 503.358C1696.17 503.358 1710.07 499.097 1721 490.246C1731.93 481.395 1739.21 469.594 1742.52 454.515H1797.82C1792.85 484.345 1779.61 507.292 1759.08 524.01ZM1841.52 197.513H1895.83V415.833L2013.7 291.266H2076.61L1980.59 393.87L2082.9 546.301H2018.34L1941.85 433.207L1896.16 481.067V546.301H1841.85V197.513H1841.52ZM2144.82 462.054C2145.82 475.494 2152.11 486.312 2163.7 494.835C2175.28 503.358 2190.18 507.62 2208.73 507.62C2225.28 507.62 2238.53 504.669 2248.79 498.441C2259.06 492.213 2264.02 484.017 2264.02 473.855C2264.02 465.332 2261.7 458.776 2257.07 454.515C2252.43 450.253 2246.14 446.975 2238.2 445.336C2230.25 443.369 2218 441.73 2201.77 439.763C2179.26 437.141 2160.72 433.535 2146.15 428.946C2131.58 424.356 2119.66 417.472 2111.05 407.638C2102.11 397.804 2097.8 384.691 2097.8 367.973C2097.8 352.238 2102.11 338.47 2111.05 326.342C2119.99 314.213 2132.24 304.706 2147.8 298.15C2163.36 291.594 2181.24 288.316 2200.78 288.316C2233.23 288.316 2259.72 295.528 2279.92 309.623C2300.11 324.047 2311.04 344.043 2313.03 369.94H2260.05C2258.72 358.467 2252.76 348.633 2242.5 341.421C2232.24 333.881 2218.99 330.275 2203.1 330.275C2187.2 330.275 2174.62 333.226 2164.69 339.126C2155.09 345.027 2150.12 353.222 2150.12 363.384C2150.12 370.923 2152.44 376.824 2157.4 380.43C2162.37 384.364 2168.33 386.986 2175.62 388.297C2182.9 389.936 2194.82 391.575 2211.38 393.542C2233.56 395.837 2252.1 399.443 2267.33 404.36C2282.56 409.277 2294.48 416.817 2303.42 427.307C2312.36 437.796 2317 451.892 2317 469.922C2317 485.984 2312.36 499.752 2302.76 511.881C2293.49 524.01 2280.58 533.189 2264.02 539.745C2247.47 546.301 2229.26 549.579 2208.73 549.579C2174.29 549.579 2146.15 541.712 2124.96 526.305C2103.76 510.898 2092.51 489.59 2091.84 462.382H2144.82V462.054Z" fill="black"/>
<path d="M479.086 448.369L564.056 577H500.58L400.832 425.866L301.084 577H237.944L322.914 448.704H201V400.006H601V448.369H479.086Z" fill="black"/>
<path d="M601 303.952V352.651V352.987H201V303.952H320.563L236.6 177H300.076L400.832 330.149L501.924 177H565.4L481.437 303.952H601Z" fill="black"/>
<rect x="0.5" y="176.5" width="2517" height="401" stroke="#5546FF"/>
</svg>
