<svg width="2516" height="752" viewBox="0 0 2516 752" fill="none" xmlns="http://www.w3.org/2000/svg">
<rect width="2516" height="752" fill="black"/>
<path d="M832.289 431.551C833.945 452.203 842.553 468.594 857.785 481.051C873.016 493.507 892.882 499.736 917.385 499.736C938.907 499.736 956.125 495.146 969.369 485.968C982.614 476.789 989.236 464.005 989.236 447.942C989.236 436.469 985.594 426.962 978.309 420.406C971.025 413.522 961.423 408.277 948.84 404.671C936.258 401.065 919.04 397.132 896.525 393.198C873.678 389.264 854.142 384.019 837.918 377.463C821.693 370.907 808.449 361.073 798.185 347.96C787.92 334.52 782.953 317.146 782.953 295.511C782.953 275.515 788.251 257.813 798.847 242.078C809.442 226.343 824.011 214.214 843.216 205.691C862.089 197.168 883.942 192.579 908.445 192.579C933.609 192.579 956.125 197.168 975.991 206.675C995.858 215.854 1011.42 228.638 1022.68 245.028C1033.94 261.419 1040.23 279.776 1041.22 300.756H984.269C982.283 282.726 974.336 268.303 960.76 257.485C946.854 246.668 929.636 241.095 908.445 241.095C887.916 241.095 871.691 245.356 859.44 254.207C847.189 263.058 841.229 275.515 841.229 291.249C841.229 302.395 844.871 311.574 852.156 318.13C859.44 324.686 869.042 329.603 880.962 333.209C892.882 336.487 910.431 340.093 932.947 344.027C955.794 347.96 975.329 353.205 991.885 360.089C1008.44 366.645 1021.68 376.48 1032.28 389.592C1042.54 402.704 1047.84 419.75 1047.84 441.058C1047.84 461.71 1042.21 480.067 1031.29 496.458C1020.36 512.848 1004.8 525.305 984.931 534.483C965.065 543.662 942.549 548.251 917.385 548.251C889.571 548.251 865.069 543.334 843.878 533.172C822.687 523.338 806.131 509.242 794.211 491.54C782.291 473.839 776.331 453.515 776 430.568L832.289 431.551ZM1109.1 337.47H1064.4V290.266H1109.1V218.804H1164.06V289.938H1225.98V337.143H1164.06V470.233C1164.06 480.067 1166.05 487.279 1170.02 491.54C1174 495.802 1180.95 497.769 1190.55 497.769H1231.94V545.301H1179.62C1155.12 545.301 1137.24 539.728 1125.98 528.255C1114.73 517.109 1109.1 499.408 1109.1 475.806V337.47ZM1505.77 290.266V545.301H1458.09L1452.13 506.292C1443.19 519.076 1431.6 528.911 1417.36 536.778C1403.13 544.318 1386.9 548.251 1368.03 548.251C1344.52 548.251 1323.66 543.006 1305.12 532.516C1286.57 522.027 1272.34 506.947 1261.74 487.279C1251.48 467.61 1246.18 444.336 1246.18 417.784C1246.18 391.887 1251.48 368.94 1262.07 349.272C1272.67 329.603 1287.24 314.196 1305.45 303.378C1323.99 292.561 1344.85 287.316 1367.7 287.316C1386.9 287.316 1403.46 290.922 1417.36 298.133C1431.6 305.345 1442.86 315.179 1451.47 327.636L1458.09 290.266H1505.77ZM1431.27 479.412C1445.18 463.677 1451.8 443.68 1451.8 418.767C1451.8 393.526 1444.85 372.874 1431.27 357.139C1417.36 341.076 1399.48 333.209 1376.97 333.209C1354.45 333.209 1336.24 341.076 1322.67 356.811C1308.76 372.546 1302.14 392.87 1302.14 417.784C1302.14 443.025 1309.09 463.677 1322.67 479.412C1336.57 495.146 1354.45 503.014 1376.97 503.014C1399.48 503.014 1417.69 495.146 1431.27 479.412ZM1758.08 523.01C1737.22 539.728 1710.73 548.251 1677.95 548.251C1652.45 548.251 1629.94 543.006 1610.4 532.189C1590.87 521.371 1575.97 505.964 1565.37 485.968C1554.77 465.971 1549.48 443.025 1549.48 417.128C1549.48 391.231 1554.77 368.612 1565.7 348.944C1576.3 329.275 1591.53 314.196 1611.39 303.378C1630.93 292.561 1653.78 287.316 1679.6 287.316C1711.72 287.316 1738.21 295.839 1758.74 312.557C1779.27 329.275 1791.85 352.222 1797.15 381.069H1741.19C1737.55 366.318 1730.26 354.844 1719.01 346.321C1708.08 337.798 1694.5 333.209 1678.28 333.209C1656.43 333.209 1638.88 341.076 1625.63 356.483C1612.39 372.218 1605.77 392.214 1605.77 417.128C1605.77 442.369 1612.39 463.021 1625.63 478.756C1638.88 494.491 1656.43 502.358 1678.28 502.358C1695.17 502.358 1709.07 498.097 1720 489.246C1730.93 480.395 1738.21 468.594 1741.52 453.515H1796.82C1791.85 483.345 1778.61 506.292 1758.08 523.01ZM1840.52 196.513H1894.83V414.833L2012.7 290.266H2075.61L1979.59 392.87L2081.9 545.301H2017.34L1940.85 432.207L1895.16 480.067V545.301H1840.85V196.513H1840.52ZM2143.82 461.054C2144.82 474.494 2151.11 485.312 2162.7 493.835C2174.28 502.358 2189.18 506.62 2207.73 506.62C2224.28 506.62 2237.53 503.669 2247.79 497.441C2258.06 491.213 2263.02 483.017 2263.02 472.855C2263.02 464.332 2260.7 457.776 2256.07 453.515C2251.43 449.253 2245.14 445.975 2237.2 444.336C2229.25 442.369 2217 440.73 2200.77 438.763C2178.26 436.141 2159.72 432.535 2145.15 427.946C2130.58 423.356 2118.66 416.472 2110.05 406.638C2101.11 396.804 2096.8 383.691 2096.8 366.973C2096.8 351.238 2101.11 337.47 2110.05 325.342C2118.99 313.213 2131.24 303.706 2146.8 297.15C2162.36 290.594 2180.24 287.316 2199.78 287.316C2232.23 287.316 2258.72 294.528 2278.92 308.623C2299.11 323.047 2310.04 343.043 2312.03 368.94H2259.05C2257.72 357.467 2251.76 347.633 2241.5 340.421C2231.24 332.881 2217.99 329.275 2202.1 329.275C2186.2 329.275 2173.62 332.226 2163.69 338.126C2154.09 344.027 2149.12 352.222 2149.12 362.384C2149.12 369.923 2151.44 375.824 2156.4 379.43C2161.37 383.364 2167.33 385.986 2174.62 387.297C2181.9 388.936 2193.82 390.575 2210.38 392.542C2232.56 394.837 2251.1 398.443 2266.33 403.36C2281.56 408.277 2293.48 415.817 2302.42 426.307C2311.36 436.796 2316 450.892 2316 468.922C2316 484.984 2311.36 498.752 2301.76 510.881C2292.49 523.01 2279.58 532.189 2263.02 538.745C2246.47 545.301 2228.26 548.579 2207.73 548.579C2173.29 548.579 2145.15 540.712 2123.96 525.305C2102.76 509.898 2091.51 488.59 2090.84 461.382H2143.82V461.054Z" fill="white"/>
<path d="M478.086 447.369L563.056 576H499.58L399.832 424.866L300.084 576H236.944L321.914 447.704H200V399.006H600V447.369H478.086Z" fill="white"/>
<path d="M600 302.952V351.651V351.987H200V302.952H319.563L235.6 176H299.076L399.832 329.149L500.924 176H564.4L480.437 302.952H600Z" fill="white"/>
</svg>
