<svg xmlns="http://www.w3.org/2000/svg" xmlns:xlink="http://www.w3.org/1999/xlink" width="500" zoomAndPan="magnify" viewBox="0 0 375 131.249995" height="175" preserveAspectRatio="xMidYMid meet" version="1.0"><defs><g/><clipPath id="9dc910b9bb"><path d="M 8.109375 22.332031 L 99.097656 22.332031 L 99.097656 108.226562 L 8.109375 108.226562 Z M 8.109375 22.332031 " clip-rule="nonzero"/></clipPath></defs><g clip-path="url(#9dc910b9bb)"><path fill="#0e0949" d="M 98.800781 97.152344 C 97.648438 95.300781 93.175781 93.628906 86.503906 92.351562 C 79.859375 78.351562 58.765625 34.40625 54.234375 30.929688 C 48.324219 26.390625 23.714844 19.214844 24.160156 23.808594 C 24.488281 27.175781 31.855469 27.84375 33.785156 32.566406 C 35.390625 36.492188 25.828125 78.082031 22.550781 92.011719 C 15.105469 93.289062 9.996094 95.019531 8.539062 96.957031 C 8.257812 97.335938 8.109375 99.496094 8.109375 99.882812 C 8.109375 104.496094 28.476562 108.226562 53.601562 108.226562 C 78.730469 108.226562 99.097656 104.492188 99.097656 99.882812 C 99.097656 99.5625 98.996094 97.464844 98.800781 97.152344 Z M 98.800781 97.152344 " fill-opacity="1" fill-rule="nonzero"/></g><g fill="#0e0949" fill-opacity="1"><g transform="translate(168.205981, 69.136607)"><g><path d="M 11.6875 -18.125 L 11.6875 0 L 7.078125 0 L 7.078125 -18.125 L 0.421875 -18.125 L 0.421875 -22.015625 L 18.328125 -22.015625 L 18.328125 -18.125 Z M 11.6875 -18.125 "/></g></g></g><g fill="#0e0949" fill-opacity="1"><g transform="translate(188.990268, 69.136607)"><g><path d="M 16.15625 -0.640625 L 16.15625 0 L 11.53125 0 C 11.28125 -0.71875 11.144531 -1.363281 11.125 -1.9375 C 10.351562 -1.09375 9.546875 -0.488281 8.703125 -0.125 C 7.867188 0.238281 6.921875 0.421875 5.859375 0.421875 C 4.367188 0.421875 3.164062 -0.00390625 2.25 -0.859375 C 1.34375 -1.710938 0.890625 -2.867188 0.890625 -4.328125 C 0.890625 -5.691406 1.257812 -6.828125 2 -7.734375 C 2.75 -8.648438 4.085938 -9.269531 6.015625 -9.59375 L 9.078125 -10.0625 C 9.847656 -10.175781 10.359375 -10.328125 10.609375 -10.515625 C 10.867188 -10.703125 11 -11.007812 11 -11.4375 C 11 -12.050781 10.78125 -12.515625 10.34375 -12.828125 C 9.90625 -13.148438 9.1875 -13.3125 8.1875 -13.3125 C 6.570312 -13.3125 5.691406 -12.550781 5.546875 -11.03125 L 1.40625 -11.03125 C 1.570312 -12.894531 2.203125 -14.3125 3.296875 -15.28125 C 4.390625 -16.25 6.148438 -16.734375 8.578125 -16.734375 C 10.660156 -16.734375 12.285156 -16.320312 13.453125 -15.5 C 14.617188 -14.6875 15.203125 -13.566406 15.203125 -12.140625 L 15.203125 -3.03125 C 15.203125 -2.28125 15.28125 -1.722656 15.4375 -1.359375 C 15.59375 -1.003906 15.832031 -0.765625 16.15625 -0.640625 Z M 11 -5.921875 L 11 -7.9375 C 10.632812 -7.71875 10.238281 -7.539062 9.8125 -7.40625 C 9.382812 -7.269531 8.757812 -7.140625 7.9375 -7.015625 C 7.019531 -6.898438 6.332031 -6.648438 5.875 -6.265625 C 5.414062 -5.890625 5.1875 -5.332031 5.1875 -4.59375 C 5.1875 -4 5.367188 -3.523438 5.734375 -3.171875 C 6.097656 -2.816406 6.578125 -2.640625 7.171875 -2.640625 C 7.804688 -2.640625 8.421875 -2.773438 9.015625 -3.046875 C 9.609375 -3.328125 10.085938 -3.71875 10.453125 -4.21875 C 10.816406 -4.71875 11 -5.285156 11 -5.921875 Z M 11 -5.921875 "/></g></g></g><g fill="#0e0949" fill-opacity="1"><g transform="translate(208.08852, 69.136607)"><g><path d="M 17.71875 -8.34375 C 17.71875 -6.644531 17.445312 -5.128906 16.90625 -3.796875 C 16.363281 -2.472656 15.578125 -1.4375 14.546875 -0.6875 C 13.515625 0.0507812 12.285156 0.421875 10.859375 0.421875 C 8.710938 0.421875 7.175781 -0.410156 6.25 -2.078125 L 6.1875 -2.078125 L 6.1875 6.34375 L 1.90625 6.34375 L 1.90625 -16.3125 L 6.015625 -16.3125 L 6.015625 -13.953125 L 6.0625 -13.953125 C 7.144531 -15.804688 8.769531 -16.734375 10.9375 -16.734375 C 12.25 -16.734375 13.421875 -16.390625 14.453125 -15.703125 C 15.484375 -15.023438 16.285156 -14.050781 16.859375 -12.78125 C 17.429688 -11.519531 17.71875 -10.039062 17.71875 -8.34375 Z M 9.78125 -3.09375 C 10.90625 -3.09375 11.773438 -3.566406 12.390625 -4.515625 C 13.003906 -5.472656 13.3125 -6.65625 13.3125 -8.0625 C 13.3125 -9.613281 13 -10.828125 12.375 -11.703125 C 11.75 -12.585938 10.832031 -13.03125 9.625 -13.03125 C 8.457031 -13.03125 7.5625 -12.582031 6.9375 -11.6875 C 6.320312 -10.800781 6.015625 -9.5 6.015625 -7.78125 C 6.015625 -6.3125 6.347656 -5.160156 7.015625 -4.328125 C 7.691406 -3.503906 8.613281 -3.09375 9.78125 -3.09375 Z M 9.78125 -3.09375 "/></g></g></g><g fill="#0e0949" fill-opacity="1"><g transform="translate(228.872809, 69.136607)"><g><path d="M 11.4375 -16.671875 L 11.4375 -12.328125 C 11.101562 -12.367188 10.710938 -12.390625 10.265625 -12.390625 C 7.585938 -12.390625 6.25 -11.117188 6.25 -8.578125 L 6.25 0 L 1.96875 0 L 1.96875 -16.3125 L 6.0625 -16.3125 L 6.0625 -13.484375 L 6.125 -13.484375 C 6.738281 -14.691406 7.394531 -15.535156 8.09375 -16.015625 C 8.789062 -16.492188 9.628906 -16.734375 10.609375 -16.734375 C 10.710938 -16.734375 10.988281 -16.710938 11.4375 -16.671875 Z M 11.4375 -16.671875 "/></g></g></g><g fill="#0e0949" fill-opacity="1"><g transform="translate(242.851644, 69.136607)"><g><path d="M 17.71875 -8.15625 C 17.71875 -6.394531 17.367188 -4.867188 16.671875 -3.578125 C 15.984375 -2.296875 15.003906 -1.304688 13.734375 -0.609375 C 12.460938 0.078125 11.007812 0.421875 9.375 0.421875 C 7.738281 0.421875 6.285156 0.078125 5.015625 -0.609375 C 3.753906 -1.304688 2.773438 -2.296875 2.078125 -3.578125 C 1.390625 -4.867188 1.046875 -6.394531 1.046875 -8.15625 C 1.046875 -9.914062 1.394531 -11.441406 2.09375 -12.734375 C 2.800781 -14.035156 3.785156 -15.023438 5.046875 -15.703125 C 6.316406 -16.390625 7.757812 -16.734375 9.375 -16.734375 C 11.007812 -16.734375 12.460938 -16.382812 13.734375 -15.6875 C 15.003906 -15 15.984375 -14.007812 16.671875 -12.71875 C 17.367188 -11.4375 17.71875 -9.914062 17.71875 -8.15625 Z M 9.375 -3.1875 C 10.6875 -3.1875 11.671875 -3.617188 12.328125 -4.484375 C 12.984375 -5.359375 13.3125 -6.582031 13.3125 -8.15625 C 13.3125 -9.726562 12.976562 -10.945312 12.3125 -11.8125 C 11.644531 -12.6875 10.65625 -13.125 9.34375 -13.125 C 8.101562 -13.125 7.144531 -12.691406 6.46875 -11.828125 C 5.789062 -10.972656 5.453125 -9.75 5.453125 -8.15625 C 5.453125 -6.539062 5.785156 -5.304688 6.453125 -4.453125 C 7.117188 -3.609375 8.09375 -3.1875 9.375 -3.1875 Z M 9.375 -3.1875 "/></g></g></g><g fill="#0e0949" fill-opacity="1"><g transform="translate(263.635933, 69.136607)"><g><path d="M 17.71875 -8.15625 C 17.71875 -6.394531 17.367188 -4.867188 16.671875 -3.578125 C 15.984375 -2.296875 15.003906 -1.304688 13.734375 -0.609375 C 12.460938 0.078125 11.007812 0.421875 9.375 0.421875 C 7.738281 0.421875 6.285156 0.078125 5.015625 -0.609375 C 3.753906 -1.304688 2.773438 -2.296875 2.078125 -3.578125 C 1.390625 -4.867188 1.046875 -6.394531 1.046875 -8.15625 C 1.046875 -9.914062 1.394531 -11.441406 2.09375 -12.734375 C 2.800781 -14.035156 3.785156 -15.023438 5.046875 -15.703125 C 6.316406 -16.390625 7.757812 -16.734375 9.375 -16.734375 C 11.007812 -16.734375 12.460938 -16.382812 13.734375 -15.6875 C 15.003906 -15 15.984375 -14.007812 16.671875 -12.71875 C 17.367188 -11.4375 17.71875 -9.914062 17.71875 -8.15625 Z M 9.375 -3.1875 C 10.6875 -3.1875 11.671875 -3.617188 12.328125 -4.484375 C 12.984375 -5.359375 13.3125 -6.582031 13.3125 -8.15625 C 13.3125 -9.726562 12.976562 -10.945312 12.3125 -11.8125 C 11.644531 -12.6875 10.65625 -13.125 9.34375 -13.125 C 8.101562 -13.125 7.144531 -12.691406 6.46875 -11.828125 C 5.789062 -10.972656 5.453125 -9.75 5.453125 -8.15625 C 5.453125 -6.539062 5.785156 -5.304688 6.453125 -4.453125 C 7.117188 -3.609375 8.09375 -3.1875 9.375 -3.1875 Z M 9.375 -3.1875 "/></g></g></g><g fill="#0e0949" fill-opacity="1"><g transform="translate(284.420222, 69.136607)"><g><path d="M 9.46875 -16.3125 L 9.46875 -13.25 L 6.8125 -13.25 L 6.8125 -4.140625 C 6.8125 -3.710938 6.925781 -3.425781 7.15625 -3.28125 C 7.394531 -3.132812 7.859375 -3.0625 8.546875 -3.0625 C 8.710938 -3.0625 9.019531 -3.082031 9.46875 -3.125 L 9.46875 0.125 C 8.320312 0.164062 7.554688 0.1875 7.171875 0.1875 C 5.867188 0.1875 4.878906 0.0507812 4.203125 -0.21875 C 3.523438 -0.5 3.070312 -0.890625 2.84375 -1.390625 C 2.625 -1.890625 2.515625 -2.550781 2.515625 -3.375 L 2.515625 -13.25 L 0.3125 -13.25 L 0.3125 -16.3125 L 2.515625 -16.3125 L 2.515625 -20.71875 L 6.8125 -20.71875 L 6.8125 -16.3125 Z M 9.46875 -16.3125 "/></g></g></g><g fill="#0e0949" fill-opacity="1"><g transform="translate(166.488746, 111.902231)"><g><path d="M 8.890625 -5.921875 L 8.953125 -5.921875 C 9.628906 -9.773438 10.648438 -15.140625 12.015625 -22.015625 L 16.890625 -22.015625 L 19.09375 -11.59375 C 19.28125 -10.707031 19.441406 -9.867188 19.578125 -9.078125 C 19.722656 -8.296875 19.859375 -7.585938 19.984375 -6.953125 L 20.171875 -5.921875 L 20.234375 -5.921875 L 20.78125 -8.859375 C 20.96875 -9.816406 21.734375 -13.140625 23.078125 -18.828125 L 23.8125 -22.015625 L 28.484375 -22.015625 L 22.28125 0 L 17.875 0 C 16.257812 -7.519531 15.125 -13.242188 14.46875 -17.171875 L 14.40625 -17.171875 C 14 -14.535156 13.394531 -11.359375 12.59375 -7.640625 L 11 0 L 6.71875 0 L 0.484375 -22.015625 L 5.390625 -22.015625 C 6.210938 -18.554688 6.957031 -15.289062 7.625 -12.21875 C 8.300781 -9.144531 8.722656 -7.046875 8.890625 -5.921875 Z M 8.890625 -5.921875 "/></g></g></g><g fill="#0e0949" fill-opacity="1"><g transform="translate(197.481205, 111.902231)"><g><path d="M 2.109375 -18.234375 L 2.109375 -22.21875 L 6.40625 -22.21875 L 6.40625 -18.234375 Z M 2.109375 0 L 2.109375 -16.3125 L 6.40625 -16.3125 L 6.40625 0 Z M 2.109375 0 "/></g></g></g><g fill="#0e0949" fill-opacity="1"><g transform="translate(208.057317, 111.902231)"><g><path d="M 6.15625 -3.53125 L 14.71875 -3.53125 L 14.71875 0 L 0.609375 0 L 0.609375 -3.34375 L 8.984375 -12.875 L 1.203125 -12.875 L 1.203125 -16.3125 L 14.40625 -16.3125 L 14.40625 -12.78125 Z M 6.15625 -3.53125 "/></g></g></g><g fill="#0e0949" fill-opacity="1"><g transform="translate(225.438878, 111.902231)"><g><path d="M 16.15625 -0.640625 L 16.15625 0 L 11.53125 0 C 11.28125 -0.71875 11.144531 -1.363281 11.125 -1.9375 C 10.351562 -1.09375 9.546875 -0.488281 8.703125 -0.125 C 7.867188 0.238281 6.921875 0.421875 5.859375 0.421875 C 4.367188 0.421875 3.164062 -0.00390625 2.25 -0.859375 C 1.34375 -1.710938 0.890625 -2.867188 0.890625 -4.328125 C 0.890625 -5.691406 1.257812 -6.828125 2 -7.734375 C 2.75 -8.648438 4.085938 -9.269531 6.015625 -9.59375 L 9.078125 -10.0625 C 9.847656 -10.175781 10.359375 -10.328125 10.609375 -10.515625 C 10.867188 -10.703125 11 -11.007812 11 -11.4375 C 11 -12.050781 10.78125 -12.515625 10.34375 -12.828125 C 9.90625 -13.148438 9.1875 -13.3125 8.1875 -13.3125 C 6.570312 -13.3125 5.691406 -12.550781 5.546875 -11.03125 L 1.40625 -11.03125 C 1.570312 -12.894531 2.203125 -14.3125 3.296875 -15.28125 C 4.390625 -16.25 6.148438 -16.734375 8.578125 -16.734375 C 10.660156 -16.734375 12.285156 -16.320312 13.453125 -15.5 C 14.617188 -14.6875 15.203125 -13.566406 15.203125 -12.140625 L 15.203125 -3.03125 C 15.203125 -2.28125 15.28125 -1.722656 15.4375 -1.359375 C 15.59375 -1.003906 15.832031 -0.765625 16.15625 -0.640625 Z M 11 -5.921875 L 11 -7.9375 C 10.632812 -7.71875 10.238281 -7.539062 9.8125 -7.40625 C 9.382812 -7.269531 8.757812 -7.140625 7.9375 -7.015625 C 7.019531 -6.898438 6.332031 -6.648438 5.875 -6.265625 C 5.414062 -5.890625 5.1875 -5.332031 5.1875 -4.59375 C 5.1875 -4 5.367188 -3.523438 5.734375 -3.171875 C 6.097656 -2.816406 6.578125 -2.640625 7.171875 -2.640625 C 7.804688 -2.640625 8.421875 -2.773438 9.015625 -3.046875 C 9.609375 -3.328125 10.085938 -3.71875 10.453125 -4.21875 C 10.816406 -4.71875 11 -5.285156 11 -5.921875 Z M 11 -5.921875 "/></g></g></g><g fill="#0e0949" fill-opacity="1"><g transform="translate(244.537128, 111.902231)"><g><path d="M 11.4375 -16.671875 L 11.4375 -12.328125 C 11.101562 -12.367188 10.710938 -12.390625 10.265625 -12.390625 C 7.585938 -12.390625 6.25 -11.117188 6.25 -8.578125 L 6.25 0 L 1.96875 0 L 1.96875 -16.3125 L 6.0625 -16.3125 L 6.0625 -13.484375 L 6.125 -13.484375 C 6.738281 -14.691406 7.394531 -15.535156 8.09375 -16.015625 C 8.789062 -16.492188 9.628906 -16.734375 10.609375 -16.734375 C 10.710938 -16.734375 10.988281 -16.710938 11.4375 -16.671875 Z M 11.4375 -16.671875 "/></g></g></g><g fill="#0e0949" fill-opacity="1"><g transform="translate(258.515963, 111.902231)"><g><path d="M 12.6875 0 L 12.6875 -2.046875 L 12.625 -2.046875 C 12.113281 -1.191406 11.441406 -0.566406 10.609375 -0.171875 C 9.785156 0.222656 8.882812 0.421875 7.90625 0.421875 C 6.5 0.421875 5.28125 0.0546875 4.25 -0.671875 C 3.21875 -1.410156 2.425781 -2.4375 1.875 -3.75 C 1.320312 -5.070312 1.046875 -6.601562 1.046875 -8.34375 C 1.046875 -10.039062 1.332031 -11.519531 1.90625 -12.78125 C 2.476562 -14.050781 3.28125 -15.023438 4.3125 -15.703125 C 5.34375 -16.390625 6.507812 -16.734375 7.8125 -16.734375 C 8.851562 -16.734375 9.769531 -16.515625 10.5625 -16.078125 C 11.363281 -15.640625 12.019531 -15.007812 12.53125 -14.1875 L 12.59375 -14.1875 L 12.59375 -22.015625 L 16.890625 -22.015625 L 16.890625 0 Z M 12.78125 -7.78125 C 12.78125 -9.457031 12.46875 -10.75 11.84375 -11.65625 C 11.21875 -12.570312 10.296875 -13.03125 9.078125 -13.03125 C 7.929688 -13.03125 7.039062 -12.59375 6.40625 -11.71875 C 5.769531 -10.851562 5.453125 -9.632812 5.453125 -8.0625 C 5.453125 -6.613281 5.769531 -5.421875 6.40625 -4.484375 C 7.039062 -3.554688 7.898438 -3.09375 8.984375 -3.09375 C 10.148438 -3.09375 11.070312 -3.515625 11.75 -4.359375 C 12.4375 -5.210938 12.78125 -6.351562 12.78125 -7.78125 Z M 12.78125 -7.78125 "/></g></g></g><g fill="#0e0949" fill-opacity="1"><g transform="translate(279.300252, 111.902231)"><g><path d="M 15.421875 -11.34375 L 11.21875 -11.34375 C 11.09375 -12.132812 10.800781 -12.6875 10.34375 -13 C 9.882812 -13.320312 9.207031 -13.484375 8.3125 -13.484375 C 7.445312 -13.484375 6.796875 -13.359375 6.359375 -13.109375 C 5.921875 -12.867188 5.703125 -12.460938 5.703125 -11.890625 C 5.703125 -11.441406 6.03125 -11.082031 6.6875 -10.8125 C 7.34375 -10.550781 8.394531 -10.289062 9.84375 -10.03125 C 12.09375 -9.59375 13.664062 -8.984375 14.5625 -8.203125 C 15.457031 -7.429688 15.90625 -6.4375 15.90625 -5.21875 C 15.90625 -3.3125 15.234375 -1.894531 13.890625 -0.96875 C 12.554688 -0.0390625 10.816406 0.421875 8.671875 0.421875 C 6.285156 0.421875 4.394531 -0.0820312 3 -1.09375 C 1.613281 -2.101562 0.921875 -3.476562 0.921875 -5.21875 L 5.328125 -5.21875 C 5.328125 -3.625 6.503906 -2.828125 8.859375 -2.828125 C 9.691406 -2.828125 10.359375 -2.984375 10.859375 -3.296875 C 11.367188 -3.609375 11.625 -4.007812 11.625 -4.5 C 11.625 -5 11.300781 -5.378906 10.65625 -5.640625 C 10.007812 -5.910156 8.859375 -6.195312 7.203125 -6.5 C 5.285156 -6.84375 3.851562 -7.394531 2.90625 -8.15625 C 1.96875 -8.925781 1.5 -9.96875 1.5 -11.28125 C 1.5 -12.914062 2.082031 -14.234375 3.25 -15.234375 C 4.414062 -16.234375 6.03125 -16.734375 8.09375 -16.734375 C 10.488281 -16.734375 12.28125 -16.265625 13.46875 -15.328125 C 14.664062 -14.390625 15.316406 -13.0625 15.421875 -11.34375 Z M 15.421875 -11.34375 "/></g></g></g></svg>