<svg width="133" height="42" viewBox="0 0 133 42" fill="none" xmlns="http://www.w3.org/2000/svg"><g clip-path="url(#clip0_552_2949)"><path d="M15.0812 0C6.75213 0 -0.000205994 9.40212 -0.000205994 21C-0.000205994 32.5979 6.75213 42 15.0812 42C23.4102 42 30.1625 32.5979 30.1625 21C30.1625 9.40212 23.4106 0 15.0812 0ZM21.7638 33.7319C21.7638 33.9457 21.5903 34.1191 21.3765 34.1191H15.0803C11.3894 34.1191 8.39769 31.1275 8.39769 27.4365V21.1403C8.39769 20.9265 8.57115 20.753 8.78493 20.753H14.7174C14.7817 20.753 14.8342 20.7005 14.8342 20.6363V14.6807C14.8342 14.6164 14.7817 14.5639 14.7174 14.5639H8.78535C8.57157 14.5639 8.39811 14.3905 8.39811 14.1767V8.26812C8.39811 8.05434 8.57157 7.88088 8.78535 7.88088H14.6939C14.9077 7.88088 15.0812 8.05434 15.0812 8.26812V14.1998C15.0812 14.264 15.1337 14.3165 15.1979 14.3165H21.1304C21.3442 14.3165 21.5177 14.49 21.5177 14.7038V20.6123C21.5177 20.8261 21.3442 20.9996 21.1304 20.9996H15.1979C15.1337 20.9996 15.0812 21.0521 15.0812 21.1163V25.0853C15.0812 26.3831 16.1337 27.4357 17.4315 27.4357H21.3765C21.5903 27.4357 21.7638 27.6091 21.7638 27.8229V33.7315V33.7319ZM48.1814 22.3713H46.5161C45.1506 22.3713 44.1741 22.0748 43.6143 21.4897C43.054 20.9059 42.7709 19.8782 42.7709 18.4351V12.3509C42.7709 12.2745 42.7088 12.214 42.6336 12.214H40.5806C40.5042 12.214 40.4437 12.1523 40.4437 12.0771V9.94644C40.4437 9.87 40.5059 9.80952 40.5806 9.80952H42.6336C42.71 9.80952 42.7709 9.74778 42.7709 9.6726V6.42684C42.7709 6.3504 42.8327 6.28992 42.9078 6.28992H45.3745C45.4509 6.28992 45.5118 6.35208 45.5118 6.42684V9.6726C45.5118 9.74904 45.5736 9.80952 45.6488 9.80952H47.8941C47.9705 9.80952 48.0314 9.87168 48.0314 9.94644V12.0771C48.0314 12.1535 47.9693 12.214 47.8941 12.214H45.6488C45.5723 12.214 45.5118 12.2762 45.5118 12.3509V18.53C45.5118 19.5132 45.9965 19.9899 46.9957 19.9899H48.1814C48.2578 19.9899 48.3187 20.0521 48.3187 20.1268V22.234C48.3187 22.3104 48.2565 22.3709 48.1814 22.3709V22.3713ZM56.5415 12.4656C54.1865 12.4656 53.0429 13.6807 53.0429 16.1805V22.2344C53.0429 22.3108 52.9807 22.3713 52.9055 22.3713H50.4389C50.3624 22.3713 50.3019 22.3091 50.3019 22.2344V9.93804C50.3019 9.8616 50.3637 9.80112 50.4389 9.80112H52.882C52.9584 9.80112 53.0189 9.86328 53.0189 9.93804V11.1161C53.0189 11.2493 53.1865 11.3018 53.2655 11.1964C53.9467 10.2833 54.9719 9.82044 56.3251 9.82044H56.9829C57.0593 9.82044 57.1198 9.88218 57.1198 9.95736V12.3278C57.1198 12.4043 57.0581 12.4648 56.9829 12.4648H56.5415V12.4656ZM60.5512 13.818C60.6041 13.8188 60.6507 13.7827 60.6625 13.7315C60.9502 12.4916 61.8855 11.8889 63.5202 11.8889C64.9709 11.8889 65.676 12.3463 65.676 13.2859C65.676 13.7193 65.5521 14.0343 65.3069 14.2241C65.0502 14.4232 64.6865 14.5534 64.2249 14.6143L61.6109 15.0125C60.5617 15.1691 59.6369 15.5131 58.8607 16.0322C58.0988 16.5329 57.7128 17.4094 57.7128 18.6388C57.7128 19.7534 58.0833 20.6548 58.812 21.3179C59.5377 21.9782 60.5407 22.3142 61.7927 22.3142C63.3371 22.3142 64.5676 21.7951 65.461 20.7686C65.5429 20.6737 65.6983 20.7358 65.6983 20.8597V22.1777C65.6983 22.2529 65.7588 22.3146 65.8352 22.3146H68.1822C68.2574 22.3146 68.3195 22.2541 68.3195 22.1777V13.6609C68.3195 12.3577 67.9083 11.3614 67.0965 10.6974V10.6961C66.2901 10.0372 65.1279 9.70368 63.6399 9.70368C62.0586 9.70368 60.757 10.0712 59.7683 10.7986C58.8095 11.5034 58.2366 12.4664 58.0669 13.6597C58.0572 13.7277 58.1089 13.7894 58.1778 13.7903L60.5512 13.8193V13.818ZM65.6021 16.9067C65.6021 17.8395 65.2976 18.6026 64.697 19.1717C64.096 19.7438 63.3119 20.0323 62.3673 20.0323L62.3698 20.0336C61.7398 20.0336 61.2484 19.8992 60.9069 19.6342C60.5697 19.3708 60.405 19.0067 60.405 18.5207C60.405 17.8987 60.6159 17.4758 61.0481 17.228C61.5 16.9856 62.0296 16.8155 62.6226 16.7244L64.0141 16.5136C64.5584 16.4279 65.033 16.3304 65.432 16.2225C65.5177 16.199 65.6021 16.2658 65.6021 16.3544V16.9067ZM88.6181 22.3726H86.175C86.0985 22.3726 86.0381 22.3104 86.0381 22.2356V14.4795C86.0381 12.868 85.3396 12.0838 83.9057 12.0838C82.2123 12.0838 81.3903 13.1418 81.3903 15.3191V22.2361C81.3903 22.3125 81.3282 22.373 81.253 22.373H78.7863C78.7099 22.373 78.6494 22.3108 78.6494 22.2361V14.4799C78.6494 12.8684 77.951 12.0842 76.5171 12.0842C75.7052 12.0842 75.0781 12.361 74.6527 12.9091C74.2201 13.4639 74.0017 14.2666 74.0017 15.2943V22.2361C74.0017 22.3125 73.9395 22.373 73.8644 22.373H71.3977C71.3213 22.373 71.2608 22.3108 71.2608 22.2361V9.93552C71.2608 9.85908 71.3225 9.7986 71.3977 9.7986H73.8408C73.9173 9.7986 73.9778 9.86034 73.9778 9.93552V11.0515C73.9778 11.1846 74.1529 11.24 74.2268 11.1292C74.8568 10.1816 75.8728 9.702 77.2617 9.702C78.9417 9.702 80.0778 10.3807 80.6444 11.7209C80.6889 11.8276 80.8355 11.8343 80.8893 11.7327C81.6075 10.3845 82.8213 9.702 84.5055 9.702L84.5067 9.70326C85.823 9.70326 86.8705 10.075 87.6219 10.81C88.3741 11.5466 88.755 12.5782 88.755 13.8789V22.2348C88.755 22.3112 88.6933 22.3717 88.6181 22.3717V22.3726ZM108.055 10.8091C108.807 11.5458 109.188 12.5773 109.188 13.8781V22.234C109.188 22.3104 109.126 22.3709 109.051 22.3709H106.608C106.532 22.3709 106.471 22.3087 106.471 22.234V14.4778C106.471 12.8663 105.773 12.0821 104.339 12.0821C102.645 12.0821 101.823 13.1401 101.823 15.317V22.234C101.823 22.3104 101.761 22.3709 101.686 22.3709H99.2193C99.1429 22.3709 99.0824 22.3087 99.0824 22.234V14.4778C99.0824 12.8663 98.384 12.0821 96.9501 12.0821C96.1382 12.0821 95.5112 12.3589 95.0857 12.907C94.6535 13.4618 94.4347 14.2645 94.4347 15.2922V22.234C94.4347 22.3104 94.3725 22.3709 94.2973 22.3709H91.8307C91.7542 22.3709 91.6938 22.3087 91.6938 22.234V9.94224C91.6938 9.8658 91.7555 9.80532 91.8307 9.80532H94.2738C94.3503 9.80532 94.4108 9.86748 94.4108 9.94224V11.0519C94.4108 11.185 94.5863 11.2405 94.6598 11.1296C95.2898 10.1821 96.3058 9.70242 97.6947 9.70242C99.3747 9.70242 100.511 10.3811 101.077 11.7214C101.122 11.828 101.269 11.8348 101.322 11.7331C102.04 10.3849 103.254 9.70242 104.938 9.70242H104.94C106.256 9.70242 107.304 10.0741 108.055 10.8091ZM120.17 18.4548C120.142 18.4548 120.117 18.4712 120.106 18.4968C119.633 19.5804 118.687 20.1083 117.217 20.1083C116.146 20.1083 115.289 19.8051 114.671 19.2083C114.103 18.6589 113.792 17.9075 113.748 16.9722C113.744 16.8945 113.807 16.8298 113.884 16.8298H122.528C122.603 16.8298 122.665 16.7693 122.665 16.6929V15.6979C122.665 13.8965 122.156 12.4324 121.152 11.3455C120.145 10.2568 118.789 9.70494 117.122 9.70494H117.121C115.358 9.70494 113.91 10.3005 112.816 11.4748C111.724 12.6462 111.17 14.2103 111.17 16.1213C111.17 18.0323 111.708 19.5292 112.767 20.6623C113.828 21.7967 115.26 22.373 117.025 22.373C118.414 22.373 119.615 22.0198 120.596 21.3213C121.553 20.6392 122.246 19.6799 122.566 18.5569C122.579 18.5128 122.545 18.4691 122.5 18.4691L120.17 18.4556V18.4548ZM119.901 14.8226H113.933C113.85 14.8226 113.786 14.75 113.798 14.6685C113.913 13.8806 114.243 13.2413 114.778 12.7655C115.373 12.2371 116.144 11.9683 117.074 11.9683C118.002 11.9683 118.735 12.2346 119.258 12.7604C119.733 13.2401 119.995 13.8844 120.038 14.6803C120.043 14.758 119.979 14.8226 119.901 14.8226ZM127.424 5.2584V22.2335C127.424 22.3091 127.363 22.3705 127.288 22.3705H124.822C124.746 22.3705 124.685 22.3091 124.685 22.2335V5.25882C124.685 5.18322 124.746 5.1219 124.822 5.1219H127.288C127.363 5.1219 127.424 5.18322 127.424 5.25882V5.2584ZM129.829 22.2335V5.25882C129.829 5.18322 129.89 5.1219 129.965 5.1219H132.431C132.507 5.1219 132.568 5.18322 132.568 5.25882V22.234C132.568 22.3096 132.507 22.3709 132.431 22.3709H129.965C129.89 22.3709 129.829 22.3096 129.829 22.234V22.2335ZM46.099 28.8557L43.8566 34.587C43.844 34.6189 43.8134 34.6399 43.7789 34.6399H42.9015C42.8671 34.6399 42.8364 34.6189 42.8243 34.587L40.5819 28.8557C40.5605 28.8011 40.6008 28.7423 40.6592 28.7423H41.5281C41.563 28.7423 41.5941 28.7641 41.6058 28.7969L43.2791 33.3661C43.306 33.4387 43.4089 33.4387 43.4354 33.3661L45.1091 28.7969C45.1208 28.7641 45.1519 28.7423 45.1868 28.7423H46.0213C46.0797 28.7423 46.12 28.8011 46.0986 28.8557H46.099ZM49.7685 28.6377C48.9831 28.6377 48.3292 28.9019 47.8046 29.4302C47.28 29.9586 47.018 30.7121 47.018 31.6911C47.018 32.6701 47.28 33.4278 47.8046 33.9637C48.3292 34.4996 48.9794 34.768 49.7568 34.768C50.3549 34.768 50.8912 34.6126 51.365 34.3018C51.8034 34.0099 52.1046 33.5866 52.268 33.0326C52.2835 32.9797 52.2432 32.9267 52.1882 32.9267H51.3998C51.3654 32.9267 51.3347 32.9482 51.3225 32.9805C51.2175 33.2585 51.0353 33.4795 50.7761 33.6437C50.5002 33.8184 50.1755 33.9058 49.8026 33.9058C49.2587 33.9058 48.8193 33.7327 48.4859 33.3871C48.1675 33.0578 47.9936 32.6033 47.9646 32.0233C47.9621 31.9759 47.9999 31.936 48.0474 31.936H52.2604C52.3062 31.936 52.3436 31.8986 52.3436 31.8528V31.4811C52.3436 30.5722 52.1029 29.8708 51.6207 29.3773C51.139 28.8842 50.5527 28.6373 49.7681 28.6373L49.7685 28.6377ZM51.2915 31.1552H48.0789C48.0285 31.1552 47.9894 31.1107 47.9966 31.0611C48.0688 30.5558 48.2532 30.1699 48.5497 29.9027C48.8643 29.6192 49.2549 29.4773 49.7442 29.4773C50.2335 29.4773 50.6279 29.631 50.9273 29.9376C51.2091 30.227 51.3587 30.6046 51.3746 31.0699C51.3763 31.1165 51.3385 31.1552 51.2915 31.1552ZM59.0447 30.6424H59.0451V34.5568C59.0451 34.6025 59.0077 34.6399 58.9619 34.6399H58.1606C58.1148 34.6399 58.0774 34.6025 58.0774 34.5568V30.7356C58.0774 30.3706 57.9648 30.0754 57.7397 29.8498C57.5142 29.6243 57.1992 29.5117 56.7951 29.5117C56.2668 29.5117 55.8451 29.7003 55.5309 30.077C55.2164 30.4542 55.0589 30.9687 55.0589 31.6214V34.5568C55.0589 34.6025 55.0215 34.6399 54.9757 34.6399H54.1743C54.1286 34.6399 54.0912 34.6025 54.0912 34.5568V28.8259C54.0912 28.7801 54.1286 28.7427 54.1743 28.7427H54.9644C55.0101 28.7427 55.0471 28.7801 55.0471 28.8259V29.4689C55.0471 29.5508 55.1525 29.5831 55.1987 29.5155C55.5994 28.9304 56.1899 28.6377 56.9699 28.6377C57.5994 28.6377 58.1022 28.8166 58.4793 29.1736C58.8561 29.531 59.0442 30.0208 59.0442 30.6419L59.0447 30.6424ZM64.0099 33.8604V34.5568C64.0099 34.6025 63.9725 34.6399 63.9267 34.6399H63.159C62.6462 34.6399 62.2421 34.5349 61.9473 34.3253C61.6596 34.1078 61.5159 33.6886 61.5159 33.0666V29.6881C61.5159 29.6423 61.4785 29.605 61.4328 29.605H60.468C60.4223 29.605 60.3853 29.5676 60.3853 29.5218V28.8254C60.3853 28.7797 60.4223 28.7423 60.468 28.7423H61.4328C61.4785 28.7423 61.5159 28.7049 61.5159 28.6591V27.2513C61.5159 27.2055 61.5525 27.1685 61.5983 27.1681L62.3996 27.1627C62.4458 27.1627 62.4832 27.1996 62.4832 27.2458V28.6591C62.4832 28.7049 62.5206 28.7423 62.5664 28.7423H63.7869C63.8327 28.7423 63.87 28.7797 63.87 28.8254V29.5218C63.87 29.5676 63.8327 29.605 63.7869 29.605H62.5664C62.5206 29.605 62.4832 29.6423 62.4832 29.6881V32.9498C62.4832 33.2451 62.5395 33.4568 62.6525 33.5853C62.7646 33.7134 62.9687 33.7777 63.2644 33.7777H63.9272C63.9729 33.7777 64.0103 33.815 64.0103 33.8608L64.0099 33.8604ZM70.4313 28.8259V34.5568C70.4313 34.6025 70.3939 34.6399 70.3481 34.6399H69.5703C69.5245 34.6399 69.4871 34.6025 69.4871 34.5568V33.902C69.4871 33.8201 69.3817 33.7882 69.3351 33.8558C68.9449 34.4253 68.3775 34.7101 67.6341 34.7101C67.0435 34.7101 66.5543 34.5236 66.1658 34.1506C65.7773 33.7777 65.5828 33.2573 65.5828 32.5891V28.8259C65.5828 28.7801 65.6202 28.7427 65.666 28.7427H66.4673C66.5131 28.7427 66.5505 28.7801 66.5505 28.8259V32.4257C66.5505 32.8763 66.6689 33.2262 66.9058 33.4748C67.1431 33.7235 67.4556 33.8478 67.8445 33.8478C68.2947 33.8478 68.6778 33.6596 68.9928 33.2825C69.3074 32.9057 69.4649 32.387 69.4649 31.7264V28.8259C69.4649 28.7801 69.5018 28.7427 69.5476 28.7427H70.349C70.3947 28.7427 70.4321 28.7801 70.4321 28.8259H70.4313ZM75.6292 28.7675V29.5222C75.6292 29.568 75.5918 29.6054 75.546 29.6054H75.3612C74.7707 29.6054 74.3217 29.7725 74.0151 30.1064C73.7081 30.4408 73.5548 30.9301 73.5548 31.5748V34.5568C73.5548 34.6025 73.5174 34.6399 73.4716 34.6399H72.6703C72.6245 34.6399 72.5871 34.603 72.5871 34.5568V28.8259C72.5871 28.7801 72.6245 28.7427 72.6703 28.7427H73.4599C73.5061 28.7427 73.5431 28.7801 73.5431 28.8259V29.4239C73.5431 29.5067 73.6518 29.539 73.6959 29.4689C74.0252 28.946 74.5767 28.6847 75.3495 28.6847H75.546C75.5918 28.6847 75.6292 28.7221 75.6292 28.7679V28.7675ZM79.3122 28.6377C78.5272 28.6377 77.8728 28.9019 77.3483 29.4302C76.8237 29.9586 76.5616 30.7121 76.5616 31.6911C76.5616 32.6701 76.8237 33.4278 77.3483 33.9637C77.8728 34.4996 78.5238 34.768 79.3004 34.768C79.8985 34.768 80.4344 34.6126 80.9086 34.3018C81.3475 34.0099 81.6482 33.5866 81.812 33.0326C81.8276 32.9797 81.7872 32.9267 81.7318 32.9267H80.9439C80.9094 32.9267 80.8784 32.9482 80.8662 32.9805C80.7612 33.2585 80.5789 33.4795 80.3198 33.6437C80.0438 33.8184 79.7196 33.9058 79.3466 33.9058C78.8023 33.9058 78.3634 33.7327 78.0299 33.3871C77.7111 33.0578 77.5372 32.6033 77.5083 32.0233C77.5062 31.9759 77.544 31.936 77.5914 31.936H81.8045C81.8502 31.936 81.8872 31.8986 81.8872 31.8528V31.4811C81.8872 30.5722 81.6465 29.8708 81.1648 29.3773C80.6831 28.8842 80.0972 28.6373 79.3118 28.6373L79.3122 28.6377ZM80.8355 31.1552H77.6225C77.5721 31.1552 77.5331 31.1107 77.5402 31.0611C77.6124 30.5558 77.7968 30.1699 78.0933 29.9027C78.4083 29.6192 78.7989 29.4773 79.2878 29.4773C79.7767 29.4773 80.1719 29.631 80.4705 29.9376C80.7523 30.227 80.9019 30.6046 80.9178 31.0699C80.9195 31.1165 80.8817 31.1552 80.8351 31.1552H80.8355ZM89.6488 28.6381C89.1515 28.6381 88.7319 28.7545 88.3905 28.9876C88.1481 29.1526 87.9549 29.3567 87.81 29.5999C87.7672 29.6722 87.6563 29.6402 87.6563 29.5567V28.8263C87.6563 28.7805 87.6189 28.7431 87.5732 28.7431H86.8067C86.7609 28.7431 86.7235 28.7805 86.7235 28.8263V36.7949C86.7235 36.8407 86.7609 36.8781 86.8067 36.8781H87.608C87.6538 36.8781 87.6912 36.8407 87.6912 36.7949V33.9389C87.6912 33.8591 87.7932 33.8251 87.8407 33.8894C87.9986 34.1036 88.201 34.2783 88.4489 34.4131C88.7828 34.5958 89.1675 34.687 89.6026 34.687C90.3565 34.687 90.997 34.4228 91.5258 33.8944C92.0541 33.3661 92.3183 32.6126 92.3183 31.6336C92.3183 30.6701 92.06 29.93 91.5434 29.4134C91.0264 28.8968 90.3956 28.6385 89.6492 28.6385L89.6488 28.6381ZM90.8315 33.2707C90.4934 33.6399 90.0562 33.8243 89.5207 33.8243C88.9852 33.8243 88.5509 33.642 88.2212 33.2766C87.8911 32.9116 87.726 32.3908 87.726 31.6915C87.726 30.9922 87.8953 30.4584 88.233 30.0892C88.5711 29.7205 89.0276 29.5357 89.5556 29.5357C90.0835 29.5357 90.5136 29.7205 90.8433 30.0892C91.1734 30.4584 91.3389 30.9847 91.3389 31.6684C91.3389 32.3522 91.1696 32.902 90.8315 33.2707ZM96.4553 28.6381C95.748 28.6381 95.1579 28.8053 94.6837 29.1392C94.2365 29.4542 93.9622 29.8838 93.861 30.4269C93.8513 30.4781 93.89 30.526 93.9425 30.526H94.7594C94.7967 30.526 94.8295 30.5012 94.8392 30.4651C95.0185 29.8141 95.5418 29.4886 96.4087 29.4886C97.2088 29.4886 97.6086 29.7721 97.6086 30.3395C97.6086 30.5806 97.5347 30.7532 97.3873 30.8582C97.2399 30.9632 96.9795 31.0506 96.6065 31.1203L95.441 31.3186C94.9824 31.3963 94.567 31.5559 94.1945 31.7965C93.8366 32.0296 93.6581 32.4492 93.6581 33.0553C93.6581 33.5836 93.8328 34.0015 94.1827 34.3081C94.5321 34.6151 94.9828 34.7684 95.5342 34.7684C96.3822 34.7684 97.0278 34.4791 97.4721 33.9007C97.52 33.8381 97.6204 33.873 97.6204 33.952V34.5572C97.6204 34.603 97.6578 34.6403 97.7036 34.6403H98.4814C98.5272 34.6403 98.5646 34.603 98.5646 34.5572V30.5147C98.5646 29.2639 97.8611 28.6381 96.4553 28.6381ZM97.5977 32.1111C97.5977 32.6705 97.4171 33.1094 97.0555 33.4282C96.6943 33.747 96.2533 33.9062 95.7329 33.9062C95.0025 33.9062 94.6376 33.5958 94.6376 32.9738C94.6376 32.6474 94.7367 32.4143 94.9349 32.2745C95.1332 32.1346 95.4494 32.0296 95.8849 31.9599L96.596 31.8431C96.9648 31.7839 97.2613 31.7108 97.4852 31.6235C97.5398 31.6021 97.5986 31.6424 97.5986 31.7008V32.1111H97.5977ZM103.704 28.7675V29.5222C103.704 29.568 103.667 29.6054 103.621 29.6054H103.436C102.846 29.6054 102.397 29.7725 102.09 30.1064C101.783 30.4408 101.63 30.9301 101.63 31.5748V34.5568C101.63 34.6025 101.593 34.6399 101.547 34.6399H100.745C100.699 34.6399 100.662 34.603 100.662 34.5568V28.8259C100.662 28.7801 100.699 28.7427 100.745 28.7427H101.535C101.581 28.7427 101.618 28.7801 101.618 28.8259V29.4239C101.618 29.5067 101.727 29.539 101.771 29.4689C102.1 28.946 102.652 28.6847 103.424 28.6847H103.621C103.667 28.6847 103.704 28.7221 103.704 28.7679V28.7675ZM108.144 33.8604V34.5568C108.144 34.6025 108.107 34.6399 108.061 34.6399H107.293C106.781 34.6399 106.377 34.5349 106.082 34.3253C105.794 34.1078 105.65 33.6886 105.65 33.0666V29.6881C105.65 29.6423 105.613 29.605 105.567 29.605H104.603C104.557 29.605 104.52 29.5676 104.52 29.5218V28.8254C104.52 28.7797 104.557 28.7423 104.603 28.7423H105.567C105.613 28.7423 105.65 28.7049 105.65 28.6591V27.2513C105.65 27.2055 105.687 27.1685 105.733 27.1681L106.534 27.1643C106.58 27.1643 106.618 27.2013 106.618 27.2475V28.6587C106.618 28.7045 106.655 28.7419 106.701 28.7419H107.921C107.968 28.7419 108.004 28.7792 108.004 28.825V29.5214C108.004 29.5672 107.968 29.6045 107.921 29.6045H106.701C106.655 29.6045 106.618 29.6419 106.618 29.6877V32.9494C106.618 33.2447 106.674 33.4564 106.787 33.5849C106.899 33.713 107.104 33.7772 107.399 33.7772H108.062C108.108 33.7772 108.145 33.8146 108.145 33.8604H108.144ZM114.164 29.1736C114.541 29.531 114.729 30.0208 114.729 30.6419V34.5563C114.729 34.6021 114.692 34.6395 114.646 34.6395H113.845C113.799 34.6395 113.762 34.6021 113.762 34.5563V30.7352C113.762 30.3702 113.649 30.0749 113.424 29.8494C113.198 29.6239 112.884 29.5113 112.48 29.5113C111.951 29.5113 111.53 29.6999 111.215 30.0766C110.9 30.4538 110.743 30.9683 110.743 31.621V34.5563C110.743 34.6021 110.706 34.6395 110.66 34.6395H109.858C109.813 34.6395 109.776 34.6021 109.776 34.5563V28.8254C109.776 28.7797 109.813 28.7423 109.858 28.7423H110.648C110.694 28.7423 110.732 28.7797 110.732 28.8254V29.4685C110.732 29.5504 110.837 29.5827 110.883 29.5151C111.283 28.93 111.874 28.6373 112.654 28.6373C113.283 28.6373 113.786 28.8162 114.163 29.1732L114.164 29.1736ZM119.17 28.6377C118.384 28.6377 117.73 28.9019 117.206 29.4302C116.681 29.9586 116.419 30.7121 116.419 31.6911C116.419 32.6701 116.681 33.4278 117.206 33.9637C117.73 34.4996 118.381 34.768 119.158 34.768C119.756 34.768 120.292 34.6126 120.766 34.3018C121.205 34.0099 121.506 33.5866 121.67 33.0326C121.685 32.9797 121.645 32.9267 121.589 32.9267H120.801C120.767 32.9267 120.736 32.9482 120.724 32.9805C120.619 33.2585 120.436 33.4795 120.177 33.6437C119.901 33.8184 119.577 33.9058 119.204 33.9058C118.66 33.9058 118.221 33.7327 117.887 33.3871C117.569 33.0578 117.395 32.6033 117.366 32.0233C117.363 31.9759 117.402 31.936 117.449 31.936H121.662C121.708 31.936 121.745 31.8986 121.745 31.8528V31.4811C121.745 30.5722 121.504 29.8708 121.022 29.3773C120.541 28.8842 119.954 28.6373 119.169 28.6373L119.17 28.6377ZM120.693 31.1552H117.48C117.43 31.1552 117.391 31.1107 117.398 31.0611C117.47 30.5558 117.654 30.1699 117.951 29.9027C118.266 29.6192 118.656 29.4773 119.145 29.4773C119.635 29.4773 120.029 29.631 120.328 29.9376C120.61 30.227 120.759 30.6046 120.775 31.0699C120.777 31.1165 120.739 31.1552 120.692 31.1552H120.693ZM126.534 28.7675V29.5222C126.534 29.568 126.497 29.6054 126.452 29.6054H126.266C125.676 29.6054 125.227 29.7725 124.92 30.1064C124.613 30.4408 124.46 30.9301 124.46 31.5748V34.5568C124.46 34.6025 124.423 34.6399 124.377 34.6399H123.576C123.53 34.6399 123.492 34.603 123.492 34.5568V28.8259C123.492 28.7801 123.53 28.7427 123.576 28.7427H124.366C124.411 28.7427 124.448 28.7801 124.448 28.8259V29.4239C124.448 29.5067 124.558 29.539 124.602 29.4689C124.93 28.946 125.482 28.6847 126.255 28.6847H126.452C126.497 28.6847 126.534 28.7221 126.534 28.7679V28.7675ZM132.467 32.915C132.467 33.5135 132.237 33.9717 131.779 34.2901C131.32 34.6088 130.757 34.768 130.089 34.768C129.421 34.768 128.811 34.6009 128.329 34.267C127.871 33.9419 127.606 33.4832 127.534 32.891C127.528 32.8419 127.567 32.7982 127.617 32.7982H128.457C128.497 32.7982 128.531 32.8268 128.539 32.8658C128.604 33.1976 128.773 33.4509 129.046 33.6256C129.338 33.8121 129.708 33.9053 130.159 33.9053C130.548 33.9053 130.859 33.8297 131.092 33.6781C131.325 33.5265 131.441 33.3152 131.441 33.0427C131.441 32.794 131.35 32.6096 131.167 32.4891C130.985 32.3686 130.699 32.2812 130.311 32.227C129.681 32.1262 129.231 32.0405 128.959 31.9708C128.633 31.8856 128.337 31.7222 128.073 31.4811C127.809 31.2404 127.677 30.883 127.677 30.4088C127.677 29.8574 127.885 29.4239 128.301 29.1094C128.716 28.7948 129.258 28.6373 129.926 28.6373C130.594 28.6373 131.146 28.7965 131.604 29.1152C132.04 29.4185 132.272 29.8519 132.301 30.4151C132.303 30.4626 132.265 30.5021 132.218 30.5021H131.391C131.349 30.5021 131.312 30.4697 131.309 30.4273C131.283 30.1447 131.152 29.9233 130.916 29.762C130.66 29.5873 130.33 29.5 129.926 29.5C129.553 29.5 129.251 29.5739 129.022 29.7213C128.793 29.8687 128.678 30.0825 128.678 30.3622C128.678 30.6419 128.795 30.8557 129.028 30.98C129.261 31.1044 129.657 31.2094 130.217 31.2946C130.729 31.3643 131.114 31.4383 131.37 31.516C131.689 31.6016 131.951 31.7608 132.157 31.9939C132.362 32.227 132.466 32.534 132.466 32.9146H132.466L132.467 32.915Z" fill="currentColor"></path></g><defs><clipPath id="clip0_552_2949"><rect width="132.568" height="42" fill="white"></rect></clipPath></defs></svg>
