<?xml version="1.0" encoding="UTF-8"?><svg id="Layer_1" xmlns="http://www.w3.org/2000/svg" viewBox="0 0 466.27 104.45"><defs><style>.cls-1{fill:#002851;}.cls-2{fill:#0095d6;}.cls-3{fill:#fff;}</style></defs><g><path class="cls-1" d="m125.91,63.35v-25.16c0-6.27-.53-8.84-3.02-13.52v-.15h14.73v.15c-2.04,3.85-3.02,7.25-3.02,13.52v24.93c0,12.31,5.21,15.25,13.29,15.25,10.29,0,13.82-6.87,13.82-15.93v-22.89c0-6.8-.98-9.59-5.44-14.88v-.15h14.81v.15c-4.38,5.29-5.44,8.08-5.44,14.88v22.82c0,10.8-4.68,20.09-19.11,20.09-11.18,0-20.62-5.51-20.62-19.11Z"/><path class="cls-1" d="m173.93,81.18c1.43-4.31,1.81-8.08,1.81-15.03v-9.14c0-5.21-1.66-8.08-3.63-10.2v-.15l11.1-4.15v7.55l.3.08c3.4-4.23,7.18-7.25,12.69-7.25,7.1,0,11.03,4.46,11.03,11.33v11.86c0,7.1.15,10.8,1.81,15.11v.15h-11.4v-.15c1.44-4.31,1.74-8.46,1.74-15.03v-10.05c0-4.31-1.96-7.93-7.18-7.93-3.32,0-6.42,1.43-8.69,4.31v13.59c0,6.87.15,10.8,1.74,15.11v.15h-11.33v-.15Z"/><path class="cls-1" d="m246.04,72.65s.06.1.03.16c-2.28,5.47-7.41,9.65-15.14,9.65-10.27,0-17.14-7.55-17.14-19.11s9.52-20.47,19.79-20.47c5.31,0,8.38,1.08,10.21,1.97.08.04.14.12.15.21l1.1,8.79c0,.07-.04.13-.1.15l-.69.17c-.06.01-.12-.01-.15-.06-2.14-3.55-7.01-8.9-11.73-8.9-6.5,0-10.72,5.74-10.72,14.95,0,10.12,5.36,15.63,13.44,15.63,3.73,0,7.47-1.03,10.1-3.76.05-.05.14-.06.19,0l.66.6Z"/><path class="cls-1" d="m250.09,81.18c1.43-4.31,1.74-8.08,1.74-15.03v-29.81c0-5.14-1.66-8.08-3.55-10.12v-.23l11.33-4v28.15h.08c3.4-4.23,7.18-7.25,12.69-7.25,7.1,0,11.1,4.46,11.1,11.33v11.93c0,7.02.15,10.72,1.74,15.03v.15h-11.4v-.15c1.43-4.31,1.81-8.46,1.81-15.03v-10.05c0-4.31-2.04-7.93-7.25-7.93-3.4,0-6.42,1.51-8.76,4.38v13.59c0,6.8.3,10.72,1.89,15.03v.15h-11.4v-.15Z"/><path class="cls-1" d="m290.33,75.21c0-8.46,11.63-14.39,20.17-15.83v-3.58c0-5.36-1.89-7.85-7.33-7.85-3.29,0-7.25.89-10.56,3.18-.05.04-.13.03-.18-.02l-.59-.59s-.05-.13-.01-.18c3.26-4.33,8.89-7.46,15.49-7.46,8.46,0,11.03,5.06,11.03,10.88v20.17c0,2.11.76,3.55,3.02,3.55,1.4,0,2.59-.51,3.91-1.66.05-.05.13-.05.18,0l.51.45s.06.11.03.17c-1.3,2.55-3.86,5.8-8.64,5.8-4.15,0-6.27-2.34-6.72-5.36-2.49,2.95-6.65,5.59-11.71,5.59s-8.61-2.64-8.61-7.25Zm13.14,2.57c2.95,0,5.66-1.28,7.02-2.79v-13.64c-6.42,1.43-12.84,6.31-12.84,11.52,0,3.02,2.19,4.91,5.82,4.91Z"/><path class="cls-1" d="m330.43,81.18c1.06-4.31,1.81-8.16,1.81-15.03v-8.84c0-4.98-1.66-8.01-3.63-10.05v-.6l11.4-4.15v23.56c0,6.72.15,10.8,1.74,15.11v.15h-11.33v-.15Zm.6-51.96c0-2.72,2.04-4.83,4.68-4.83s4.76,2.11,4.76,4.83c0,2.57-2.11,4.68-4.76,4.68s-4.68-2.11-4.68-4.68Z"/><path class="cls-1" d="m348.47,81.18c1.43-4.31,1.81-8.08,1.81-15.03v-9.14c0-5.21-1.66-8.08-3.63-10.2v-.15l11.1-4.15v7.55l.3.08c3.4-4.23,7.18-7.25,12.69-7.25,7.1,0,11.03,4.46,11.03,11.33v11.86c0,7.1.15,10.8,1.81,15.11v.15h-11.4v-.15c1.44-4.31,1.74-8.46,1.74-15.03v-10.05c0-4.31-1.96-7.93-7.18-7.93-3.32,0-6.42,1.43-8.69,4.31v13.59c0,6.87.15,10.8,1.74,15.11v.15h-11.33v-.15Z"/><path class="cls-1" d="m420.3,71.36l.72.54c.05.04.07.11.05.16-2.36,5.7-7.48,10.4-15.37,10.4-10.35,0-17.37-7.78-17.37-19.03,0-12.61,8.99-20.54,17.9-20.54s15.41,8.38,14.65,16.09h-24.62v1.13c0,10.42,5.51,15.71,13.52,15.71,4.11,0,7.63-1.41,10.34-4.44.05-.05.13-.06.18-.02Zm-23.96-14.5l15.37-.35v-.85c0-6.63-2.19-9.66-6.49-9.66-4.93,0-8.18,4.51-8.88,10.86Z"/><path class="cls-1" d="m454.86,44.25v-7.83c0-5.14-1.66-8.16-3.55-10.12v-.15l11.4-4.15v42.65c0,10.72.91,12.61,3.55,14.95v.15l-11.1,2.49v-7.63h-.23c-2.27,4-6.87,7.85-13.44,7.85-9.44,0-15.03-7.63-15.03-18.13,0-11.33,7.02-21.45,20.47-21.45,3.02,0,5.74.53,7.93,1.36Zm-9.37,32.78c4.08,0,7.25-1.89,9.37-4.76v-18.81c-1.43-6.34-5.36-8.23-8.99-8.23-6.72,0-11.03,6.87-11.03,16.47s3.55,15.33,10.65,15.33Z"/></g><g><g><circle class="cls-3" cx="52.23" cy="52.23" r="52.23"/><g><path class="cls-2" d="m40.15,70.64c-4.49,6.8-7.93,13.37-10.56,19.26,6.61,3.98,14.36,6.27,22.64,6.27,24.27,0,43.95-19.68,43.95-43.95,0-.8-.02-1.6-.06-2.39h-4.97c-16.19,0-37-.4-51,20.8Z"/><path class="cls-1" d="m95.71,45.82h-24.99c-30.19,0-47.46,13.37-57.23,27.17-3.32-6.19-5.21-13.26-5.21-20.77,0-24.27,19.68-43.95,43.95-43.95,22.1,0,40.39,16.31,43.48,37.55Z"/></g></g><path class="cls-3" d="m52.57,19.52l.79,2.42c.86,2.63,2.92,4.69,5.55,5.55l2.42.79c.26.09.26.45,0,.54l-2.42.79c-2.63.86-4.69,2.92-5.55,5.55l-.79,2.42c-.09.26-.45.26-.54,0l-.79-2.42c-.86-2.63-2.92-4.69-5.55-5.55l-2.42-.79c-.26-.09-.26-.45,0-.54l2.42-.79c2.63-.86,4.69-2.92,5.55-5.55l.79-2.42c.09-.26.45-.26.54,0Z"/></g></svg>