<svg id="Layer_1" data-name="Layer 1" xmlns="http://www.w3.org/2000/svg" xmlns:xlink="http://www.w3.org/1999/xlink" viewBox="0 0 1080 1080"><defs><style>.cls-1{fill:url(#linear-gradient);}.cls-2{fill:#77c600;}.cls-3{fill:#04325f;}</style><linearGradient id="linear-gradient" x1="262.56" y1="375.22" x2="134.16" y2="553.98" gradientUnits="userSpaceOnUse"><stop offset="0" stop-color="#004178"/><stop offset="0.38" stop-color="#00325e"/><stop offset="0.73" stop-color="#00294d"/><stop offset="0.99" stop-color="#002647"/></linearGradient></defs><path class="cls-1" d="M279.69,464.2c-35.78-54-48.92-106.56-54.23-136.14l-64.33,39.15A433.2,433.2,0,0,0,201.57,473H134.78c-2-2.87-4.05-5.77-6-8.78C93,410.21,79.82,357.64,74.5,328.06L10.17,367.21A429,429,0,0,0,73.21,510,393.63,393.63,0,0,0,180.29,615.83l53-50.67a320.8,320.8,0,0,1-47.84-35.36h53.21a391,391,0,0,0,92.57,86l53-50.67a320.8,320.8,0,0,1-47.85-35.36h47.85V473H285.74C283.71,470.11,281.69,467.21,279.69,464.2Z"/><rect class="cls-2" x="312.74" y="328.06" width="72.91" height="72.91"/><path class="cls-3" d="M586.27,464.88l24.9-88.76h11.76l-27.36,96.42H577.25L555.78,388l-21.34,84.52H516l-27.49-96.42h11.9l24.89,88.76,22.43-88.76h16.68Z"/><path class="cls-3" d="M641.39,472.54H629.22l36-96.42H681.6l36,96.42H705.4l-7.25-19.7H648.78ZM651.51,444h43.9l-21.88-57.71Z"/><path class="cls-3" d="M778,476c-23.66,0-40.62-14.5-40.76-34.6h11.35c0,14.22,12.17,24.48,29.54,24.48,15.87,0,25.58-8.35,25.58-20,0-12.86-13.68-14.77-28.59-16.69-17.91-2.46-36.38-5.33-36.38-26.8,0-17.1,14.64-29.68,36.38-29.68,22,0,38,13.68,38.16,32.69H802.22c0-13.13-11.35-22.57-27.08-22.57-15,0-24.89,7.8-24.89,18.6,0,12.86,12.86,14.91,28,17,17.64,2.46,36.93,5.33,36.93,26.12C815.22,462.83,800.72,476,778,476Z"/><path class="cls-3" d="M847.36,472.54H835.18l36-96.42h16.41l36,96.42H911.36l-7.25-19.7H854.74ZM857.48,444h43.9l-21.89-57.71Z"/><path class="cls-3" d="M947.33,472.54V376.12h40.75c17.37,0,30.09,10.67,30.09,25.16a20.7,20.7,0,0,1-15.45,20.11,23.83,23.83,0,0,1,18.19,23.52c0,16-13.95,27.63-33.1,27.63Zm11.35-86.3v30.23h28c11.76,0,20.1-6.16,20.1-15.05s-8.34-15.18-20.1-15.18Zm27.63,40.35H958.68v35.83h27.63c13.54,0,23.25-7.66,23.25-18.05S999.85,426.59,986.31,426.59Z"/><path class="cls-3" d="M1061.8,376.12v96.42h-11.35V376.12Z"/><path class="cls-3" d="M586.18,618.44l24.89-88.76h11.77L595.48,626.1H577.16l-21.47-84.52L534.35,626.1H515.89L488.4,529.68h11.9l24.89,88.76,22.43-88.76H564.3Z"/><path class="cls-3" d="M641.3,626.1H629.13l36-96.42h16.41l36,96.42H705.31l-7.25-19.7H648.69Zm10.12-28.59h43.9L673.44,539.8Z"/><path class="cls-3" d="M741.27,626.1V529.68h11.35V616H802V626.1Z"/><path class="cls-3" d="M827.16,626.1V529.68h11.35V616h49.37V626.1Z"/><path class="cls-3" d="M924.12,616H980.2V626.1H913.05V529.68h65.78V539.8H924.12v31.59h49.24V581H924.12Z"/><path class="cls-3" d="M1030.25,539.8H998V529.68h75.91V539.8H1041.6v86.3h-11.35Z"/></svg>