<?xml version="1.0" encoding="utf-8"?>
<!-- Generator: Adobe Illustrator 28.0.0, SVG Export Plug-In . SVG Version: 6.00 Build 0)  -->
<svg version="1.1" id="Layer_1" xmlns="http://www.w3.org/2000/svg" xmlns:xlink="http://www.w3.org/1999/xlink" x="0px" y="0px"
	 viewBox="0 0 2000 1159.2" style="enable-background:new 0 0 2000 1159.2;" xml:space="preserve">
<style type="text/css">
	.st0{fill-rule:evenodd;clip-rule:evenodd;fill:none;}
	.st1{fill:#0B3B5E;}
	.st2{fill:#F18E2A;}
</style>
<g>
	<rect x="0.4" y="-0.6" class="st0" width="1999.3" height="1160.3"/>
	<g>
		<g>
			<path class="st1" d="M848.9,314.9L732.5,670.6h-88.4l-78.2-240.8l-80.8,240.8h-87.9L280.3,314.9h85.4l80.3,250l83.8-250H606
				l81.3,252l82.8-252H848.9z"/>
			<path class="st1" d="M848.7,533.9c0-82.3,63.5-140.7,150.4-140.7c86.9,0,149.9,58.4,149.9,140.7c0,82.3-63,140.7-149.9,140.7
				C912.2,674.7,848.7,616.2,848.7,533.9z M1068.7,533.9c0-47.3-30-75.7-69.6-75.7c-39.6,0-70.1,28.5-70.1,75.7
				c0,47.3,30.5,75.7,70.1,75.7C1038.7,609.6,1068.7,581.2,1068.7,533.9z"/>
			<path class="st1" d="M1630.8,413.7h70.1v61h-68.1v195.9h-79.3V474.7h-42.2v-61h42.2v-12.2c0-61.5,37.6-101.6,105.7-101.6
				c22.4,0,45.7,4.6,60.5,14.7l-20.8,57.4c-8.6-6.1-19.8-9.7-32-9.7c-23.4,0-36.1,12.7-36.1,39.6V413.7z"/>
			<g>
				<polygon class="st1" points="1278.9,639.2 1405.4,315.1 1304.2,315.1 1176.8,670.9 1311.7,670.9 1205.4,1013.8 1393.5,639.2 
									"/>
				<polygon class="st2" points="1490.8,315.1 1405.4,315.1 1278.9,639.2 1393.5,639.2 1205.4,1013.8 1485.4,606.6 1361.7,606.6 
									"/>
			</g>
		</g>
		<g>
			<path class="st1" d="M389.4,780.2h9.2v39.6h-9.2V780.2z"/>
			<path class="st1" d="M452.3,780.2v39.6h-7.5L425,795.8v24.1h-9.1v-39.6h7.6l19.7,24.1v-24.1H452.3z"/>
			<path class="st1" d="M553.4,780.2l-13,39.6h-9.9l-8.7-26.8l-9,26.8h-9.8l-13-39.6h9.5l8.9,27.9l9.3-27.9h8.5l9.1,28.1l9.2-28.1
				H553.4z"/>
			<path class="st1" d="M574.1,817.9c-3.3-1.8-5.9-4.2-7.8-7.3c-1.9-3.1-2.8-6.6-2.8-10.5c0-3.9,0.9-7.4,2.8-10.5
				c1.9-3.1,4.5-5.6,7.8-7.3c3.3-1.8,7-2.7,11.1-2.7c4.1,0,7.8,0.9,11.1,2.7c3.3,1.8,5.9,4.2,7.8,7.3c1.9,3.1,2.8,6.6,2.8,10.5
				c0,3.9-0.9,7.4-2.8,10.5c-1.9,3.1-4.5,5.6-7.8,7.3s-7,2.7-11.1,2.7C581.1,820.5,577.4,819.6,574.1,817.9z M591.5,811.1
				c1.9-1.1,3.4-2.6,4.4-4.5c1.1-1.9,1.6-4.1,1.6-6.6c0-2.5-0.5-4.6-1.6-6.6c-1.1-1.9-2.6-3.4-4.4-4.5c-1.9-1.1-4-1.6-6.3-1.6
				c-2.3,0-4.5,0.5-6.3,1.6c-1.9,1.1-3.4,2.6-4.4,4.5c-1.1,1.9-1.6,4.1-1.6,6.6c0,2.5,0.5,4.6,1.6,6.6c1.1,1.9,2.6,3.4,4.4,4.5
				c1.9,1.1,4,1.6,6.3,1.6C587.5,812.7,589.7,812.2,591.5,811.1z"/>
			<path class="st1" d="M621.7,780.2h9.2v32.2h19.9v7.5h-29V780.2z"/>
			<path class="st1" d="M673,787.6V798h18.3v7.4H673v14.4h-9.2v-39.6h29.9v7.4H673z"/>
			<path class="st1" d="M716,778.9c1,1,1.5,2.3,1.5,3.9c0,0.8-0.1,1.5-0.3,2.3c-0.2,0.8-0.6,1.9-1.2,3.4l-3.3,8.2h-5.6l2.4-8.9
				c-0.9-0.4-1.7-1-2.2-1.9s-0.8-1.8-0.8-3c0-1.6,0.5-2.9,1.6-3.9c1-1,2.3-1.5,3.9-1.5S715,777.9,716,778.9z"/>
			<path class="st1" d="M736.6,819.2c-2.9-0.8-5.3-2-7-3.3l3.1-6.9c1.7,1.2,3.7,2.2,6.1,3c2.3,0.8,4.7,1.1,7,1.1
				c2.6,0,4.5-0.4,5.8-1.2c1.2-0.8,1.9-1.8,1.9-3.1c0-0.9-0.4-1.7-1.1-2.3c-0.7-0.6-1.7-1.1-2.8-1.5c-1.2-0.4-2.7-0.8-4.7-1.2
				c-3-0.7-5.5-1.4-7.4-2.1c-1.9-0.7-3.6-1.9-5-3.5c-1.4-1.6-2.1-3.7-2.1-6.3c0-2.3,0.6-4.4,1.9-6.3c1.2-1.9,3.1-3.3,5.6-4.4
				c2.5-1.1,5.6-1.6,9.2-1.6c2.5,0,5,0.3,7.4,0.9c2.4,0.6,4.5,1.5,6.3,2.6l-2.8,7c-3.7-2.1-7.3-3.1-11-3.1c-2.6,0-4.5,0.4-5.7,1.2
				c-1.2,0.8-1.8,1.9-1.8,3.3c0,1.4,0.7,2.4,2.1,3c1.4,0.7,3.6,1.3,6.5,2c3,0.7,5.5,1.4,7.4,2.2c1.9,0.7,3.6,1.8,5,3.4
				c1.4,1.5,2.1,3.6,2.1,6.3c0,2.3-0.6,4.3-1.9,6.2c-1.3,1.9-3.2,3.4-5.7,4.4c-2.5,1.1-5.6,1.6-9.2,1.6
				C742.5,820.5,739.5,820.1,736.6,819.2z"/>
			<path class="st1" d="M808.6,817.9c-3.3-1.8-5.8-4.2-7.7-7.3c-1.9-3.1-2.8-6.6-2.8-10.6c0-3.9,0.9-7.4,2.8-10.6
				c1.9-3.1,4.4-5.5,7.7-7.3c3.3-1.8,6.9-2.6,11-2.6c3.4,0,6.5,0.6,9.3,1.8c2.8,1.2,5.1,2.9,7,5.2l-5.9,5.4c-2.7-3.1-6-4.6-10-4.6
				c-2.5,0-4.6,0.5-6.6,1.6c-1.9,1.1-3.4,2.6-4.5,4.5c-1.1,1.9-1.6,4.1-1.6,6.6c0,2.5,0.5,4.6,1.6,6.6c1.1,1.9,2.6,3.4,4.5,4.5
				c1.9,1.1,4.1,1.6,6.6,1.6c4,0,7.3-1.6,10-4.7l5.9,5.4c-1.9,2.3-4.2,4.1-7,5.3c-2.8,1.2-5.9,1.8-9.3,1.8
				C815.5,820.5,811.9,819.6,808.6,817.9z"/>
			<path class="st1" d="M850,780.2h9.2v32.2h19.9v7.5h-29V780.2z"/>
			<path class="st1" d="M899.5,817.9c-3.3-1.8-5.9-4.2-7.8-7.3c-1.9-3.1-2.8-6.6-2.8-10.5c0-3.9,0.9-7.4,2.8-10.5
				c1.9-3.1,4.5-5.6,7.8-7.3c3.3-1.8,7-2.7,11.1-2.7c4.1,0,7.8,0.9,11.1,2.7c3.3,1.8,5.9,4.2,7.8,7.3c1.9,3.1,2.8,6.6,2.8,10.5
				c0,3.9-0.9,7.4-2.8,10.5c-1.9,3.1-4.5,5.6-7.8,7.3c-3.3,1.8-7,2.7-11.1,2.7C906.6,820.5,902.8,819.6,899.5,817.9z M917,811.1
				c1.9-1.1,3.4-2.6,4.4-4.5c1.1-1.9,1.6-4.1,1.6-6.6c0-2.5-0.5-4.6-1.6-6.6c-1.1-1.9-2.6-3.4-4.4-4.5c-1.9-1.1-4-1.6-6.3-1.6
				c-2.3,0-4.5,0.5-6.3,1.6c-1.9,1.1-3.4,2.6-4.4,4.5c-1.1,1.9-1.6,4.1-1.6,6.6c0,2.5,0.5,4.6,1.6,6.6c1.1,1.9,2.6,3.4,4.4,4.5
				c1.9,1.1,4,1.6,6.3,1.6C913,812.7,915.1,812.2,917,811.1z"/>
			<path class="st1" d="M954.8,787.7h-12.7v-7.5h34.5v7.5H964v32.2h-9.2V787.7z"/>
			<path class="st1" d="M1025.9,780.2v39.6h-9.2v-16.2h-18v16.2h-9.2v-39.6h9.2v15.6h18v-15.6H1025.9z"/>
			<path class="st1" d="M1043.2,780.2h9.2v39.6h-9.2V780.2z"/>
			<path class="st1" d="M1106,780.2v39.6h-7.5l-19.8-24.1v24.1h-9.1v-39.6h7.6l19.7,24.1v-24.1H1106z"/>
			<path class="st1" d="M1150.1,799.4h8.4v16.1c-2.2,1.6-4.6,2.9-7.5,3.7c-2.8,0.9-5.7,1.3-8.6,1.3c-4.1,0-7.8-0.9-11.1-2.6
				c-3.3-1.8-5.9-4.2-7.7-7.3c-1.9-3.1-2.8-6.6-2.8-10.6c0-3.9,0.9-7.4,2.8-10.6c1.9-3.1,4.5-5.5,7.8-7.3c3.3-1.8,7.1-2.6,11.2-2.6
				c3.5,0,6.6,0.6,9.5,1.8c2.8,1.2,5.2,2.9,7.1,5.1l-5.9,5.4c-2.8-3-6.2-4.5-10.3-4.5c-2.5,0-4.8,0.5-6.7,1.6
				c-2,1.1-3.5,2.5-4.6,4.5c-1.1,1.9-1.6,4.1-1.6,6.6c0,2.5,0.5,4.6,1.6,6.6c1.1,1.9,2.6,3.4,4.6,4.5c1.9,1.1,4.2,1.6,6.7,1.6
				c2.6,0,5-0.6,7.1-1.7V799.4z"/>
		</g>
	</g>
</g>
</svg>
