<svg version="1.1" id="Layer_1" xmlns="http://www.w3.org/2000/svg" xmlns:xlink="http://www.w3.org/1999/xlink" x="0px" y="0px"
	 width="100%" viewBox="0 0 220 220" enable-background="new 0 0 220 220" xml:space="preserve">
<path fill="#E6E5E5" opacity="1.000000" stroke="none" 
	d="
M131.492599,149.737793 
	C131.872589,154.000946 131.913651,157.934891 131.890198,162.311890 
	C129.545410,165.439423 126.380440,164.911621 123.451332,164.918213 
	C97.970566,164.975540 72.489639,164.946533 47.008762,164.950043 
	C45.343357,164.950272 43.677631,164.931396 42.012642,164.969498 
	C36.450863,165.096756 36.115150,165.461502 35.954151,170.981018 
	C35.842739,174.800583 36.295147,178.646118 35.279453,182.881927 
	C34.922863,183.599762 34.748272,183.870392 34.233719,184.484253 
	C32.398243,184.884888 30.895514,185.064667 29.408581,184.976883 
	C24.846231,184.707535 22.010578,181.655472 22.005859,177.039581 
	C21.989504,161.039963 21.575768,145.025253 22.142885,129.045746 
	C22.546627,117.669655 27.158283,107.516876 34.062508,98.389893 
	C41.885937,88.047760 52.555462,82.676254 64.804794,79.510460 
	C70.313141,78.086853 75.117867,79.674164 78.974434,82.711250 
	C88.624832,90.311066 97.722389,98.610588 107.089996,106.572624 
	C112.945061,111.549171 118.961082,116.338585 124.749992,121.389465 
	C126.696289,123.087631 128.962646,124.623215 130.024139,127.545914 
	C127.709755,130.521866 124.533279,129.894012 121.620667,129.903351 
	C99.120941,129.975510 76.620926,129.938339 54.120998,129.942184 
	C51.787693,129.942596 49.454182,129.925781 47.121181,129.970932 
	C37.605450,130.155121 33.354794,136.184280 36.139835,145.422409 
	C36.664909,147.164108 37.781876,147.813217 39.408970,147.941574 
	C41.238384,148.085861 43.073212,148.055145 44.906197,148.055542 
	C70.739449,148.061249 96.572716,148.039871 122.405907,148.081238 
	C125.366234,148.085983 128.444244,147.619888 131.492599,149.737793 
z"/>
<path fill="#FED16F" opacity="1.000000" stroke="none" 
	d="
M131.909119,149.598663 
	C101.347672,150.016388 70.863815,149.965225 40.379963,149.915588 
	C33.917095,149.905075 33.916798,149.907654 33.910389,143.409698 
	C33.909073,142.076996 33.902836,140.744232 33.912643,139.411606 
	C33.970566,131.539139 37.258564,128.123108 45.155853,128.106354 
	C70.310524,128.052948 95.465370,128.087158 120.620155,128.082474 
	C123.451836,128.081955 126.283508,128.049133 129.581253,127.963593 
	C132.568115,130.004669 131.971756,132.909271 131.989746,135.636841 
	C132.019424,140.134460 131.990768,144.632462 131.909119,149.598663 
z"/>
<path fill="#FFD16C" opacity="1.000000" stroke="none" 
	d="
M34.455574,184.209534 
	C33.989342,178.506271 34.167053,173.013763 33.844975,167.550690 
	C33.617313,163.689209 35.136452,162.833282 38.733044,162.848129 
	C68.463242,162.970993 98.194168,162.917786 127.924873,162.914078 
	C128.920959,162.913956 129.917038,162.873199 131.369415,162.803162 
	C131.883759,167.417282 131.978668,172.079529 131.990021,176.741974 
	C132.002594,181.901291 129.092957,184.931763 123.867416,184.975861 
	C114.535263,185.054672 105.201889,184.987839 95.401611,184.906296 
	C84.029884,184.059311 73.111687,184.654327 62.200737,184.510773 
	C53.096813,184.390991 43.990643,184.574829 34.455574,184.209534 
z"/>
<path fill="#FCDBA5" opacity="1.000000" stroke="none" 
	d="
M125.410004,66.144913 
	C124.137054,63.230927 125.774406,60.967743 127.196732,59.624157 
	C135.365723,51.907440 143.845673,44.519917 152.564697,36.975098 
	C154.372330,37.907665 154.212509,39.414730 154.218201,40.882347 
	C154.237686,45.905449 155.218094,46.778091 160.144577,46.314713 
	C162.894928,46.056019 165.192352,45.067551 166.857910,42.316208 
	C168.317413,40.866745 168.886047,39.528732 168.468277,37.744675 
	C168.173218,36.484795 168.106873,35.120457 170.082001,34.491234 
	C178.033096,36.280918 185.592468,38.455322 193.291641,39.867371 
	C199.587753,41.022091 202.468536,43.603336 202.559525,49.903625 
	C202.720184,61.026901 202.863190,72.150436 203.006454,83.273956 
	C203.052673,86.862831 202.383148,89.909988 197.438446,89.828377 
	C194.391251,86.963104 195.517639,83.463501 195.343521,80.243996 
	C195.056564,74.938194 194.468399,74.259697 189.367096,75.858788 
	C174.309860,80.578690 159.061951,84.665337 144.064606,89.576889 
	C140.431244,90.766792 136.779800,91.891556 133.069321,92.802155 
	C130.776260,93.364914 128.440399,93.732498 126.428452,91.190758 
	C125.881538,90.457047 125.583572,90.034798 125.272598,89.351097 
	C125.696877,87.611389 125.468216,86.104103 125.319061,84.313797 
	C125.346375,83.515816 125.509567,83.010246 125.863144,82.294441 
	C136.833481,80.104790 147.122711,76.379585 157.524063,73.091728 
	C168.304428,69.684067 179.191299,66.614273 189.887589,62.943264 
	C194.752701,61.273540 197.017517,56.091873 195.076538,51.463245 
	C194.093185,49.118248 192.298645,50.051765 190.839478,50.428398 
	C181.659927,52.797768 172.611191,55.633446 163.559708,58.438618 
	C154.344391,61.294559 145.047592,63.862682 135.796600,66.590195 
	C132.467697,67.571671 129.011002,68.496208 125.410004,66.144913 
z"/>
<path fill="#E09745" opacity="1.000000" stroke="none" 
	d="
M126.102905,91.351067 
	C131.022690,93.274597 135.300858,90.372543 139.590820,89.127869 
	C156.643356,84.180313 173.586380,78.856033 190.580658,73.706566 
	C196.261292,71.985275 196.916779,72.498436 196.974792,78.362968 
	C197.009369,81.857132 197.032135,85.351425 197.057114,89.297333 
	C175.202164,96.236755 153.347458,102.714890 131.501343,109.221855 
	C127.916740,110.289543 126.225533,108.605446 126.076859,105.303993 
	C125.874870,100.818611 126.026382,96.317314 126.102905,91.351067 
z"/>
<path fill="#E29947" opacity="1.000000" stroke="none" 
	d="
M125.080948,66.288559 
	C133.811981,67.269585 141.368393,63.021317 149.269394,60.880371 
	C163.988678,56.891857 178.540237,52.279026 193.128983,47.819347 
	C195.478638,47.101074 196.654587,47.548786 196.833954,50.040783 
	C196.881607,50.702950 196.861893,51.369797 196.879013,52.034344 
	C197.150558,62.576275 197.159271,62.603523 187.283157,65.678413 
	C169.719849,71.146690 152.138336,76.556648 134.582535,82.048843 
	C131.966309,82.867317 129.432449,83.348358 126.435196,82.150421 
	C125.754242,76.960831 126.661736,71.755531 125.080948,66.288559 
z"/>
<path fill="#F7342F" opacity="1.000000" stroke="none" 
	d="
M168.755569,41.887421 
	C165.884537,47.108047 159.463791,49.427151 154.305206,47.579723 
	C152.577118,46.960842 152.063522,45.783401 152.264267,44.129246 
	C152.522186,42.004044 152.818970,39.883553 153.004120,37.345245 
	C154.072159,34.913109 155.139236,32.805935 157.907898,31.860359 
	C164.506912,32.006073 166.681351,36.702450 168.755569,41.887421 
z"/>
<path fill="#8DC62F" opacity="1.000000" stroke="none" 
	d="
M169.033539,42.180756 
	C165.853363,38.454071 163.322586,34.285564 158.564728,31.821739 
	C160.808136,28.692593 163.501404,29.752838 166.036118,31.660927 
	C167.307495,32.618004 168.047882,34.341717 170.224747,34.272797 
	C168.786026,35.299805 169.158539,36.407249 169.897263,37.705452 
	C170.777969,39.253212 171.132996,40.842545 169.033539,42.180756 
z"/>
<path fill="#F6D895" opacity="1.000000" stroke="none" 
	d="
M33.984043,184.195221 
	C52.298248,183.990616 70.571266,183.985382 88.844223,184.014450 
	C90.656517,184.017334 92.468491,184.229507 94.607399,184.587616 
	C74.903175,184.881180 54.872158,184.931641 34.367447,184.904816 
	C33.893749,184.827499 33.942837,184.404251 33.984043,184.195221 
z"/>
<path fill="#FFFFFF" opacity="1.000000" stroke="none" 
	d="
M125.098206,84.436707 
	C126.477028,85.401550 126.047600,86.973663 125.472946,88.813919 
	C125.177475,87.677109 125.095352,86.264565 125.098206,84.436707 
z"/>
<path fill="#EF4453" opacity="1.000000" stroke="none" 
	d="
M78.903458,100.538437 
	C79.772781,106.762802 77.990585,111.530930 72.960899,114.696686 
	C68.515297,117.494804 63.821102,117.588181 59.282410,114.821693 
	C54.178612,111.710770 52.323021,106.993698 53.059483,101.192139 
	C53.801945,95.343307 58.540409,89.194214 63.258797,88.105988 
	C67.918564,87.031296 71.720757,88.620529 74.814705,92.206490 
	C76.820015,94.530685 78.054962,97.203865 78.903458,100.538437 
z"/>
</svg>
